<?xml version="1.0" encoding="UTF-8"?> <svg xmlns="http://www.w3.org/2000/svg" width="22" height="25" viewBox="0 0 22 25" fill="none"><path d="M11.4325 14.9481C11.4568 15.0601 11.5252 15.1581 11.6226 15.2205C11.7201 15.2829 11.8387 15.3048 11.9525 15.2814H11.9493L18.9862 13.7735C19.0432 13.7619 19.0971 13.7387 19.1445 13.7056C19.192 13.6724 19.232 13.63 19.2621 13.5809L19.2631 13.5788C19.295 13.5294 19.3165 13.4741 19.3263 13.4163C19.3361 13.3586 19.334 13.2994 19.3202 13.2425L19.3212 13.2456C17.4051 6.82168 13.5442 1.99933 8.72147 1.25518e-08H8.68026C8.61448 -1.56065e-05 8.54953 0.0145459 8.49024 0.0426065C8.43095 0.070667 8.37882 0.111508 8.33771 0.162106C8.29661 0.212704 8.26758 0.271762 8.25278 0.33491C8.23798 0.398057 8.23778 0.463676 8.25221 0.526908L8.25115 0.523784L11.4325 14.9481ZM4.627 16.8433L10.1853 15.6583C10.2982 15.6343 10.3972 15.5678 10.4612 15.473L10.4622 15.4709C10.4949 15.424 10.5169 15.3706 10.5267 15.3146C10.5366 15.2585 10.534 15.201 10.5193 15.146L10.5203 15.1491L8.75001 7.11742C8.73338 7.03255 8.69037 6.95487 8.62693 6.89517C8.56349 6.83546 8.48276 6.79668 8.39595 6.7842H8.39383C8.37489 6.77912 8.35533 6.77667 8.3357 6.77691H8.31985C8.24354 6.77645 8.16952 6.79585 8.10326 6.83315C8.03701 6.87045 7.98193 6.92433 7.94359 6.98934L7.94253 6.99142L7.81887 7.19968C6.1722 9.95502 4.74431 12.3386 4.09854 16.3581C4.08787 16.4271 4.0941 16.4976 4.11671 16.5637C4.13933 16.6298 4.17767 16.6896 4.22854 16.7382C4.28371 16.7833 4.34832 16.8159 4.41776 16.8335C4.48719 16.8512 4.55973 16.8534 4.63017 16.8402H4.627V16.8433ZM4.08903 21.2294C4.17819 21.2278 4.26377 21.1945 4.33001 21.1357L4.58366 20.8857C5.06382 20.4158 5.71314 20.1521 6.38993 20.1521C7.06672 20.1521 7.71603 20.4158 8.19619 20.8857L8.44985 21.1357C8.47971 21.1657 8.51542 21.1895 8.55483 21.2056C8.59423 21.2217 8.63654 21.2298 8.6792 21.2294H8.68977C8.77893 21.2278 8.86451 21.1945 8.93074 21.1357L9.20026 20.8701C9.67895 20.4055 10.324 20.1452 10.9959 20.1454C11.6999 20.1454 12.3361 20.4255 12.799 20.8774L13.0464 21.1211C13.1107 21.1832 13.1963 21.2192 13.2863 21.2221C13.3754 21.2205 13.4621 21.1872 13.5283 21.1284L13.7756 20.8847C14.2558 20.4148 14.9051 20.151 15.5819 20.151C16.2587 20.151 16.908 20.4148 17.3882 20.8847L17.6418 21.1346C17.701 21.1919 17.7813 21.2283 17.8712 21.2283H17.8828C17.972 21.2267 18.0565 21.1935 18.1227 21.1346L18.3764 20.8847C18.6208 20.6445 18.9125 20.456 19.2335 20.3307L19.2504 20.3245C19.2726 20.2807 19.3012 20.2464 19.3234 20.2026L21.953 14.92C21.9912 14.8397 22.0066 14.7507 21.9974 14.6625C21.9883 14.5743 21.955 14.4902 21.9012 14.4192L21.9022 14.4202C21.8458 14.3496 21.7705 14.2961 21.6847 14.2657C21.5989 14.2353 21.5062 14.2293 21.4171 14.2484L21.4203 14.2473L2.74887 18.2377C2.66502 18.2559 2.58621 18.2919 2.5179 18.3432C2.4496 18.3945 2.39344 18.4598 2.35331 18.5346C2.31319 18.6094 2.29007 18.6919 2.28555 18.7764C2.28104 18.8609 2.29523 18.9453 2.32716 19.0239L2.3261 19.0197L2.92326 20.513C3.28895 20.6639 3.60074 20.8733 3.86285 21.1305C3.88648 21.1612 3.917 21.1861 3.95202 21.2032C3.98704 21.2204 4.02561 21.2293 4.06472 21.2294L4.09114 21.2283L4.08903 21.2294ZM21.5651 23.4255C21.2057 23.0746 20.7121 22.859 20.1668 22.859C19.6214 22.859 19.1268 23.0756 18.7685 23.4266L18.5148 23.6765C18.3441 23.8426 18.1138 23.9358 17.8738 23.9358C17.6338 23.9358 17.4035 23.8426 17.2328 23.6765L16.9791 23.4266C16.6198 23.0756 16.1262 22.8601 15.5808 22.8601C15.0355 22.8601 14.5408 23.0767 14.1825 23.4276L13.9352 23.6713C13.7649 23.8369 13.5351 23.9297 13.2958 23.9295H13.2894C13.1708 23.9294 13.0533 23.9059 12.944 23.8602C12.8347 23.8146 12.7358 23.7479 12.6532 23.664L12.4048 23.4193C12.0318 23.0549 11.5276 22.8509 11.0023 22.8518C10.459 22.8518 9.96757 23.0652 9.60717 23.412L9.33766 23.6775C9.16693 23.8437 8.93662 23.9369 8.69664 23.9369C8.45666 23.9369 8.22634 23.8437 8.05562 23.6775L7.80196 23.4276C7.44261 23.0767 6.94903 22.8601 6.40261 22.8601C5.85619 22.8601 5.36261 23.0767 5.00326 23.4276L4.7496 23.6775C4.57888 23.8437 4.34856 23.9369 4.10858 23.9369C3.8686 23.9369 3.63829 23.8437 3.46757 23.6775C3.04269 23.2652 2.45821 23.01 1.8135 23.01C1.16878 23.01 0.585367 23.2652 0.159431 23.6775C0.10894 23.7265 0.0688407 23.7848 0.0414687 23.8492C0.0140967 23.9135 0 23.9826 0 24.0524C0 24.1222 0.0140967 24.1913 0.0414687 24.2556C0.0688407 24.32 0.10894 24.3783 0.159431 24.4273C0.208659 24.477 0.267499 24.5166 0.332482 24.5436C0.397466 24.5706 0.467278 24.5845 0.537806 24.5845H0.542033C0.682133 24.585 0.81671 24.5307 0.91618 24.4335C1.03365 24.3172 1.1733 24.2248 1.32711 24.1618C1.48093 24.0988 1.64586 24.0663 1.81244 24.0663C1.97902 24.0663 2.14396 24.0988 2.29777 24.1618C2.45158 24.2248 2.59123 24.3172 2.7087 24.4335C3.06805 24.7834 3.56163 25 4.107 25C4.65236 25 5.147 24.7834 5.50529 24.4335L5.75895 24.1836C5.92967 24.0174 6.15999 23.9243 6.39997 23.9243C6.63995 23.9243 6.87026 24.0174 7.04098 24.1836L7.29464 24.4335C7.64977 24.7834 8.14017 25 8.68237 25H8.694H8.69294H8.69611C9.23725 25 9.72766 24.7865 10.0849 24.4398L10.3618 24.1742C10.5325 24.0081 10.7628 23.9149 11.0028 23.9149C11.2428 23.9149 11.4731 24.0081 11.6438 24.1742L11.8912 24.4179C12.2484 24.772 12.743 24.9906 13.2894 24.9917H13.3011C13.8433 24.9917 14.3337 24.7751 14.6877 24.4252L14.9351 24.1815C15.1058 24.0154 15.3361 23.9222 15.5761 23.9222C15.8161 23.9222 16.0464 24.0154 16.2171 24.1815L16.4708 24.4314C16.8301 24.7813 17.3237 24.9979 17.869 24.9979C18.4144 24.9979 18.909 24.7813 19.2673 24.4314L19.521 24.1815C19.6917 24.0154 19.922 23.9222 20.162 23.9222C20.402 23.9222 20.6323 24.0154 20.803 24.1815C20.8992 24.2752 21.0313 24.3325 21.1782 24.3325H21.1899C21.2593 24.3317 21.3279 24.3174 21.3918 24.2904C21.4556 24.2634 21.5134 24.2243 21.5619 24.1753C21.6129 24.1268 21.6536 24.0687 21.6814 24.0044C21.7091 23.9401 21.7235 23.871 21.7236 23.8011C21.7237 23.7313 21.7095 23.6621 21.6819 23.5978C21.6543 23.5334 21.6139 23.4752 21.563 23.4266L21.5651 23.4255Z" fill="white"></path></svg> 