<?xml version="1.0" encoding="UTF-8"?> <svg xmlns="http://www.w3.org/2000/svg" width="25" height="23" viewBox="0 0 25 23" fill="none"><path d="M1.25 0.0100817C0.918479 0.0100817 0.600537 0.144645 0.366116 0.38417C0.131696 0.623695 0 0.94856 0 1.2873V8.312C0 10.4705 1.2875 12.3097 3.125 13.0632V21.0842C3.125 21.5923 3.32254 22.0796 3.67417 22.4389C4.02581 22.7982 4.50272 23 5 23C5.49728 23 5.97419 22.7982 6.32583 22.4389C6.67746 22.0796 6.875 21.5923 6.875 21.0842V13.0632C8.7125 12.3097 10 10.4705 10 8.312V1.2873C10 0.94856 9.8683 0.623695 9.63388 0.38417C9.39946 0.144645 9.08152 0.0100817 8.75 0.0100817C8.41848 0.0100817 8.10054 0.144645 7.86612 0.38417C7.6317 0.623695 7.5 0.94856 7.5 1.2873V6.39617C7.5 6.56554 7.43415 6.72797 7.31694 6.84774C7.19973 6.9675 7.04076 7.03478 6.875 7.03478C6.70924 7.03478 6.55027 6.9675 6.43306 6.84774C6.31585 6.72797 6.25 6.56554 6.25 6.39617V1.2873C6.25 0.94856 6.1183 0.623695 5.88388 0.38417C5.64946 0.144645 5.33152 0.0100817 5 0.0100817C4.66848 0.0100817 4.35054 0.144645 4.11612 0.38417C3.8817 0.623695 3.75 0.94856 3.75 1.2873V6.39617C3.75 6.56554 3.68415 6.72797 3.56694 6.84774C3.44973 6.9675 3.29076 7.03478 3.125 7.03478C2.95924 7.03478 2.80027 6.9675 2.68306 6.84774C2.56585 6.72797 2.5 6.56554 2.5 6.39617V1.2873C2.5 0.94856 2.3683 0.623695 2.13388 0.38417C1.89946 0.144645 1.58152 0.0100817 1.25 0.0100817ZM22.35 0.0100817C22.1875 0.0100817 22.025 0.125031 21.875 0.214437L17.5 2.88382V7.67339H12.5V10.2278H13.75L15 23H22.5L23.75 10.2278H25V7.67339H20V4.27599L23.125 2.36016C23.75 2.00254 23.9125 1.2873 23.55 0.648691C23.2875 0.188892 22.825 -0.0537792 22.35 0.0100817Z" fill="#333333"></path></svg> 