<?xml version="1.0" encoding="UTF-8"?> <svg xmlns="http://www.w3.org/2000/svg" width="232" height="68" viewBox="0 0 232 68" fill="none"><path d="M2.09423 28.2924C4.75286 29.3679 7.5901 29.9335 10.4579 29.9598C13.4299 29.6134 16.3417 28.8687 19.115 27.7455C18.9683 26.4116 18.8082 25.0777 18.6348 23.7438C15.8469 24.6375 12.5921 26.0515 9.89764 25.9581C6.86965 25.9581 3.90835 24.7576 0.947057 23.8105C0.786987 25.051 0.640261 26.3449 0.49353 27.7188L2.09423 28.2924Z" fill="#2E2F31"></path><path d="M8.33698 32.7343C5.56351 32.35 2.84266 31.6519 0.226763 30.6534C0.226763 31.067 0.146733 31.4405 0.106716 31.854C0.0666983 32.2675 0.106713 32.8544 0 33.3346L1.53401 33.8815C4.10739 34.8061 6.80565 35.3368 9.53751 35.4555C12.371 35.4073 15.1778 34.8982 17.8478 33.9482C18.4081 33.7615 18.995 33.548 19.5819 33.3213C19.5819 32.8411 19.5819 32.3609 19.4752 31.854C19.3685 31.3471 19.4752 31.067 19.3685 30.6668L18.7682 30.8802C15.4546 32.2055 11.9043 32.8366 8.33698 32.7343Z" fill="#2E2F31"></path><path d="M9.77762 1.69409C10.0594 1.70408 10.333 1.79153 10.5683 1.94684C10.8036 2.10215 10.9916 2.31932 11.1115 2.57448C12.2053 4.92217 15.7402 12.4188 17.3809 32.0274C19.3551 54.3705 9.77762 53.7435 9.77762 53.7435C9.77762 53.7435 0.240117 54.3705 2.1076 32.0274C3.80167 12.4188 7.32321 4.86881 8.4437 2.57448C8.56487 2.32023 8.75313 2.10387 8.98819 1.94873C9.22326 1.79359 9.49621 1.70554 9.77762 1.69409Z" fill="#F2F3F5"></path><path d="M6.73633 9.56416C6.97612 9.49983 7.20529 9.40098 7.41663 9.2707C7.65008 9.18052 7.90082 9.14405 8.15028 9.16399C8.41455 9.17387 8.66992 9.26209 8.88394 9.41743C9.16148 9.59778 9.48675 9.69072 9.81768 9.68421C10.1446 9.69223 10.4661 9.59905 10.7381 9.41743C10.9593 9.26635 11.2176 9.1787 11.4851 9.16399C11.7315 9.14024 11.9799 9.18164 12.2054 9.28404C12.4246 9.40465 12.6575 9.49869 12.899 9.56416C13.1874 9.64112 13.491 9.64112 13.7794 9.56416V9.47079C13.5114 9.52973 13.2337 9.52973 12.9657 9.47079C12.7453 9.38816 12.535 9.28076 12.3388 9.15065C12.0842 9.00339 11.7921 8.93384 11.4984 8.95056C11.1845 8.95986 10.8796 9.0569 10.618 9.23068C10.3866 9.37488 10.1166 9.44471 9.84436 9.43077C9.57208 9.44471 9.30207 9.37488 9.07069 9.23068C8.80739 9.06061 8.50346 8.96391 8.1903 8.95056C7.89419 8.9358 7.5995 9.00027 7.33659 9.13731C7.14815 9.27582 6.94172 9.38801 6.72299 9.47079C6.45496 9.52973 6.17733 9.52973 5.9093 9.47079V9.56416C6.18081 9.63194 6.46482 9.63194 6.73633 9.56416Z" fill="#2E2F31"></path><path d="M6.05602 12.8723C6.34713 12.7914 6.62551 12.6702 6.88305 12.5122C7.16556 12.3946 7.47152 12.3444 7.77677 12.3654C8.10772 12.3827 8.42694 12.4937 8.69718 12.6856C9.03486 12.8916 9.42209 13.0023 9.81766 13.0057C10.2093 13.0039 10.5927 12.8931 10.9248 12.6856C11.1951 12.4937 11.5143 12.3827 11.8452 12.3654C12.1519 12.341 12.4598 12.3961 12.7389 12.5255C13.0044 12.6738 13.2865 12.7903 13.5793 12.8723C13.9203 12.9622 14.2788 12.9622 14.6198 12.8723V12.7789C14.294 12.8447 13.9584 12.8447 13.6327 12.7789C13.3613 12.6827 13.1053 12.5479 12.8723 12.3788C12.5566 12.213 12.2008 12.1391 11.8452 12.1653C11.4706 12.1692 11.1049 12.2803 10.7914 12.4855C10.5034 12.6644 10.1701 12.7569 9.831 12.7523C9.493 12.7632 9.15916 12.6751 8.87058 12.4988C8.55347 12.2892 8.1835 12.1736 7.80344 12.1653C7.4522 12.1402 7.10096 12.2141 6.78967 12.3788C6.55496 12.5416 6.29916 12.6717 6.02934 12.7656C5.70421 12.8372 5.36737 12.8372 5.04224 12.7656V12.859C5.37389 12.9469 5.72216 12.9515 6.05602 12.8723Z" fill="#2E2F31"></path><path d="M5.6558 16.0603C5.97079 15.9576 6.27466 15.8236 6.56286 15.6601C6.87706 15.5212 7.22064 15.4616 7.56329 15.4867C7.93368 15.5029 8.29102 15.6282 8.59042 15.8469C8.96127 16.0698 9.38495 16.1895 9.81762 16.1937C10.2484 16.1928 10.6699 16.0678 11.0315 15.8336C11.3366 15.6281 11.6913 15.5083 12.0586 15.4867C12.4014 15.4593 12.7455 15.519 13.059 15.6601C13.3478 15.8316 13.6571 15.9661 13.9794 16.0603C14.4275 16.1488 14.8917 16.1024 15.3134 15.9269V15.8469C15.1593 15.9056 14.9976 15.9416 14.8331 15.9536C14.5639 15.9648 14.2945 15.9379 14.0328 15.8736C13.7351 15.769 13.4525 15.6255 13.1924 15.4467C12.8503 15.2592 12.4609 15.1757 12.0719 15.2066C11.6542 15.2114 11.2466 15.3364 10.8981 15.5668C10.5768 15.7623 10.2071 15.864 9.83096 15.8602C9.45377 15.8725 9.08171 15.7702 8.76382 15.5668C8.41253 15.3423 8.00671 15.2178 7.58998 15.2066C7.20277 15.1782 6.81518 15.2567 6.46948 15.4334C6.20362 15.6139 5.91699 15.7616 5.61578 15.8736C5.18038 16.0018 4.71726 16.0018 4.28186 15.8736V15.9403C4.71689 16.1194 5.19629 16.1613 5.6558 16.0603Z" fill="#2E2F31"></path><path d="M5.33563 19.2884C5.67638 19.1805 6.00323 19.0327 6.30939 18.8482C6.64763 18.6951 7.02068 18.6352 7.38986 18.6748C7.79119 18.6907 8.17976 18.8202 8.51036 19.0483C8.90886 19.3024 9.37165 19.4374 9.84427 19.4374C10.3169 19.4374 10.7797 19.3024 11.1782 19.0483C11.5011 18.8149 11.8871 18.6847 12.2853 18.6748C12.6557 18.6387 13.029 18.7032 13.3658 18.8616C13.677 19.0419 14.0083 19.1852 14.3529 19.2884C14.8852 19.3989 15.4392 19.3284 15.9269 19.0883C15.7216 19.1839 15.4995 19.2382 15.2733 19.2484C14.9863 19.2659 14.6983 19.2389 14.4196 19.1684C14.0915 19.0588 13.7814 18.9015 13.4992 18.7015C13.1281 18.5133 12.7141 18.4259 12.2987 18.448C11.8535 18.4615 11.4202 18.5951 11.0448 18.8349C10.6949 19.0401 10.2966 19.1482 9.89096 19.1482C9.48532 19.1482 9.08703 19.0401 8.73712 18.8349C8.36252 18.5916 7.92949 18.4534 7.48324 18.4347C7.06703 18.4022 6.65025 18.4902 6.28271 18.6882C5.99438 18.8778 5.68565 19.0344 5.36231 19.155C4.86484 19.2872 4.33883 19.2639 3.85498 19.0883V19.155C4.32329 19.3498 4.84005 19.3963 5.33563 19.2884Z" fill="#2E2F31"></path><path d="M5.05555 22.5031C5.41929 22.3942 5.76862 22.2419 6.096 22.0496C6.45482 21.8854 6.84994 21.8164 7.24317 21.8495C7.66945 21.8529 8.08592 21.9779 8.4437 22.2097C8.86169 22.4641 9.34162 22.5987 9.83097 22.5987C10.3203 22.5987 10.8003 22.4641 11.2182 22.2097C11.5701 21.9706 11.9806 21.8322 12.4054 21.8095C12.7982 21.7853 13.1912 21.8538 13.5526 22.0096C13.8754 22.2141 14.2257 22.3713 14.5931 22.4765C15.1614 22.5959 15.7534 22.5207 16.2738 22.263L16.4472 22.2097L16.3005 22.2897C16.0784 22.377 15.8447 22.431 15.6068 22.4498C15.2978 22.4679 14.9877 22.441 14.6864 22.3697C14.3408 22.2505 14.0132 22.0844 13.7127 21.8762C13.3033 21.6598 12.8398 21.5671 12.3787 21.6094C11.9042 21.6196 11.442 21.7629 11.0448 22.0229C10.6799 22.2578 10.2513 22.3743 9.81763 22.3564C9.37978 22.3744 8.94689 22.258 8.57709 22.0229C8.18187 21.7588 7.71847 21.6152 7.24317 21.6094C6.7819 21.5639 6.31754 21.6568 5.90925 21.8762C5.60759 22.0825 5.28023 22.2484 4.9355 22.3697C4.40634 22.5078 3.84755 22.4798 3.33479 22.2897L3.25476 22.2097C3.29481 22.2398 3.34001 22.2624 3.38815 22.2764C3.90091 22.5428 4.49026 22.623 5.05555 22.5031Z" fill="#2E2F31"></path><path d="M4.82884 25.7312C5.21051 25.6132 5.57748 25.4521 5.92265 25.251C6.2995 25.0832 6.7116 25.0099 7.12318 25.0375C7.56803 25.0633 7.99722 25.211 8.36372 25.4644C8.79838 25.7395 9.3033 25.8831 9.81769 25.8779C10.3284 25.8868 10.8301 25.7428 11.2583 25.4644C11.6222 25.2058 12.0529 25.0576 12.4989 25.0375C12.9146 25.013 13.3303 25.0861 13.7127 25.251C14.0462 25.4653 14.4106 25.6272 14.7932 25.7312C15.3873 25.8629 16.0086 25.7876 16.554 25.5177L16.7941 25.371L16.5273 25.5044C16.2926 25.5979 16.0454 25.6563 15.7936 25.6778C15.475 25.6973 15.1553 25.6657 14.8466 25.5844C14.4817 25.4656 14.1357 25.2949 13.8194 25.0776C13.4092 24.8628 12.9475 24.7659 12.4855 24.7974C12.0099 24.813 11.5479 24.9608 11.1516 25.2243C10.756 25.4818 10.2892 25.6079 9.81769 25.5844C9.3481 25.6074 8.8827 25.4864 8.48377 25.2376C8.08644 24.9744 7.62583 24.8224 7.14985 24.7974C6.68773 24.7637 6.22546 24.8608 5.81594 25.0776C5.49327 25.2838 5.14881 25.4538 4.78883 25.5844C4.22991 25.7223 3.64173 25.6803 3.10809 25.4644L2.84131 25.331L3.09475 25.4644C3.62617 25.7463 4.23726 25.8403 4.82884 25.7312Z" fill="#2E2F31"></path><path d="M4.57532 28.9593C4.97065 28.8323 5.35086 28.6623 5.70915 28.4524C6.12691 28.2635 6.58633 28.1854 7.04307 28.2257C7.52247 28.2432 7.98622 28.4009 8.37698 28.6792C8.60167 28.8177 8.84394 28.9254 9.0973 28.9994C9.35757 29.0732 9.62712 29.1091 9.89765 29.1061C10.4365 29.1101 10.9649 28.9572 11.4183 28.6659C11.8119 28.3951 12.2747 28.2423 12.7522 28.2257C13.1868 28.1967 13.6219 28.2745 14.0195 28.4524C14.3783 28.6703 14.7639 28.8407 15.1666 28.9593C15.7884 29.0897 16.4359 29.01 17.0074 28.7326L17.2609 28.5858L16.9808 28.7192C16.7387 28.8188 16.4817 28.8774 16.2204 28.8926C15.8804 28.9238 15.5376 28.8968 15.2066 28.8126C14.823 28.6869 14.4592 28.5072 14.1262 28.279C13.7163 28.0623 13.2553 27.9609 12.7923 27.9856C12.2745 27.9967 11.7705 28.154 11.3383 28.4391C10.9384 28.6884 10.4755 28.818 10.0044 28.8126C9.53248 28.8235 9.06808 28.6934 8.67045 28.4391C8.24111 28.1583 7.74261 28.0013 7.22981 27.9856C6.76842 27.9619 6.30878 28.0584 5.8959 28.2657C5.56004 28.4925 5.19705 28.6762 4.81543 28.8126C4.23396 28.9738 3.61581 28.941 3.05466 28.7192L2.77454 28.5858L3.04132 28.7459C3.52321 28.9571 4.05409 29.0309 4.57532 28.9593Z" fill="#2E2F31"></path><path d="M4.36194 32.1741C4.77854 32.0469 5.17742 31.8676 5.54912 31.6405C5.96901 31.4586 6.42663 31.3808 6.88304 31.4138C7.36156 31.4466 7.82237 31.6079 8.21695 31.8806C8.44858 32.0305 8.70001 32.1472 8.96394 32.2274C9.23561 32.2892 9.51254 32.3249 9.79098 32.3342C10.3475 32.3312 10.8922 32.1742 11.365 31.8806C11.7564 31.6017 12.219 31.4398 12.6989 31.4138C13.1566 31.3812 13.6152 31.4637 14.0328 31.6539C14.4024 31.8816 14.802 32.0567 15.22 32.1741C15.8675 32.3188 16.5449 32.2388 17.1408 31.9473L17.4076 31.7873L17.1142 31.934C16.8667 32.0474 16.5992 32.1109 16.3272 32.1207C15.9739 32.1449 15.619 32.1179 15.2734 32.0407C14.8785 31.9001 14.5022 31.712 14.1529 31.4805C13.711 31.245 13.2117 31.1387 12.7122 31.1737C12.1722 31.187 11.6461 31.3485 11.1916 31.6405C10.7705 31.9114 10.2782 32.0507 9.77763 32.0407C9.30292 32.0198 8.84241 31.8724 8.44372 31.6138C8.21728 31.4718 7.97568 31.3554 7.7234 31.267C7.46924 31.1834 7.20394 31.1384 6.9364 31.1336C6.43426 31.1003 5.93233 31.2017 5.48242 31.4271C5.13305 31.6586 4.75679 31.8468 4.36194 31.9873C3.75501 32.1616 3.1073 32.1288 2.52112 31.894L2.22766 31.7606L2.49445 31.9206C3.07386 32.2025 3.72835 32.2914 4.36194 32.1741Z" fill="#2E2F31"></path><path d="M4.25521 35.3887C4.67583 35.261 5.07907 35.0818 5.45573 34.8552C5.87229 34.6616 6.33176 34.5789 6.78965 34.6151C7.26946 34.6519 7.73038 34.8178 8.12357 35.0953C8.3673 35.2402 8.62689 35.3565 8.89723 35.4421C9.18634 35.5073 9.48131 35.543 9.77762 35.5488C10.0615 35.5416 10.3435 35.5013 10.618 35.4287C10.8851 35.3457 11.1406 35.2292 11.3783 35.0819C11.7755 34.8143 12.2349 34.6535 12.7122 34.6151C13.1701 34.5789 13.6296 34.6616 14.0461 34.8552C14.4259 35.085 14.8339 35.2644 15.26 35.3887C15.9163 35.5333 16.6021 35.4534 17.2075 35.162L17.541 34.9619L17.1809 35.1353C16.9243 35.2517 16.6484 35.3195 16.3672 35.3354C16.0095 35.3601 15.6501 35.3331 15.3 35.2553C14.8939 35.1159 14.5081 34.923 14.1529 34.6817C13.7031 34.4413 13.1939 34.3349 12.6856 34.3749C12.1388 34.3848 11.6063 34.5515 11.1516 34.8552C10.7155 35.1256 10.2106 35.2645 9.69759 35.2553C9.18453 35.2645 8.6797 35.1256 8.24361 34.8552C8.01103 34.7158 7.7653 34.5996 7.50997 34.5083C7.25268 34.4188 6.98203 34.3737 6.70961 34.3749C6.19887 34.3414 5.68828 34.4426 5.22896 34.6684C4.87522 34.9122 4.48909 35.1053 4.0818 35.242C3.46589 35.4163 2.80977 35.3835 2.21432 35.1486L1.84082 34.9752C1.94945 35.0533 2.06563 35.1204 2.18763 35.1753C2.82907 35.4916 3.56268 35.5673 4.25521 35.3887Z" fill="#2E2F31"></path><path d="M17.3009 38.31C17.0423 38.4205 16.7675 38.4881 16.4872 38.5101C16.1288 38.5299 15.7695 38.4984 15.4201 38.4168C15.0139 38.2773 14.6281 38.0844 14.2729 37.8432C13.7994 37.6134 13.275 37.5087 12.7496 37.539C12.2243 37.5694 11.7154 37.7338 11.2716 38.0166C10.8377 38.2921 10.3313 38.4315 9.8176 38.4168C9.30496 38.438 8.79796 38.3031 8.36363 38.0299C8.13149 37.8861 7.88575 37.7654 7.62997 37.6698C6.87465 37.4408 6.06101 37.5027 5.34898 37.8432C4.9922 38.0818 4.60677 38.2745 4.20181 38.4168C3.58384 38.581 2.92956 38.5436 2.33432 38.31C2.1875 38.2535 2.04486 38.1866 1.90747 38.1099L2.30765 38.3501C2.9129 38.6432 3.60078 38.7186 4.25517 38.5635C4.67795 38.4416 5.08193 38.2621 5.45569 38.0299C5.87346 37.841 6.33287 37.7629 6.78961 37.8031C7.27026 37.8254 7.73391 37.9877 8.12353 38.27C8.36726 38.4149 8.62685 38.5313 8.89719 38.6168C9.17075 38.6925 9.45378 38.7284 9.73757 38.7236C10.0213 38.7275 10.3042 38.6916 10.5779 38.6168C10.8478 38.535 11.104 38.4136 11.3383 38.2567C11.7342 37.9887 12.1949 37.8321 12.6722 37.8031C13.1304 37.7606 13.5915 37.8436 14.0061 38.0433C14.3858 38.2731 14.7939 38.4525 15.22 38.5768C15.6526 38.7001 16.1073 38.7245 16.5506 38.6483C16.9939 38.5721 17.4145 38.3972 17.7811 38.1366L17.3009 38.31Z" fill="#2E2F31"></path><path d="M17.0742 41.5115C16.8246 41.6188 16.5583 41.682 16.2872 41.6982C15.9427 41.7228 15.5965 41.6958 15.26 41.6182C14.8652 41.4776 14.4889 41.2895 14.1396 41.0579C13.6991 40.8319 13.2067 40.7261 12.7123 40.7511C12.1797 40.7713 11.6629 40.9374 11.2183 41.2313C10.8175 41.4801 10.356 41.6139 9.88437 41.6182C9.37714 41.6288 8.87739 41.4946 8.44373 41.2313C8.21761 41.0972 7.98121 40.9813 7.73676 40.8845C7.48548 40.8078 7.22555 40.763 6.96309 40.7511C6.4636 40.7162 5.96436 40.8225 5.52245 41.0579C5.17748 41.2854 4.80559 41.4691 4.41531 41.6048C3.81138 41.7656 3.17224 41.7329 2.58784 41.5115L2.12097 41.2847C2.22769 41.2847 2.37441 41.4581 2.5745 41.5648C3.16483 41.8438 3.83106 41.9188 4.46866 41.7782C4.88031 41.655 5.27473 41.4802 5.64251 41.258C6.05858 41.0636 6.51948 40.9852 6.97643 41.0313C7.45445 41.0562 7.91621 41.2132 8.31034 41.4848C8.54006 41.6295 8.78638 41.7459 9.04399 41.8316C9.31581 41.8925 9.59266 41.9282 9.87102 41.9383C10.423 41.9329 10.9628 41.776 11.4317 41.4848C11.8249 41.2112 12.2872 41.054 12.7656 41.0313C13.2224 40.991 13.6818 41.0691 14.0995 41.258C14.4657 41.4833 14.8605 41.6583 15.2734 41.7782C15.912 41.9243 16.5815 41.8442 17.1676 41.5515C17.3285 41.4672 17.4843 41.3737 17.6344 41.2714L17.0742 41.5115Z" fill="#2E2F31"></path><path d="M16.1404 44.8863C15.8041 44.9059 15.4668 44.8744 15.14 44.7929C14.751 44.6701 14.3823 44.4903 14.0462 44.2593C13.6347 44.0456 13.1757 43.9401 12.7122 43.9525C12.1941 43.9725 11.6912 44.134 11.2583 44.4194C10.86 44.6722 10.396 44.8021 9.92436 44.7929C9.45248 44.8037 8.98807 44.6737 8.59044 44.4194C8.1582 44.1342 7.65417 43.977 7.13647 43.9659C6.64837 43.9277 6.1592 44.0246 5.72252 44.246C5.38667 44.4728 5.02367 44.6565 4.64205 44.7929C4.056 44.9532 3.43392 44.9204 2.86794 44.6995C2.79668 44.6793 2.72913 44.6478 2.66785 44.6061V44.6728L2.84126 44.7662C3.41462 45.0381 4.0617 45.1132 4.68206 44.9796C5.08263 44.8552 5.46755 44.6851 5.82923 44.4728C6.247 44.2838 6.70641 44.2057 7.16315 44.246C7.64256 44.2636 8.1063 44.4212 8.49707 44.6995C8.72776 44.8355 8.97411 44.943 9.23071 45.0197C9.49054 45.0956 9.76042 45.1316 10.0311 45.1264C10.5703 45.1328 11.0993 44.9796 11.5517 44.6862C11.9491 44.4229 12.4097 44.2709 12.8857 44.246C13.3424 44.2057 13.8018 44.2838 14.2196 44.4728C14.5797 44.6882 14.965 44.8584 15.3667 44.9796C15.9929 45.111 16.6449 45.0313 17.2209 44.7529L17.3809 44.6595L17.1809 44.7529C16.8459 44.8641 16.4926 44.9094 16.1404 44.8863Z" fill="#2E2F31"></path><path d="M15.3534 48.0476C15.0576 48.0658 14.7607 48.0388 14.473 47.9676C14.1353 47.8614 13.8158 47.7039 13.5259 47.5007C13.1507 47.2966 12.7249 47.2041 12.2987 47.2339C11.8252 47.2387 11.3628 47.3775 10.9648 47.6341C10.6032 47.8477 10.1909 47.9603 9.77097 47.9603C9.351 47.9603 8.93872 47.8477 8.57711 47.6341C8.18257 47.3686 7.71873 47.2248 7.24319 47.2206C6.81414 47.1878 6.38445 47.2755 6.00265 47.474C5.713 47.673 5.39924 47.8344 5.06891 47.9542C4.55519 48.1016 4.00751 48.0782 3.50823 47.8876L3.2948 47.7808L3.46821 47.8742C3.97292 48.1214 4.54603 48.1918 5.09559 48.0743C5.45033 47.9698 5.79083 47.822 6.10936 47.6341C6.45391 47.4703 6.83729 47.4056 7.21652 47.4474C7.62879 47.4598 8.02809 47.5944 8.36369 47.8342C8.76637 48.0786 9.22661 48.2121 9.6976 48.221C10.171 48.2155 10.6333 48.0768 11.0315 47.8209C11.3642 47.5869 11.7588 47.4569 12.1653 47.4474C12.5487 47.4111 12.9349 47.4755 13.2858 47.6341C13.6031 47.8244 13.9439 47.9724 14.2996 48.0743C14.8448 48.1908 15.4134 48.1204 15.9137 47.8742L16.1004 47.7675L15.8736 47.8609C15.7108 47.9493 15.5353 48.0123 15.3534 48.0476Z" fill="#2E2F31"></path><path d="M4.44196 22.7566H4.08181C3.96175 23.6503 3.8417 24.544 3.73499 25.4244H4.00176H4.50866C4.58869 24.5307 4.69541 23.6503 4.78878 22.7566H4.44196Z" fill="#2E2F31"></path><path d="M5.24227 16.2871C5.05552 17.1808 4.88212 18.0746 4.72205 18.9549C4.89521 18.968 5.06911 18.968 5.24227 18.9549H5.33565C5.4557 18.0746 5.60244 17.1808 5.74917 16.2871H5.24227Z" fill="#2E2F31"></path><path d="M3.49481 31.894C3.65461 31.9072 3.81522 31.9072 3.97502 31.894C3.97502 31.147 4.08173 30.3867 4.14843 29.6263C4.15551 29.4975 4.15551 29.3683 4.14843 29.2395H3.90832C3.71292 29.2533 3.5168 29.2533 3.3214 29.2395V29.3462L3.0813 32.014L3.49481 31.894Z" fill="#2E2F31"></path><path d="M3.73497 28.6659C3.8992 28.6796 4.06428 28.6796 4.22851 28.6659C4.30855 27.7855 4.40192 26.8918 4.48196 25.998H4.22851C4.05535 26.0112 3.88145 26.0112 3.70828 25.998C3.60157 26.9051 3.49486 27.8122 3.40149 28.6659H3.73497Z" fill="#2E2F31"></path><path d="M5.56238 15.6868C5.66493 15.6536 5.76338 15.6089 5.85585 15.5535C6.01592 14.6731 6.17599 13.806 6.36274 12.8856C6.27575 12.9184 6.18661 12.9451 6.09595 12.9657H6.00258C5.77581 13.8594 5.56239 14.7664 5.3623 15.6335L5.56238 15.6868Z" fill="#2E2F31"></path><path d="M3.89495 41.4848C3.89495 40.6044 3.78823 39.724 3.76156 38.817H3.57481C3.33242 38.8182 3.0907 38.7914 2.85449 38.7369C2.85449 39.6307 2.85449 40.5244 3.00122 41.4048C3.18737 41.4259 3.37532 41.4259 3.56147 41.4048L3.89495 41.4848Z" fill="#2E2F31"></path><path d="M4.29524 45.2197H3.89507C3.77538 45.2329 3.6546 45.2329 3.53491 45.2197C3.71068 46.1293 3.96507 47.022 4.29524 47.8876H4.44198C4.58395 47.9007 4.72685 47.9007 4.86883 47.8876C4.61343 47.0133 4.42173 46.1217 4.29524 45.2197Z" fill="#2E2F31"></path><path d="M7.21653 8.87054H7.3099C7.41662 8.43035 7.52333 7.99015 7.64338 7.53662C7.48331 7.99015 7.32324 8.44368 7.17651 8.87054H7.21653Z" fill="#2E2F31"></path><path d="M3.10794 35.1087H3.3347H3.74822C3.74822 34.2283 3.82825 33.3346 3.89495 32.4408H3.65485C3.43974 32.4398 3.22526 32.4175 3.01457 32.3741C3.01457 33.2679 2.89451 34.1616 2.85449 35.042L3.10794 35.1087Z" fill="#2E2F31"></path><path d="M6.17603 12.3654L6.46948 12.2053C6.65623 11.3649 6.84298 10.5246 7.04306 9.6842L6.883 9.7509C6.65623 10.5913 6.40279 11.5383 6.17603 12.3654Z" fill="#2E2F31"></path><path d="M5.06888 48.3678H4.65537H4.52197C5.03788 49.6703 5.94116 50.7831 7.10977 51.5559C6.16423 50.6884 5.46085 49.5897 5.06888 48.3678Z" fill="#2E2F31"></path><path d="M3.7083 44.7129C3.87704 44.7253 4.04647 44.7253 4.2152 44.7129C4.09515 43.8058 4.01511 42.9121 3.93508 42.045H3.76166C3.52646 42.0659 3.28988 42.0659 3.05469 42.045C3.13472 42.8854 3.25477 43.8058 3.42818 44.7129H3.7083Z" fill="#2E2F31"></path><path d="M2.84122 38.2167H3.14802H3.76162C3.76162 37.3364 3.76162 36.4426 3.76162 35.5489H3.56153C3.32358 35.5494 3.08637 35.5225 2.85455 35.4689C2.84121 36.4693 2.82788 37.363 2.84122 38.2167Z" fill="#2E2F31"></path><path d="M4.28181 22.2097C4.49323 22.2079 4.70369 22.1811 4.90876 22.1296C5.01547 21.2492 5.12219 20.3555 5.25558 19.4618H4.80204H4.62864C4.4819 20.3555 4.33517 21.2626 4.20178 22.1296L4.28181 22.2097Z" fill="#2E2F31"></path><path d="M10.8314 51.4625C10.8314 51.663 10.7719 51.859 10.6605 52.0257C10.5491 52.1924 10.3908 52.3224 10.2056 52.3991C10.0203 52.4758 9.81648 52.4959 9.61983 52.4568C9.42317 52.4177 9.24254 52.3211 9.10076 52.1794C8.95898 52.0376 8.86243 51.8569 8.82331 51.6603C8.7842 51.4636 8.80427 51.2598 8.881 51.0746C8.95773 50.8893 9.08767 50.731 9.25438 50.6196C9.4211 50.5082 9.6171 50.4487 9.81761 50.4487C10.0865 50.4487 10.3443 50.5555 10.5345 50.7457C10.7246 50.9358 10.8314 51.1936 10.8314 51.4625Z" fill="#2E2F31"></path><path d="M10.7114 3.53493C10.714 3.71544 10.6627 3.89263 10.5641 4.04383C10.4654 4.19502 10.3239 4.31334 10.1576 4.38364C9.99135 4.45394 9.80788 4.47302 9.63069 4.43845C9.4535 4.40388 9.29066 4.31722 9.16301 4.18957C9.03535 4.06191 8.9487 3.89907 8.91413 3.72189C8.87956 3.5447 8.89864 3.36123 8.96894 3.19495C9.03924 3.02867 9.15756 2.88716 9.30875 2.78851C9.45994 2.68986 9.63713 2.63857 9.81764 2.64121C10.0547 2.64121 10.282 2.73537 10.4496 2.90298C10.6172 3.07058 10.7114 3.2979 10.7114 3.53493Z" fill="#2E2F31"></path><path d="M10.5247 3.86835C10.5925 3.74974 10.6335 3.61769 10.6447 3.48152C10.6516 3.45077 10.6516 3.41889 10.6447 3.38814V3.25475C10.6447 2.89459 10.5513 2.56111 10.5113 2.28099C10.4713 2.00087 10.5113 2.01421 10.5113 1.90749V3.46818C10.5113 3.61323 10.4537 3.75233 10.3511 3.8549C10.2486 3.95746 10.1095 4.01508 9.96442 4.01508C9.89148 4.01686 9.81893 4.00403 9.75103 3.97734C9.68313 3.95066 9.62125 3.91065 9.56904 3.85969C9.51684 3.80873 9.47536 3.74784 9.44704 3.6806C9.41873 3.61336 9.40415 3.54113 9.40418 3.46818V1.80078C9.40418 1.90749 9.40418 2.02755 9.40418 2.17428C9.40418 2.32101 9.29746 2.78788 9.25744 3.14804C9.20685 3.38452 9.24482 3.63134 9.36416 3.84167C9.44179 3.95264 9.54587 4.04247 9.667 4.10303C9.78812 4.1636 9.92245 4.19297 10.0578 4.18849C10.2462 4.14002 10.4115 4.02666 10.5247 3.86835Z" fill="#2E2F31"></path><path d="M9.77765 3.90837C9.70471 3.91015 9.63216 3.89732 9.56426 3.87064C9.49636 3.84395 9.43448 3.80395 9.38227 3.75298C9.33007 3.70202 9.28859 3.64113 9.26027 3.57389C9.23196 3.50665 9.21739 3.43443 9.21741 3.36147V0.560245C9.21741 0.411659 9.27643 0.269157 9.3815 0.164091C9.48657 0.0590247 9.62906 2.42043e-08 9.77765 2.42043e-08C9.85061 -2.16796e-05 9.92284 0.014553 9.99007 0.042868C10.0573 0.071183 10.1182 0.112666 10.1692 0.164872C10.2201 0.217078 10.2601 0.278953 10.2868 0.346854C10.3135 0.414755 10.3263 0.48731 10.3246 0.560245V3.36147C10.3246 3.50652 10.2669 3.64563 10.1644 3.74819C10.0618 3.85076 9.9227 3.90837 9.77765 3.90837Z" fill="#F2F3F5"></path><path d="M10.0711 0.333496C10.0711 0.333496 10.0711 0.533582 10.0711 0.840383C10.0943 1.21352 10.0943 1.58774 10.0711 1.96087C10.0711 2.36105 10.0711 2.77456 10.0711 3.08136C10.0711 3.38816 9.99109 3.58825 9.99109 3.58825C9.95116 3.42165 9.9244 3.25216 9.91105 3.08136C9.88829 2.70821 9.88829 2.33402 9.91105 1.96087C9.88789 1.58774 9.88789 1.21352 9.91105 0.840383C9.95055 0.667354 10.0041 0.497832 10.0711 0.333496Z" fill="#2E2F31"></path><path d="M9.77759 50.929C9.63608 50.929 9.50036 50.9852 9.4003 51.0852C9.30023 51.1853 9.24402 51.321 9.24402 51.4625V53.7168H9.44411V51.4492C9.44411 51.3607 9.47925 51.2759 9.54179 51.2134C9.60433 51.1508 9.68914 51.1157 9.77759 51.1157C9.86603 51.1157 9.95085 51.1508 10.0134 51.2134C10.0759 51.2759 10.1111 51.3607 10.1111 51.4492V53.7168H10.2978V51.4625C10.2979 51.3233 10.2435 51.1896 10.1463 51.0899C10.0491 50.9902 9.91677 50.9324 9.77759 50.929Z" fill="#2E2F31"></path><path d="M9.77757 56.6514C9.68913 56.6514 9.60431 56.6163 9.54177 56.5538C9.47923 56.4912 9.44409 56.4064 9.44409 56.318V51.4625C9.44409 51.3741 9.47923 51.2892 9.54177 51.2267C9.60431 51.1642 9.68913 51.129 9.77757 51.129C9.86602 51.129 9.95083 51.1642 10.0134 51.2267C10.0759 51.2892 10.1111 51.3741 10.1111 51.4625V56.318C10.1111 56.4064 10.0759 56.4912 10.0134 56.5538C9.95083 56.6163 9.86602 56.6514 9.77757 56.6514Z" fill="#F2F3F5"></path><path d="M14.6864 63.7479L15.3934 63.4544C15.3859 63.9155 15.2592 64.3667 15.0254 64.7641C14.7916 65.1616 14.4588 65.4916 14.0595 65.7221L13.766 65.8555C13.6595 66.201 13.5117 66.5324 13.3258 66.8426C13.7228 66.7783 14.1061 66.6475 14.4596 66.4557C14.9931 66.1556 15.438 65.7201 15.7494 65.1932C16.0609 64.6662 16.228 64.0665 16.2337 63.4544V60.8933L14.6864 63.7479Z" fill="#F2F3F5"></path><path d="M13.7794 64.1613L13.8994 62.2272L12.3654 64.895L13.0324 64.6149C12.939 65.4819 12.6989 66.6424 11.8185 66.9226C10.9381 67.2027 10.3779 66.5891 10.1911 65.8154L10.618 66.1622C10.9397 66.4216 11.3058 66.6205 11.6985 66.7491C12.0096 66.6236 12.2621 66.3855 12.4055 66.0822C11.9177 66.0219 11.4561 65.828 11.0715 65.5219L10.3112 64.895V58.1054C10.5436 57.9283 10.7293 57.6973 10.8525 57.4324C10.9757 57.1674 11.0325 56.8765 11.0182 56.5847C11.0182 55.651 10.4579 54.8906 9.76429 54.8906C9.07066 54.8906 8.52375 55.651 8.52375 56.5847C8.5094 56.8765 8.56626 57.1674 8.68943 57.4324C8.8126 57.6973 8.99837 57.9283 9.23072 58.1054V64.895L8.43038 65.5353C8.01747 65.8616 7.51728 66.0585 6.99273 66.1013C6.46817 66.144 5.94269 66.0306 5.48242 65.7754C5.08307 65.5449 4.75028 65.2148 4.51649 64.8174C4.28271 64.42 4.15593 63.9688 4.14851 63.5077L4.85548 63.8012L3.2948 60.8932V63.401C3.30058 64.0131 3.46763 64.6128 3.7791 65.1397C4.09057 65.6667 4.53546 66.1022 5.06891 66.4023C5.59173 66.6909 6.17914 66.8424 6.77632 66.8425C7.56233 66.8433 8.32492 66.575 8.93727 66.0822L9.32411 65.7754C9.35972 66.2857 9.58206 66.7651 9.94869 67.1218C10.3153 67.4786 10.8005 67.6879 11.3116 67.7096C12.7656 67.7096 13.4326 66.5491 13.6994 65.2151C13.7505 64.8662 13.7772 64.514 13.7794 64.1613ZM9.77764 55.6376C10.0844 55.6376 10.3512 56.0645 10.3512 56.5847C10.3512 57.1049 10.0844 57.5451 9.77764 57.5451C9.47083 57.5451 9.21739 57.1049 9.21739 56.5847C9.21739 56.0645 9.47083 55.6376 9.77764 55.6376Z" fill="#F2F3F5"></path><path d="M28.1027 30V14.5622H33.8147C37.0566 14.5622 38.6886 16.8778 38.6886 19.1935C38.6886 21.5312 37.0566 23.8469 33.8147 23.8469H30.7271V30H28.1027ZM30.7271 21.3548H33.8368C35.2703 21.3548 35.976 20.2742 35.976 19.1935C35.976 18.1349 35.2703 17.0543 33.8368 17.0543H30.7271V21.3548ZM40.0128 14.5622H42.6372V20.0757H45.0631C48.4815 20.0757 50.5105 22.0826 50.5105 25.0378C50.5105 27.7505 48.4815 30 45.0631 30H40.0128V14.5622ZM42.6372 27.5079H45.0852C46.6951 27.5079 47.7978 26.4934 47.7978 25.0378C47.7978 23.3397 46.6951 22.5678 45.0852 22.5678H42.6372V27.5079ZM50.9295 30V27.5079H51.9219V17.0543H50.9295V14.5622H55.5388V17.0543H54.5464V27.5079H55.5388V30H50.9295ZM57.5225 14.5622H64.1166V17.0543H60.1469V20.0757H62.5728C65.9912 20.0757 68.0202 22.0826 68.0202 25.0378C68.0202 27.7505 65.9912 30 62.5728 30H57.5225V14.5622ZM60.1469 27.5079H62.5949C64.2048 27.5079 65.3075 26.4934 65.3075 25.0378C65.3075 23.3397 64.2048 22.5678 62.5949 22.5678H60.1469V27.5079ZM76.5334 30.2205C72.3872 30.2205 68.6822 27.0889 68.6822 22.2811C68.6822 17.5174 72.3872 14.3416 76.5334 14.3416C80.6575 14.3416 84.3846 17.5174 84.3846 22.2811C84.3846 27.0889 80.6575 30.2205 76.5334 30.2205ZM71.3948 22.2811C71.3948 25.5892 73.7987 27.6402 76.5334 27.6402C79.2461 27.6402 81.672 25.5892 81.672 22.2811C81.672 19.0171 79.2461 16.9219 76.5334 16.9219C73.7987 16.9219 71.3948 19.0171 71.3948 22.2811ZM97.1581 14.5622V30H94.5337V17.0543H91.3799L90.2331 25.3686C89.8582 28.1695 88.7114 30 85.8223 30H84.8299V27.5079H85.6459C86.925 27.5079 87.4102 26.6919 87.6087 25.2584L89.0863 14.5622H97.1581ZM106.449 30.2205C102.302 30.2205 98.5973 27.0889 98.5973 22.2811C98.5973 17.5174 102.302 14.3416 106.449 14.3416C110.573 14.3416 114.3 17.5174 114.3 22.2811C114.3 27.0889 110.573 30.2205 106.449 30.2205ZM101.31 22.2811C101.31 25.5892 103.714 27.6402 106.449 27.6402C109.161 27.6402 111.587 25.5892 111.587 22.2811C111.587 19.0171 109.161 16.9219 106.449 16.9219C103.714 16.9219 101.31 19.0171 101.31 22.2811ZM115.737 30V14.5622H121.582C124.316 14.5622 125.684 16.4368 125.684 18.3114C125.684 20.208 124.316 22.0826 121.582 22.0826H118.362V22.7442H122.155C124.758 22.7442 126.059 24.5526 126.059 26.3611C126.059 28.1916 124.758 30 122.155 30H115.737ZM118.362 27.5079H122.177C122.971 27.5079 123.346 26.9345 123.346 26.3611C123.346 25.8097 122.971 25.2363 122.177 25.2363H118.362V27.5079ZM118.362 19.5905H121.604C122.53 19.5905 122.971 18.9509 122.971 18.3114C122.971 17.6938 122.53 17.0543 121.604 17.0543H118.362V19.5905ZM136.161 30V23.4058H130.736L129.236 30H126.612L128.112 23.4058H126.612V20.9137H128.685L130.141 14.5622H132.765L131.309 20.9137H136.161V14.5622H138.786V30H136.161ZM141.001 14.5622H143.625V20.0757H146.051C149.469 20.0757 151.498 22.0826 151.498 25.0378C151.498 27.7505 149.469 30 146.051 30H141.001V14.5622ZM143.625 27.5079H146.073C147.683 27.5079 148.786 26.4934 148.786 25.0378C148.786 23.3397 147.683 22.5678 146.073 22.5678H143.625V27.5079ZM151.917 30V27.5079H152.91V17.0543H151.917V14.5622H156.527V17.0543H155.534V27.5079H156.527V30H151.917ZM158.51 30V14.5622H168.28V17.0543H161.135V20.9137H166.803V23.4058H161.135V27.5079H168.28V30H158.51ZM179.974 30V17.0543H174.769V14.5622H187.803V17.0543H182.598V30H179.974ZM189.382 30V27.5079H191.543L193.153 24.2218L188.014 14.5622H190.793L194.454 21.5754L197.917 14.5622H200.541L192.999 30H189.382ZM201.305 30V14.5622H206.134C209.707 14.5622 211.891 17.0322 211.891 19.9654C211.891 23.1412 209.707 25.3907 206.134 25.3907H203.929V30H201.305ZM203.929 22.8986H206.156C207.921 22.8986 209.178 21.8841 209.178 19.9654C209.178 18.2893 207.921 17.0543 206.156 17.0543H203.929V22.8986ZM213.215 14.5622H215.839V20.0757H218.265C221.683 20.0757 223.712 22.0826 223.712 25.0378C223.712 27.7505 221.683 30 218.265 30H213.215V14.5622ZM215.839 27.5079H218.287C219.897 27.5079 221 26.4934 221 25.0378C221 23.3397 219.897 22.5678 218.287 22.5678H215.839V27.5079ZM224.131 30V27.5079H225.124V17.0543H224.131V14.5622H228.741V17.0543H227.748V27.5079H228.741V30H224.131Z" fill="white"></path><path d="M28.125 51V43.755H32.115C32.755 43.755 33.255 43.93 33.615 44.28C33.975 44.62 34.155 45.065 34.155 45.615C34.155 46.055 34.035 46.415 33.795 46.695C33.565 46.975 33.295 47.165 32.985 47.265C33.165 47.315 33.335 47.395 33.495 47.505C33.655 47.615 33.795 47.75 33.915 47.91C34.035 48.07 34.13 48.245 34.2 48.435C34.27 48.625 34.305 48.825 34.305 49.035C34.305 49.625 34.12 50.1 33.75 50.46C33.38 50.82 32.86 51 32.19 51H28.125ZM31.965 50.01C32.325 50.01 32.61 49.915 32.82 49.725C33.03 49.525 33.135 49.25 33.135 48.9C33.135 48.61 33.035 48.35 32.835 48.12C32.635 47.89 32.345 47.775 31.965 47.775H29.25V50.01H31.965ZM31.92 46.785C32.27 46.785 32.535 46.69 32.715 46.5C32.905 46.31 33 46.07 33 45.78C33 45.46 32.905 45.21 32.715 45.03C32.535 44.84 32.27 44.745 31.92 44.745H29.25V46.785H31.92ZM43.4929 51.18C42.9529 51.18 42.4579 51.085 42.0079 50.895C41.5679 50.695 41.1879 50.425 40.8679 50.085C40.5579 49.745 40.3129 49.345 40.1329 48.885C39.9629 48.415 39.8779 47.91 39.8779 47.37C39.8779 46.83 39.9629 46.33 40.1329 45.87C40.3129 45.41 40.5579 45.01 40.8679 44.67C41.1879 44.33 41.5679 44.065 42.0079 43.875C42.4579 43.675 42.9529 43.575 43.4929 43.575C44.1529 43.575 44.6879 43.695 45.0979 43.935C45.5179 44.175 45.8679 44.475 46.1479 44.835L45.3979 45.525C45.1579 45.195 44.8829 44.955 44.5729 44.805C44.2729 44.655 43.9329 44.58 43.5529 44.58C43.1629 44.58 42.8129 44.65 42.5029 44.79C42.2029 44.93 41.9429 45.125 41.7229 45.375C41.5029 45.625 41.3329 45.92 41.2129 46.26C41.1029 46.6 41.0479 46.97 41.0479 47.37C41.0479 47.77 41.1029 48.145 41.2129 48.495C41.3329 48.835 41.5029 49.13 41.7229 49.38C41.9429 49.63 42.2029 49.825 42.5029 49.965C42.8129 50.105 43.1629 50.175 43.5529 50.175C44.3129 50.175 44.9279 49.86 45.3979 49.23L46.1479 49.92C45.8679 50.28 45.5179 50.58 45.0979 50.82C44.6879 51.06 44.1529 51.18 43.4929 51.18ZM50.9946 51.18C50.4546 51.18 49.9596 51.09 49.5096 50.91C49.0596 50.72 48.6696 50.46 48.3396 50.13C48.0196 49.79 47.7646 49.39 47.5746 48.93C47.3946 48.46 47.3046 47.94 47.3046 47.37C47.3046 46.85 47.3946 46.36 47.5746 45.9C47.7546 45.43 47.9996 45.025 48.3096 44.685C48.6296 44.345 49.0046 44.075 49.4346 43.875C49.8746 43.675 50.3546 43.575 50.8746 43.575C51.4246 43.575 51.9146 43.675 52.3446 43.875C52.7746 44.075 53.1396 44.35 53.4396 44.7C53.7396 45.05 53.9646 45.465 54.1146 45.945C54.2746 46.415 54.3546 46.92 54.3546 47.46V47.745H48.4896C48.5096 48.085 48.5846 48.41 48.7146 48.72C48.8446 49.02 49.0196 49.285 49.2396 49.515C49.4696 49.735 49.7396 49.915 50.0496 50.055C50.3596 50.185 50.7096 50.25 51.0996 50.25C51.5196 50.25 51.9246 50.17 52.3146 50.01C52.7046 49.85 53.0446 49.625 53.3346 49.335L53.8746 50.07C53.5146 50.43 53.0946 50.705 52.6146 50.895C52.1346 51.085 51.5946 51.18 50.9946 51.18ZM53.2446 46.92C53.2446 46.65 53.1946 46.375 53.0946 46.095C53.0046 45.805 52.8596 45.545 52.6596 45.315C52.4696 45.075 52.2246 44.88 51.9246 44.73C51.6246 44.58 51.2696 44.505 50.8596 44.505C50.4696 44.505 50.1296 44.58 49.8396 44.73C49.5496 44.88 49.3046 45.07 49.1046 45.3C48.9146 45.53 48.7646 45.79 48.6546 46.08C48.5546 46.36 48.4996 46.64 48.4896 46.92H53.2446ZM59.7468 51.18C59.2468 51.18 58.7868 51.07 58.3668 50.85C57.9468 50.63 57.5918 50.315 57.3018 49.905V53.76H56.1768V43.755H57.3018V44.835C57.5618 44.465 57.9068 44.165 58.3368 43.935C58.7668 43.695 59.2368 43.575 59.7468 43.575C60.2268 43.575 60.6618 43.665 61.0518 43.845C61.4518 44.015 61.7918 44.265 62.0718 44.595C62.3618 44.915 62.5818 45.31 62.7318 45.78C62.8918 46.25 62.9718 46.78 62.9718 47.37C62.9718 47.96 62.8918 48.49 62.7318 48.96C62.5818 49.43 62.3618 49.83 62.0718 50.16C61.7918 50.49 61.4518 50.745 61.0518 50.925C60.6618 51.095 60.2268 51.18 59.7468 51.18ZM59.4618 50.175C59.8218 50.175 60.1468 50.105 60.4368 49.965C60.7268 49.825 60.9718 49.63 61.1718 49.38C61.3718 49.13 61.5218 48.835 61.6218 48.495C61.7318 48.145 61.7868 47.77 61.7868 47.37C61.7868 46.97 61.7318 46.6 61.6218 46.26C61.5218 45.92 61.3718 45.625 61.1718 45.375C60.9718 45.125 60.7268 44.93 60.4368 44.79C60.1468 44.65 59.8218 44.58 59.4618 44.58C59.0118 44.58 58.5868 44.695 58.1868 44.925C57.7968 45.145 57.5018 45.415 57.3018 45.735V49.005C57.5018 49.325 57.7968 49.6 58.1868 49.83C58.5868 50.06 59.0118 50.175 59.4618 50.175ZM63.9057 50.07C64.0757 50.04 64.2257 49.98 64.3557 49.89C64.4957 49.8 64.6207 49.655 64.7307 49.455C64.8507 49.255 64.9557 48.985 65.0457 48.645C65.1357 48.305 65.2157 47.865 65.2857 47.325L65.7507 43.755H70.7907V50.01H71.6307V52.845H70.5057V51H65.0307V52.845H63.9057V50.07ZM66.4107 47.46C66.3207 48.15 66.1857 48.695 66.0057 49.095C65.8357 49.495 65.6207 49.8 65.3607 50.01H69.6657V44.745H66.7407L66.4107 47.46ZM78.9139 51H73.1689V43.755H74.2939V50.01H78.0739V43.755H79.1989V50.01H80.0389V52.845H78.9139V51ZM84.8471 51.18C84.3071 51.18 83.8121 51.09 83.3621 50.91C82.9121 50.72 82.5221 50.46 82.1921 50.13C81.8721 49.79 81.6171 49.39 81.4271 48.93C81.2471 48.46 81.1571 47.94 81.1571 47.37C81.1571 46.85 81.2471 46.36 81.4271 45.9C81.6071 45.43 81.8521 45.025 82.1621 44.685C82.4821 44.345 82.8571 44.075 83.2871 43.875C83.7271 43.675 84.2071 43.575 84.7271 43.575C85.2771 43.575 85.7671 43.675 86.1971 43.875C86.6271 44.075 86.9921 44.35 87.2921 44.7C87.5921 45.05 87.8171 45.465 87.9671 45.945C88.1271 46.415 88.2071 46.92 88.2071 47.46V47.745H82.3421C82.3621 48.085 82.4371 48.41 82.5671 48.72C82.6971 49.02 82.8721 49.285 83.0921 49.515C83.3221 49.735 83.5921 49.915 83.9021 50.055C84.2121 50.185 84.5621 50.25 84.9521 50.25C85.3721 50.25 85.7771 50.17 86.1671 50.01C86.5571 49.85 86.8971 49.625 87.1871 49.335L87.7271 50.07C87.3671 50.43 86.9471 50.705 86.4671 50.895C85.9871 51.085 85.4471 51.18 84.8471 51.18ZM87.0971 46.92C87.0971 46.65 87.0471 46.375 86.9471 46.095C86.8571 45.805 86.7121 45.545 86.5121 45.315C86.3221 45.075 86.0771 44.88 85.7771 44.73C85.4771 44.58 85.1221 44.505 84.7121 44.505C84.3221 44.505 83.9821 44.58 83.6921 44.73C83.4021 44.88 83.1571 45.07 82.9571 45.3C82.7671 45.53 82.6171 45.79 82.5071 46.08C82.4071 46.36 82.3521 46.64 82.3421 46.92H87.0971ZM97.0915 51.18C96.5515 51.18 96.0565 51.085 95.6065 50.895C95.1665 50.695 94.7865 50.425 94.4665 50.085C94.1565 49.745 93.9115 49.345 93.7315 48.885C93.5615 48.415 93.4765 47.91 93.4765 47.37C93.4765 46.83 93.5615 46.33 93.7315 45.87C93.9115 45.41 94.1565 45.01 94.4665 44.67C94.7865 44.33 95.1665 44.065 95.6065 43.875C96.0565 43.675 96.5515 43.575 97.0915 43.575C97.7515 43.575 98.2865 43.695 98.6965 43.935C99.1165 44.175 99.4665 44.475 99.7465 44.835L98.9965 45.525C98.7565 45.195 98.4815 44.955 98.1715 44.805C97.8715 44.655 97.5315 44.58 97.1515 44.58C96.7615 44.58 96.4115 44.65 96.1015 44.79C95.8015 44.93 95.5415 45.125 95.3215 45.375C95.1015 45.625 94.9315 45.92 94.8115 46.26C94.7015 46.6 94.6465 46.97 94.6465 47.37C94.6465 47.77 94.7015 48.145 94.8115 48.495C94.9315 48.835 95.1015 49.13 95.3215 49.38C95.5415 49.63 95.8015 49.825 96.1015 49.965C96.4115 50.105 96.7615 50.175 97.1515 50.175C97.9115 50.175 98.5265 49.86 98.9965 49.23L99.7465 49.92C99.4665 50.28 99.1165 50.58 98.6965 50.82C98.2865 51.06 97.7515 51.18 97.0915 51.18ZM101.323 51V43.755H102.448V49.29L106.243 43.755H107.353V51H106.228V45.36L102.403 51H101.323ZM112.765 50.175C113.155 50.175 113.495 50.1 113.785 49.95C114.085 49.79 114.335 49.585 114.535 49.335C114.745 49.075 114.9 48.775 115 48.435C115.11 48.095 115.165 47.735 115.165 47.355C115.165 46.995 115.11 46.65 115 46.32C114.9 45.98 114.745 45.685 114.535 45.435C114.335 45.175 114.085 44.97 113.785 44.82C113.495 44.66 113.155 44.58 112.765 44.58C112.375 44.58 112.03 44.66 111.73 44.82C111.43 44.97 111.175 45.175 110.965 45.435C110.765 45.685 110.61 45.98 110.5 46.32C110.4 46.65 110.35 46.995 110.35 47.355C110.35 47.735 110.4 48.095 110.5 48.435C110.61 48.775 110.765 49.075 110.965 49.335C111.175 49.585 111.43 49.79 111.73 49.95C112.03 50.1 112.375 50.175 112.765 50.175ZM112.765 51.18C112.205 51.18 111.705 51.08 111.265 50.88C110.825 50.67 110.45 50.38 110.14 50.01C109.83 49.64 109.59 49.205 109.42 48.705C109.26 48.195 109.18 47.64 109.18 47.04C109.18 46.16 109.26 45.405 109.42 44.775C109.58 44.135 109.815 43.605 110.125 43.185C110.445 42.765 110.84 42.44 111.31 42.21C111.79 41.97 112.345 41.81 112.975 41.73C113.375 41.67 113.705 41.615 113.965 41.565C114.225 41.505 114.43 41.445 114.58 41.385C114.74 41.325 114.85 41.265 114.91 41.205C114.98 41.145 115.015 41.075 115.015 40.995H116.11C116.11 41.295 116.02 41.545 115.84 41.745C115.66 41.935 115.43 42.09 115.15 42.21C114.87 42.33 114.56 42.425 114.22 42.495C113.89 42.565 113.57 42.62 113.26 42.66C112.72 42.74 112.27 42.855 111.91 43.005C111.55 43.155 111.255 43.335 111.025 43.545C110.795 43.755 110.615 43.995 110.485 44.265C110.365 44.525 110.275 44.81 110.215 45.12C110.345 44.91 110.5 44.715 110.68 44.535C110.86 44.345 111.065 44.18 111.295 44.04C111.525 43.9 111.775 43.79 112.045 43.71C112.325 43.62 112.625 43.575 112.945 43.575C113.455 43.575 113.92 43.675 114.34 43.875C114.76 44.075 115.115 44.35 115.405 44.7C115.705 45.04 115.935 45.44 116.095 45.9C116.255 46.36 116.335 46.845 116.335 47.355C116.335 47.875 116.255 48.37 116.095 48.84C115.935 49.3 115.7 49.705 115.39 50.055C115.08 50.395 114.705 50.67 114.265 50.88C113.825 51.08 113.325 51.18 112.765 51.18ZM118.257 51V43.755H119.382V49.29L123.177 43.755H124.287V51H123.162V45.36L119.337 51H118.257ZM130.103 51.18C129.603 51.18 129.143 51.07 128.723 50.85C128.303 50.63 127.948 50.315 127.658 49.905V53.76H126.533V43.755H127.658V44.835C127.918 44.465 128.263 44.165 128.693 43.935C129.123 43.695 129.593 43.575 130.103 43.575C130.583 43.575 131.018 43.665 131.408 43.845C131.808 44.015 132.148 44.265 132.428 44.595C132.718 44.915 132.938 45.31 133.088 45.78C133.248 46.25 133.328 46.78 133.328 47.37C133.328 47.96 133.248 48.49 133.088 48.96C132.938 49.43 132.718 49.83 132.428 50.16C132.148 50.49 131.808 50.745 131.408 50.925C131.018 51.095 130.583 51.18 130.103 51.18ZM129.818 50.175C130.178 50.175 130.503 50.105 130.793 49.965C131.083 49.825 131.328 49.63 131.528 49.38C131.728 49.13 131.878 48.835 131.978 48.495C132.088 48.145 132.143 47.77 132.143 47.37C132.143 46.97 132.088 46.6 131.978 46.26C131.878 45.92 131.728 45.625 131.528 45.375C131.328 45.125 131.083 44.93 130.793 44.79C130.503 44.65 130.178 44.58 129.818 44.58C129.368 44.58 128.943 44.695 128.543 44.925C128.153 45.145 127.858 45.415 127.658 45.735V49.005C127.858 49.325 128.153 49.6 128.543 49.83C128.943 50.06 129.368 50.175 129.818 50.175ZM138.312 51.18C137.772 51.18 137.277 51.085 136.827 50.895C136.387 50.695 136.007 50.425 135.687 50.085C135.377 49.745 135.132 49.345 134.952 48.885C134.782 48.415 134.697 47.91 134.697 47.37C134.697 46.83 134.782 46.33 134.952 45.87C135.132 45.41 135.377 45.01 135.687 44.67C136.007 44.33 136.387 44.065 136.827 43.875C137.277 43.675 137.772 43.575 138.312 43.575C138.972 43.575 139.507 43.695 139.917 43.935C140.337 44.175 140.687 44.475 140.967 44.835L140.217 45.525C139.977 45.195 139.702 44.955 139.392 44.805C139.092 44.655 138.752 44.58 138.372 44.58C137.982 44.58 137.632 44.65 137.322 44.79C137.022 44.93 136.762 45.125 136.542 45.375C136.322 45.625 136.152 45.92 136.032 46.26C135.922 46.6 135.867 46.97 135.867 47.37C135.867 47.77 135.922 48.145 136.032 48.495C136.152 48.835 136.322 49.13 136.542 49.38C136.762 49.63 137.022 49.825 137.322 49.965C137.632 50.105 137.982 50.175 138.372 50.175C139.132 50.175 139.747 49.86 140.217 49.23L140.967 49.92C140.687 50.28 140.337 50.58 139.917 50.82C139.507 51.06 138.972 51.18 138.312 51.18ZM147.479 51L144.869 47.745L143.669 48.93V51H142.544V43.755H143.669V47.61L147.479 43.755H148.904L145.694 47.04L148.919 51H147.479ZM153.37 51.18C152.82 51.18 152.32 51.08 151.87 50.88C151.43 50.68 151.055 50.41 150.745 50.07C150.435 49.72 150.195 49.315 150.025 48.855C149.865 48.395 149.785 47.9 149.785 47.37C149.785 46.85 149.865 46.36 150.025 45.9C150.195 45.43 150.435 45.025 150.745 44.685C151.055 44.345 151.43 44.075 151.87 43.875C152.32 43.675 152.82 43.575 153.37 43.575C153.92 43.575 154.415 43.675 154.855 43.875C155.305 44.075 155.685 44.345 155.995 44.685C156.305 45.025 156.54 45.43 156.7 45.9C156.87 46.36 156.955 46.85 156.955 47.37C156.955 47.9 156.87 48.395 156.7 48.855C156.54 49.315 156.305 49.72 155.995 50.07C155.685 50.41 155.305 50.68 154.855 50.88C154.415 51.08 153.92 51.18 153.37 51.18ZM153.37 50.175C153.76 50.175 154.1 50.1 154.39 49.95C154.69 49.79 154.94 49.585 155.14 49.335C155.35 49.075 155.505 48.775 155.605 48.435C155.715 48.095 155.77 47.74 155.77 47.37C155.77 47 155.715 46.65 155.605 46.32C155.505 45.98 155.35 45.685 155.14 45.435C154.94 45.175 154.69 44.97 154.39 44.82C154.1 44.66 153.76 44.58 153.37 44.58C152.98 44.58 152.635 44.66 152.335 44.82C152.035 44.97 151.78 45.175 151.57 45.435C151.37 45.685 151.215 45.98 151.105 46.32C151.005 46.65 150.955 47 150.955 47.37C150.955 47.74 151.005 48.095 151.105 48.435C151.215 48.775 151.37 49.075 151.57 49.335C151.78 49.585 152.035 49.79 152.335 49.95C152.635 50.1 152.98 50.175 153.37 50.175ZM158.789 51V43.755H159.914V49.29L163.709 43.755H164.819V51H163.694V45.36L159.869 51H158.789ZM164.429 41.61C164.129 42.02 163.749 42.345 163.289 42.585C162.839 42.815 162.344 42.93 161.804 42.93C161.264 42.93 160.764 42.815 160.304 42.585C159.854 42.345 159.474 42.02 159.164 41.61L159.719 41.13C159.959 41.46 160.254 41.725 160.604 41.925C160.954 42.115 161.354 42.21 161.804 42.21C162.244 42.21 162.639 42.115 162.989 41.925C163.349 41.735 163.644 41.47 163.874 41.13L164.429 41.61ZM175.838 51V44.745H172.058V51H170.933V43.755H176.963V51H175.838ZM182.779 51.18C182.279 51.18 181.819 51.07 181.399 50.85C180.979 50.63 180.624 50.315 180.334 49.905V53.76H179.209V43.755H180.334V44.835C180.594 44.465 180.939 44.165 181.369 43.935C181.799 43.695 182.269 43.575 182.779 43.575C183.259 43.575 183.694 43.665 184.084 43.845C184.484 44.015 184.824 44.265 185.104 44.595C185.394 44.915 185.614 45.31 185.764 45.78C185.924 46.25 186.004 46.78 186.004 47.37C186.004 47.96 185.924 48.49 185.764 48.96C185.614 49.43 185.394 49.83 185.104 50.16C184.824 50.49 184.484 50.745 184.084 50.925C183.694 51.095 183.259 51.18 182.779 51.18ZM182.494 50.175C182.854 50.175 183.179 50.105 183.469 49.965C183.759 49.825 184.004 49.63 184.204 49.38C184.404 49.13 184.554 48.835 184.654 48.495C184.764 48.145 184.819 47.77 184.819 47.37C184.819 46.97 184.764 46.6 184.654 46.26C184.554 45.92 184.404 45.625 184.204 45.375C184.004 45.125 183.759 44.93 183.469 44.79C183.179 44.65 182.854 44.58 182.494 44.58C182.044 44.58 181.619 44.695 181.219 44.925C180.829 45.145 180.534 45.415 180.334 45.735V49.005C180.534 49.325 180.829 49.6 181.219 49.83C181.619 50.06 182.044 50.175 182.494 50.175ZM187.793 51V43.755H188.918V49.29L192.713 43.755H193.823V51H192.698V45.36L188.873 51H187.793ZM199.639 51.18C199.139 51.18 198.679 51.07 198.259 50.85C197.839 50.63 197.484 50.315 197.194 49.905V53.76H196.069V43.755H197.194V44.835C197.454 44.465 197.799 44.165 198.229 43.935C198.659 43.695 199.129 43.575 199.639 43.575C200.119 43.575 200.554 43.665 200.944 43.845C201.344 44.015 201.684 44.265 201.964 44.595C202.254 44.915 202.474 45.31 202.624 45.78C202.784 46.25 202.864 46.78 202.864 47.37C202.864 47.96 202.784 48.49 202.624 48.96C202.474 49.43 202.254 49.83 201.964 50.16C201.684 50.49 201.344 50.745 200.944 50.925C200.554 51.095 200.119 51.18 199.639 51.18ZM199.354 50.175C199.714 50.175 200.039 50.105 200.329 49.965C200.619 49.825 200.864 49.63 201.064 49.38C201.264 49.13 201.414 48.835 201.514 48.495C201.624 48.145 201.679 47.77 201.679 47.37C201.679 46.97 201.624 46.6 201.514 46.26C201.414 45.92 201.264 45.625 201.064 45.375C200.864 45.125 200.619 44.93 200.329 44.79C200.039 44.65 199.714 44.58 199.354 44.58C198.904 44.58 198.479 44.695 198.079 44.925C197.689 45.145 197.394 45.415 197.194 45.735V49.005C197.394 49.325 197.689 49.6 198.079 49.83C198.479 50.06 198.904 50.175 199.354 50.175ZM207.818 51.18C207.268 51.18 206.768 51.08 206.318 50.88C205.878 50.68 205.503 50.41 205.193 50.07C204.883 49.72 204.643 49.315 204.473 48.855C204.313 48.395 204.233 47.9 204.233 47.37C204.233 46.85 204.313 46.36 204.473 45.9C204.643 45.43 204.883 45.025 205.193 44.685C205.503 44.345 205.878 44.075 206.318 43.875C206.768 43.675 207.268 43.575 207.818 43.575C208.368 43.575 208.863 43.675 209.303 43.875C209.753 44.075 210.133 44.345 210.443 44.685C210.753 45.025 210.988 45.43 211.148 45.9C211.318 46.36 211.403 46.85 211.403 47.37C211.403 47.9 211.318 48.395 211.148 48.855C210.988 49.315 210.753 49.72 210.443 50.07C210.133 50.41 209.753 50.68 209.303 50.88C208.863 51.08 208.368 51.18 207.818 51.18ZM207.818 50.175C208.208 50.175 208.548 50.1 208.838 49.95C209.138 49.79 209.388 49.585 209.588 49.335C209.798 49.075 209.953 48.775 210.053 48.435C210.163 48.095 210.218 47.74 210.218 47.37C210.218 47 210.163 46.65 210.053 46.32C209.953 45.98 209.798 45.685 209.588 45.435C209.388 45.175 209.138 44.97 208.838 44.82C208.548 44.66 208.208 44.58 207.818 44.58C207.428 44.58 207.083 44.66 206.783 44.82C206.483 44.97 206.228 45.175 206.018 45.435C205.818 45.685 205.663 45.98 205.553 46.32C205.453 46.65 205.403 47 205.403 47.37C205.403 47.74 205.453 48.095 205.553 48.435C205.663 48.775 205.818 49.075 206.018 49.335C206.228 49.585 206.483 49.79 206.783 49.95C207.083 50.1 207.428 50.175 207.818 50.175ZM212.382 50.07C212.552 50.04 212.702 49.98 212.832 49.89C212.972 49.8 213.097 49.655 213.207 49.455C213.327 49.255 213.432 48.985 213.522 48.645C213.612 48.305 213.692 47.865 213.762 47.325L214.227 43.755H219.267V50.01H220.107V52.845H218.982V51H213.507V52.845H212.382V50.07ZM214.887 47.46C214.797 48.15 214.662 48.695 214.482 49.095C214.312 49.495 214.097 49.8 213.837 50.01H218.142V44.745H215.217L214.887 47.46ZM222.771 43.755V46.56H225.486C225.856 46.56 226.181 46.62 226.461 46.74C226.751 46.86 226.991 47.025 227.181 47.235C227.381 47.435 227.526 47.67 227.616 47.94C227.716 48.2 227.766 48.48 227.766 48.78C227.766 49.08 227.716 49.365 227.616 49.635C227.516 49.905 227.371 50.14 227.181 50.34C226.991 50.54 226.751 50.7 226.461 50.82C226.181 50.94 225.856 51 225.486 51H221.646V43.755H222.771ZM222.771 47.55V50.01H225.366C225.776 50.01 226.086 49.895 226.296 49.665C226.506 49.435 226.611 49.14 226.611 48.78C226.611 48.43 226.506 48.14 226.296 47.91C226.096 47.67 225.786 47.55 225.366 47.55H222.771ZM228.951 51V43.755H230.076V51H228.951Z" fill="white"></path></svg> 