<?xml version="1.0" encoding="UTF-8"?> <svg xmlns="http://www.w3.org/2000/svg" width="66" height="41" viewBox="0 0 66 41" fill="none"><path d="M18.8329 30.0929C34.3597 29.0124 47.9523 24.9306 49.9399 24.8639C51.9274 24.7972 50.9003 27.1849 50.9003 27.1849C50.4809 28.7175 50.3053 30.3065 50.38 31.8937C50.38 35.3485 46.0048 38.1364 38.8283 38.9234C38.8283 38.9234 23.1281 41.1644 10.0958 39.8571C8.5176 39.7273 6.99717 39.2039 5.67356 38.3347C4.34994 37.4655 3.2654 36.2783 2.51912 34.8816C1.55156 33.3694 0.716955 31.776 0.0247 30.1196C0.00269649 30.0621 -0.00477198 30.0001 0.00296193 29.939C0.0106958 29.878 0.0333923 29.8198 0.0690309 29.7697C0.104669 29.7195 0.152146 29.6789 0.207244 29.6515C0.262343 29.6241 0.323357 29.6108 0.384858 29.6127C6.51972 30.13 12.6795 30.2903 18.8329 30.0929Z" fill="#F2F3F5"></path><path d="M49.2996 27.8119C49.2996 27.8119 48.6327 28.1587 47.4188 28.6789C46.205 29.1992 44.4575 29.8928 42.3232 30.6265C41.2561 31 40.0823 31.3601 38.8417 31.7203C37.6012 32.0804 36.2806 32.4272 34.84 32.7474C34.1597 32.9208 33.5061 33.0542 32.7457 33.2143C31.9854 33.3743 31.3184 33.4944 30.5848 33.6011C29.8511 33.7078 29.1175 33.8412 28.3838 33.9346L27.2633 34.0813L26.1428 34.188C24.6489 34.3481 23.1549 34.4415 21.6742 34.4815C20.9272 34.4815 20.2069 34.4815 19.4733 34.4815L17.339 34.4014L15.2581 34.2547L13.2839 34.0546L11.4297 33.7745C10.8295 33.6811 10.2559 33.5477 9.69565 33.441C9.42886 33.441 9.14874 33.3476 8.8953 33.2809L8.12162 33.0942L6.70768 32.7474C5.82729 32.4806 5.05362 32.2805 4.42668 32.0671L2.46582 31.4001L4.40001 32.1605C5.01361 32.3872 5.73392 32.6273 6.65432 32.9208L8.06828 33.321L8.82861 33.5211L9.64229 33.7078C10.2025 33.8279 10.7761 33.9746 11.3764 34.0813L13.2439 34.4014L15.2314 34.6549L17.3123 34.8283L19.4733 34.9083H21.6876C23.1682 34.9083 24.6889 34.8016 26.1962 34.6415L27.3167 34.5215L28.4372 34.3614C29.1842 34.2681 29.9312 34.148 30.6648 34.0146C31.3985 33.8812 32.1188 33.7345 32.8391 33.6011C33.5594 33.4677 34.2531 33.2943 34.9467 33.1209C36.2806 32.8007 37.6145 32.4139 38.9484 32.0271C40.2824 31.6402 41.3495 31.2534 42.4033 30.8532C44.5376 30.0795 46.2583 29.2925 47.4588 28.7323C48.6594 28.1721 49.2996 27.8119 49.2996 27.8119Z" fill="#2E2F31"></path><path d="M10.6827 30.4263C10.744 29.5706 10.6444 28.7109 10.3892 27.8919C10.2227 27.4554 10.0802 27.01 9.96236 26.5579C9.79649 25.8724 9.76478 25.1613 9.86899 24.4637C9.89025 23.8208 10.046 23.1894 10.3264 22.6105C10.6067 22.0315 11.0052 21.5177 11.4964 21.1022L11.8165 20.2885C11.6497 20.0484 11.5235 19.7826 11.443 19.5015C9.77562 19.875 9.18869 19.3148 9.54884 18.6745C9.909 18.0342 11.5897 17.8341 11.5897 17.8341C11.5886 17.1954 11.6377 16.5576 11.7365 15.9266C11.7752 15.6586 11.9075 15.4129 12.11 15.233C12.6039 14.9181 13.161 14.7154 13.7418 14.6393C14.3226 14.5633 14.9131 14.6157 15.4714 14.7928C15.8012 14.8756 16.0901 15.0745 16.2851 15.353C16.6142 15.9188 16.8061 16.5539 16.8454 17.2072C16.8454 17.2072 18.7529 17.2072 18.8996 17.8741C19.033 18.381 17.8858 18.4077 16.8187 18.381C16.8413 19.6267 16.5081 20.8529 15.8583 21.9159C15.8583 21.9159 16.3518 22.3294 16.672 22.6629C16.7446 22.7389 16.8408 22.7881 16.9448 22.8026C17.0489 22.8171 17.1549 22.7961 17.2455 22.7429C17.7124 22.5028 17.6991 21.6225 17.6991 21.6225C17.6991 21.6225 17.6991 20.8488 18.0459 20.5687C18.3161 20.3623 18.6548 20.2669 18.993 20.3019C19.9534 19.1547 20.527 19.9951 20.527 19.9951C21.7542 21.6491 20.4469 22.5829 20.4469 22.5829C20.4469 22.5829 21.7809 26.3178 20.0735 28.5722C20.0735 28.5722 19.6466 29.1591 18.4994 28.3054L19.0063 30.9732L10.6827 30.4263Z" fill="#F2F3F5"></path><path d="M18.6995 21.5291C18.8049 21.5905 18.9297 21.6096 19.0486 21.5823C19.1676 21.5551 19.2717 21.4836 19.3398 21.3823L22.2877 16.6469L22.5545 16.807C22.5408 16.855 22.5408 16.9058 22.5545 16.9537C22.5748 17.0481 22.6108 17.1383 22.6612 17.2205C22.7679 17.3806 22.9414 17.514 23.0614 17.4606C23.1681 17.3939 23.1548 17.1805 23.0614 16.9804C22.968 16.7803 22.7946 16.7003 22.6746 16.7403L22.3811 16.5536L22.5145 16.3268L24.0485 13.8724C24.5554 13.072 25.1023 12.245 25.6892 11.4047L25.8093 11.5114C25.8001 11.5509 25.8001 11.5919 25.8093 11.6314C25.7981 11.7111 25.7981 11.7919 25.8093 11.8715C25.8893 12.0183 26.0094 12.1517 26.1294 12.125C26.2361 12.125 26.2495 11.8982 26.1294 11.7115C26.0094 11.5247 25.9427 11.4447 25.836 11.458L25.6759 11.3246L25.7559 11.2046C26.4095 10.3108 27.0898 9.3771 27.8235 8.53673C28.1836 8.0832 28.5838 7.64301 28.9707 7.20282C29.3575 6.76262 29.6243 6.50917 29.9578 6.1757L30.0645 6.3091C30.0543 6.33939 30.0543 6.37217 30.0645 6.40247C30.0512 6.4685 30.0512 6.53651 30.0645 6.60255C30.0645 6.73594 30.1845 6.88268 30.2912 6.86934C30.3846 6.86934 30.4246 6.69593 30.3846 6.52252C30.3446 6.34911 30.2646 6.26907 30.1845 6.26907L30.0511 6.10901C30.1055 6.04791 30.1634 5.99 30.2245 5.93559C31.06 5.11452 31.9514 4.35236 32.8924 3.65459C33.3726 3.33445 33.8395 3.00098 34.3463 2.72086C34.5064 2.64082 34.6665 2.53411 34.8266 2.44073V2.54745C34.8128 2.60894 34.8128 2.67271 34.8266 2.7342C34.8266 2.85425 34.8265 2.98764 34.9466 3.00098C35.04 3.00098 35.1067 2.89427 35.1067 2.7342C35.1067 2.57413 35.1067 2.49409 35 2.46741V2.34736L35.1867 2.24065L35.9337 1.88049C36.1767 1.76018 36.426 1.6533 36.6807 1.56034L37.3343 1.24021L38.108 1.01344L38.4815 0.906728L38.8416 0.826697C39.3367 0.710878 39.8412 0.639448 40.349 0.613265V0.773339H40.2689C40.2292 0.8139 40.2015 0.864696 40.1889 0.92007C40.1889 1.02678 40.1889 1.16017 40.1889 1.20019C40.2689 1.20019 40.3623 1.20019 40.4157 1.0001C40.4403 0.957518 40.4532 0.909208 40.4532 0.860036C40.4532 0.810865 40.4403 0.762565 40.4157 0.719981V0.533233C40.8425 0.533233 41.256 0.533233 41.6429 0.533233C42.4412 0.577215 43.2305 0.725197 43.9906 0.973428C44.5684 1.17028 45.1231 1.4297 45.6446 1.74709L45.9514 1.94718V2.20063H45.858C45.8073 2.23303 45.7622 2.27359 45.7246 2.32068C45.6446 2.41405 45.6046 2.54744 45.7246 2.61414C45.7246 2.61414 45.9114 2.61414 46.0181 2.49409C46.1248 2.37404 46.1248 2.26733 46.0181 2.20063V1.96052C46.2449 2.12059 46.4316 2.28067 46.5784 2.40072L46.8852 2.69417C46.9261 2.72895 46.9781 2.74805 47.0319 2.74805C47.0856 2.74805 47.1376 2.72895 47.1786 2.69417C47.2153 2.65677 47.2358 2.60649 47.2358 2.55412C47.2358 2.50174 47.2153 2.45145 47.1786 2.41405L46.8585 2.1206C46.5493 1.84238 46.2193 1.58818 45.8714 1.36026C45.3196 1.02025 44.734 0.738613 44.124 0.519891C43.3343 0.253114 42.5141 0.0872781 41.6829 0.0263386C40.6963 -0.041308 39.7051 0.0214925 38.7349 0.213096L38.3347 0.30647L37.9613 0.413176L37.1876 0.626607L36.4006 0.92007C36.1471 1.02678 35.867 1.10682 35.6136 1.24021L34.8399 1.6137C34.5731 1.73376 34.333 1.89382 34.0662 2.02721C33.5593 2.30734 33.0658 2.64082 32.5722 2.9743C31.5867 3.66803 30.6547 4.43497 29.7843 5.26863C29.3308 5.66881 28.9306 6.12234 28.4504 6.60255C27.9702 7.08276 27.6367 7.48293 27.2632 7.93646C26.4896 8.83019 25.7959 9.76393 25.129 10.671C24.462 11.5781 23.7951 12.4851 23.2882 13.3388L21.7808 15.9133L18.5261 20.8888C18.4671 20.9973 18.4522 21.1244 18.4845 21.2437C18.5168 21.3629 18.5938 21.4652 18.6995 21.5291ZM45.9114 2.44073C45.9155 2.48065 45.9155 2.52087 45.9114 2.56078L45.8047 2.65416H45.738C45.7735 2.56388 45.8336 2.48533 45.9114 2.42739V2.44073ZM40.389 0.866713C40.4003 0.910459 40.4003 0.956356 40.389 1.0001C40.3986 1.03954 40.3986 1.08072 40.389 1.12016C40.3839 1.07584 40.3839 1.03108 40.389 0.98676C40.3794 0.94732 40.3794 0.906153 40.389 0.866713ZM34.9066 2.57412C34.9156 2.61813 34.9156 2.6635 34.9066 2.70751C34.9153 2.75603 34.9153 2.80573 34.9066 2.85425C34.8986 2.81014 34.8986 2.76496 34.9066 2.72086C34.8991 2.67223 34.8991 2.62275 34.9066 2.57412ZM30.1578 6.33577C30.1578 6.33577 30.1578 6.33577 30.2245 6.33577C30.2308 6.38448 30.2308 6.43379 30.2245 6.4825C30.244 6.53408 30.244 6.59099 30.2245 6.64257C30.2025 6.59209 30.1911 6.53759 30.1911 6.4825C30.1911 6.42741 30.2025 6.37292 30.2245 6.32243L30.1578 6.33577ZM25.8626 11.6714C25.8522 11.6458 25.8522 11.6171 25.8626 11.5914C25.8888 11.584 25.9165 11.584 25.9427 11.5914C25.9916 11.6345 26.0284 11.6897 26.0494 11.7515C26.0576 11.809 26.0576 11.8674 26.0494 11.9249C26.0606 11.955 26.0606 11.9881 26.0494 12.0183C26.0232 12.0257 25.9955 12.0257 25.9693 12.0183C25.9204 11.9751 25.8836 11.9199 25.8626 11.8582C25.8457 11.779 25.8457 11.6972 25.8626 11.6181V11.6714ZM22.6612 17.0071V16.9137C22.6612 16.9137 22.6612 16.9137 22.7546 16.9137C22.813 16.9575 22.8628 17.0118 22.9013 17.0738C22.9438 17.1346 22.9754 17.2023 22.9947 17.2739C22.9947 17.3406 22.9947 17.3673 22.9947 17.3806C22.9947 17.3806 22.9947 17.3806 22.9013 17.3806C22.8462 17.3333 22.7969 17.2796 22.7546 17.2205C22.7037 17.1349 22.6719 17.0394 22.6612 16.9404V17.0071Z" fill="#F2F3F5"></path><path d="M46.9652 2.57407L46.6584 2.29395C46.366 2.03834 46.0538 1.80639 45.7247 1.6003C44.5523 0.829118 43.2024 0.369984 41.803 0.266386C40.8751 0.203135 39.9429 0.256918 39.0284 0.42646C38.0057 0.613644 37.0045 0.90415 36.0404 1.29351C35.0117 1.71624 34.0247 2.23427 33.0925 2.84085C32.1543 3.47433 31.2628 4.1742 30.4246 4.93509C29.5735 5.70164 28.7674 6.51669 28.0103 7.37616C27.2633 8.22987 26.583 9.11026 25.9294 10.044C24.5954 11.7647 23.555 13.4588 22.6212 14.9128L19.5532 19.7549L22.6746 14.9395C23.6083 13.4988 24.7155 11.8048 25.996 10.084C26.6497 9.23031 27.33 8.34992 28.0903 7.50955C28.843 6.65452 29.6447 5.84391 30.4913 5.08183C31.3301 4.32173 32.2216 3.6219 33.1592 2.98758C34.0791 2.37592 35.0577 1.85758 36.0805 1.44024C37.8848 0.664394 39.8406 0.304244 41.803 0.386444C42.585 0.439697 43.3566 0.596694 44.0973 0.853313C44.6669 1.04975 45.2127 1.30925 45.7247 1.62699C46.0515 1.83646 46.3635 2.06822 46.6584 2.32062L46.9652 2.57407Z" fill="#2E2F31"></path><path d="M20.9004 20.582C21.7541 19.1147 22.5945 17.6474 23.4615 16.1934L26.0493 11.8315L30.3045 6.49588L35.0133 2.73423L40.3489 1.06684C41.2947 1.07204 42.236 1.19754 43.1502 1.44033C43.3769 1.44033 43.6037 1.57372 43.8305 1.64042L44.1639 1.76047L44.4974 1.89386C44.7159 1.98521 44.9296 2.08761 45.1377 2.20066C45.3451 2.30313 45.5456 2.41899 45.738 2.54748L65.8534 25.5442L45.8447 2.45411C45.6446 2.33406 45.4445 2.20066 45.2311 2.09395C45.0197 1.97827 44.8014 1.87581 44.5774 1.78715L44.244 1.65375C44.1305 1.6078 44.0147 1.56773 43.8971 1.5337L43.2169 1.32027C42.7524 1.19805 42.2799 1.10891 41.8029 1.05349C41.3258 0.984286 40.8444 0.948625 40.3623 0.946777L34.9332 2.57416L30.2245 6.3358L25.9693 11.6715L23.3015 16.0334C22.4344 17.4873 21.5941 18.968 20.7404 20.422L20.9004 20.582Z" fill="#F2F3F5"></path><path d="M17.1923 24.277C17.3133 24.4469 17.4569 24.5995 17.6191 24.7306C17.6997 24.6448 17.7712 24.5509 17.8325 24.4504C17.9926 24.237 18.126 24.0102 18.126 24.0102C18.126 24.0102 18.0326 24.2637 17.9259 24.5038C17.8738 24.6135 17.8159 24.7203 17.7525 24.8239C18.1072 25.096 18.4818 25.3412 18.873 25.5576C18.2348 25.4165 17.64 25.1236 17.1389 24.7039C16.552 24.1836 16.2318 23.37 15.6582 22.8764C14.7351 22.1785 13.6902 21.6584 12.5769 21.3424C13.7827 21.3816 14.9472 21.7915 15.9117 22.5163C16.3917 23.0626 16.8204 23.652 17.1923 24.277Z" fill="#2E2F31"></path><path d="M18.3394 29.7727C18.3394 30.0662 18.3394 30.3863 18.4194 30.7065C18.4416 31.2965 18.3968 31.8872 18.286 32.4672C18.2569 32.6586 18.2077 32.8464 18.1393 33.0275V33.2409V33.0141C18.1393 32.8807 18.1393 32.6807 18.1393 32.4405C18.1393 32.2004 18.1393 31.9337 18.1393 31.6402C18.1393 31.3467 18.1393 31.0399 18.1393 30.7198C18.1393 30.0929 18.0726 29.4659 18.0459 28.999C18.0192 28.5322 18.0459 28.212 18.0459 28.212C18.1503 28.4584 18.2351 28.7126 18.2994 28.9724C18.3317 29.2379 18.345 29.5053 18.3394 29.7727Z" fill="#2E2F31"></path><path d="M19.9668 27.9186C19.9668 27.8119 19.9668 27.6918 20.0468 27.5584C20.0871 27.4228 20.1183 27.2847 20.1402 27.1449C20.1402 26.9848 20.1402 26.8248 20.2202 26.6647C20.3003 26.5046 20.2202 26.3312 20.2202 26.1578C20.2202 25.9844 20.2202 25.7976 20.2202 25.6242C20.2202 25.4508 20.2202 25.2641 20.2202 25.0907V24.5838C20.2202 24.2503 20.2202 23.9302 20.1402 23.6634C20.0735 23.1298 20.0068 22.7697 20.0068 22.7697C20.1309 23.0491 20.2292 23.3393 20.3003 23.6367C20.467 24.2902 20.5433 24.9634 20.527 25.6376C20.5215 25.9963 20.4813 26.3537 20.407 26.7047C20.3827 26.8683 20.3425 27.0291 20.2869 27.1849C20.2869 27.345 20.1936 27.4917 20.1402 27.6118C20.1019 27.7316 20.0528 27.8477 19.9935 27.9586L19.8601 28.212L19.7267 28.4255L19.8067 28.1854L19.9668 27.9186Z" fill="#2E2F31"></path><path d="M16.2051 20.422C16.1733 20.5143 16.1331 20.6036 16.0851 20.6888C16.0214 20.8565 15.941 21.0174 15.845 21.169C15.7572 21.3179 15.6591 21.4605 15.5515 21.5958V21.4491L15.6582 21.1023C15.7383 20.8088 15.8717 20.422 15.9784 20.0351L16.2718 18.9813L16.4186 18.4878C16.4373 18.6607 16.4373 18.8351 16.4186 19.008C16.4011 19.3876 16.3384 19.7638 16.2318 20.1285C16.2718 20.2219 16.2318 20.3153 16.2051 20.422Z" fill="#2E2F31"></path><path d="M16.0184 16.8471C16.0254 16.736 16.0254 16.6246 16.0184 16.5136C16.0184 16.3935 16.0184 16.2602 16.0184 16.1268C15.9915 15.8816 15.9378 15.64 15.8584 15.4065C15.8229 15.2962 15.7783 15.1891 15.725 15.0863C15.8215 15.1578 15.9069 15.2432 15.9784 15.3398C16.1459 15.5495 16.2809 15.7834 16.3786 16.0334C16.4791 16.2898 16.542 16.5593 16.5653 16.8337C16.571 16.9226 16.571 17.0117 16.5653 17.1005V17.2473H15.9918C15.9918 17.2473 16.0051 17.0338 16.0184 16.8471Z" fill="#2E2F31"></path><path d="M10.7628 19.3416C11.078 19.2847 11.3864 19.1953 11.6832 19.0748C11.8839 18.9975 12.0799 18.9084 12.2701 18.808C12.4702 18.7013 12.6836 18.5812 12.9237 18.4745C13.4137 18.2717 13.9233 18.1197 14.4444 18.021C14.9676 17.9243 15.5008 17.8929 16.0317 17.9276H16.752H17.3923C17.7121 17.948 18.0329 17.948 18.3528 17.9276H18.6195L18.3661 18.0076C18.0449 18.0672 17.719 18.0985 17.3923 18.101C16.9922 18.101 16.5119 18.101 16.0584 18.101C15.5402 18.071 15.0203 18.1069 14.5111 18.2077C14.0023 18.2968 13.5023 18.4307 13.0171 18.6079L12.3635 18.9147C12.1698 19.0137 11.9692 19.0984 11.7632 19.1682C11.4536 19.2782 11.1305 19.3455 10.8028 19.3682C10.683 19.38 10.5624 19.38 10.4426 19.3682C10.5499 19.3692 10.6571 19.3603 10.7628 19.3416Z" fill="#2E2F31"></path><path d="M20.407 19.9152L19.8734 20.422L20.2869 19.8218L20.407 19.9152Z" fill="#2E2F31"></path></svg> 