<?xml version="1.0" encoding="UTF-8"?> <svg xmlns="http://www.w3.org/2000/svg" width="14" height="14" viewBox="0 0 14 14" fill="none"><path d="M1.01578 2.54485C1.2937 1.71108 2.07221 0.919414 3.06493 0.786813C3.09332 0.830099 3.12537 0.881143 3.16091 0.940386C3.34025 1.2393 3.55586 1.65755 3.76691 2.10311C3.97664 2.54588 4.1737 2.99827 4.31669 3.35862C4.38853 3.53966 4.4436 3.68964 4.47942 3.7996C4.48861 3.82783 4.49583 3.85125 4.50137 3.8702C4.49269 3.8991 4.47332 3.94792 4.43008 4.02074C4.35361 4.14955 4.2363 4.29812 4.07475 4.48274C4.02344 4.54139 3.96076 4.61115 3.89396 4.68549C3.78155 4.8106 3.65746 4.9487 3.55617 5.06875C3.38246 5.27463 3.19173 5.52178 3.05463 5.79598C2.69233 6.52058 2.92577 7.20357 3.23414 7.69697C3.52092 8.15582 3.95722 8.59192 4.31603 8.95056C4.32725 8.96177 4.33839 8.97291 4.34946 8.98397L4.35506 8.98958C4.50914 9.14368 4.93471 9.56933 5.43845 9.90917C5.6925 10.0806 6.00299 10.2556 6.33823 10.3533C6.67407 10.4511 7.11143 10.4918 7.53744 10.2788C7.81163 10.1417 8.05878 9.95098 8.26466 9.77727C8.3847 9.67597 8.52281 9.55188 8.64791 9.43947C8.72225 9.37267 8.79201 9.31 8.85066 9.25868C9.03528 9.09713 9.18385 8.97982 9.31265 8.90335C9.37434 8.86672 9.42053 8.84621 9.45301 8.8353C9.45664 8.83408 9.46002 8.83301 9.46316 8.83206C9.48211 8.8376 9.50554 8.84482 9.53377 8.85401C9.64373 8.88983 9.79371 8.9449 9.97474 9.01674C10.3351 9.15974 10.7875 9.35679 11.2302 9.56653C11.6758 9.77758 12.094 9.99319 12.3929 10.1725C12.4522 10.2081 12.5032 10.2401 12.5465 10.2685C12.4139 11.2613 11.6223 12.0398 10.7885 12.3177C10.2669 12.4916 9.87133 12.5661 9.44844 12.5661C9.01314 12.5661 8.50813 12.4873 7.76406 12.3012C7.0102 12.1128 6.414 11.9389 5.78079 11.6012C5.14702 11.2632 4.43951 10.7405 3.51625 9.81721C2.593 8.89395 2.07028 8.18642 1.73227 7.55264C1.39456 6.91943 1.22071 6.32322 1.03225 5.56935C0.846231 4.82527 0.767391 4.32025 0.767391 3.88494C0.767391 3.46204 0.841919 3.06645 1.01578 2.54485ZM4.51608 3.92695C4.516 3.92686 4.51545 3.92442 4.51467 3.9199C4.51577 3.92478 4.51616 3.92704 4.51608 3.92695ZM9.40643 8.81735C9.4063 8.81726 9.40855 8.81765 9.41347 8.81876C9.409 8.81799 9.40656 8.81744 9.40643 8.81735Z" fill="white" stroke="white" stroke-width="1.53478" stroke-linecap="round" stroke-linejoin="round"></path></svg> 