<?xml version="1.0" encoding="UTF-8"?> <svg xmlns="http://www.w3.org/2000/svg" width="21" height="25" viewBox="0 0 21 25" fill="none"><path d="M21 20.5357C21 20.7775 20.9096 20.9868 20.7289 21.1635C20.5482 21.3402 20.3342 21.4286 20.087 21.4286H13.4959C13.5054 21.5867 13.534 21.9936 13.5815 22.6493C13.6291 23.305 13.6529 23.8095 13.6529 24.1629C13.6529 24.3955 13.5673 24.5931 13.3961 24.7559C13.2249 24.9186 13.0204 25 12.7826 25H8.21739C7.97962 25 7.77514 24.9186 7.60394 24.7559C7.43274 24.5931 7.34715 24.3955 7.34715 24.1629C7.34715 23.8095 7.37092 23.305 7.41848 22.6493C7.46603 21.9936 7.49457 21.5867 7.50408 21.4286H0.913043C0.665761 21.4286 0.451766 21.3402 0.27106 21.1635C0.0903533 20.9868 0 20.7775 0 20.5357C0 20.2939 0.0903533 20.0846 0.27106 19.9079L6.00611 14.2857H2.73913C2.49185 14.2857 2.27785 14.1974 2.09715 14.0206C1.91644 13.8439 1.82609 13.6347 1.82609 13.3929C1.82609 13.151 1.91644 12.9418 2.09715 12.7651L7.8322 7.14286H5.02174C4.77446 7.14286 4.56046 7.0545 4.37976 6.87779C4.19905 6.70108 4.1087 6.49182 4.1087 6.25C4.1087 6.00818 4.19905 5.79892 4.37976 5.62221L9.85802 0.265067C10.0387 0.0883556 10.2527 0 10.5 0C10.7473 0 10.9613 0.0883556 11.142 0.265067L16.6202 5.62221C16.801 5.79892 16.8913 6.00818 16.8913 6.25C16.8913 6.49182 16.801 6.70108 16.6202 6.87779C16.4395 7.0545 16.2255 7.14286 15.9783 7.14286H13.1678L18.9029 12.7651C19.0836 12.9418 19.1739 13.151 19.1739 13.3929C19.1739 13.6347 19.0836 13.8439 18.9029 14.0206C18.7221 14.1974 18.5082 14.2857 18.2609 14.2857H14.9939L20.7289 19.9079C20.9096 20.0846 21 20.2939 21 20.5357Z" fill="white"></path></svg> 