<svg width="48" height="31" viewBox="0 0 48 31" fill="none" xmlns="http://www.w3.org/2000/svg">
<path d="M47.3005 16.6679C47.3674 16.6004 47.4276 16.5267 47.4805 16.4479L47.5455 16.3279C47.6033 16.2378 47.644 16.1378 47.6655 16.0329L47.7005 15.9079C47.7383 15.7164 47.7383 15.5194 47.7005 15.3279L47.6605 15.1979L47.6155 15.0479C47.5917 14.9964 47.565 14.9463 47.5355 14.8979L47.4755 14.7929C47.42 14.7101 47.3564 14.633 47.2855 14.5629L33.8455 1.10788C33.7149 0.94005 33.5501 0.801904 33.3621 0.70261C33.174 0.603317 32.967 0.545146 32.7548 0.531956C32.5425 0.518767 32.3299 0.55086 32.131 0.626107C31.9321 0.701354 31.7514 0.818033 31.6011 0.968407C31.4507 1.11878 31.334 1.29941 31.2588 1.49831C31.1835 1.69722 31.1514 1.90985 31.1646 2.1221C31.1778 2.33435 31.236 2.54137 31.3353 2.72943C31.4346 2.91749 31.5727 3.08228 31.7405 3.21288L42.6205 14.1079L2.24054 14.1079C1.84271 14.1079 1.46118 14.2659 1.17988 14.5472C0.898574 14.8285 0.740539 15.2101 0.740539 15.6079C0.740539 16.0057 0.898574 16.3872 1.17988 16.6685C1.46118 16.9498 1.84271 17.1079 2.24054 17.1079L42.6205 17.1079L31.7405 28.0029C31.516 28.2915 31.4046 28.6521 31.4272 29.0171C31.4499 29.3821 31.6051 29.7262 31.8637 29.9847C32.1223 30.2433 32.4664 30.3985 32.8313 30.4212C33.1963 30.4439 33.557 30.3324 33.8455 30.1079L47.3005 16.6679Z" fill="black"/>
</svg>
