<svg width="31" height="31" viewBox="0 0 31 31" fill="none" xmlns="http://www.w3.org/2000/svg">
<path d="M18.2299 15.9808L30.4273 4.19437C30.7919 3.84152 30.9967 3.36295 30.9967 2.86395C30.9967 2.36494 30.7919 1.88637 30.4273 1.53352C30.0627 1.18067 29.5683 0.982437 29.0527 0.982437C28.5371 0.982437 28.0426 1.18067 27.6781 1.53352L15.5 13.3387L3.32195 1.53352C2.95738 1.18067 2.46291 0.982438 1.94732 0.982438C1.43174 0.982438 0.937268 1.18067 0.572694 1.53352C0.20812 1.88637 0.00330461 2.36494 0.0033046 2.86395C0.0033046 3.36295 0.20812 3.84152 0.572694 4.19437L12.7701 15.9808L0.572694 27.7673C0.391227 27.9415 0.247193 28.1487 0.1489 28.3771C0.0506066 28.6054 0 28.8504 0 29.0977C0 29.3451 0.0506066 29.59 0.1489 29.8184C0.247193 30.0467 0.391227 30.254 0.572694 30.4282C0.752679 30.6038 0.966814 30.7432 1.20275 30.8383C1.43868 30.9335 1.69174 30.9824 1.94732 30.9824C2.20291 30.9824 2.45597 30.9335 2.6919 30.8383C2.92783 30.7432 3.14197 30.6038 3.32195 30.4282L15.5 18.623L27.6781 30.4282C27.858 30.6038 28.0722 30.7432 28.3081 30.8383C28.544 30.9335 28.7971 30.9824 29.0527 30.9824C29.3083 30.9824 29.5613 30.9335 29.7973 30.8383C30.0332 30.7432 30.2473 30.6038 30.4273 30.4282C30.6088 30.254 30.7528 30.0467 30.8511 29.8184C30.9494 29.59 31 29.3451 31 29.0977C31 28.8504 30.9494 28.6054 30.8511 28.3771C30.7528 28.1487 30.6088 27.9415 30.4273 27.7673L18.2299 15.9808Z" fill="white"/>
</svg>
