<svg width="269" height="197" viewBox="0 0 269 197" fill="none" xmlns="http://www.w3.org/2000/svg">
<path d="M151.655 167.25C216.423 150.814 261.231 107.16 251.737 69.7451C242.242 32.3305 182.041 15.3239 117.273 31.7598C52.5048 48.1956 7.69683 91.85 17.1914 129.265C26.6859 166.679 86.8875 183.686 151.655 167.25Z" fill="#E5E5E5"/>
<path d="M177.619 51.0732L180.849 49.2032V42.9532L177.619 51.0732Z" fill="#E0E0E0"/>
<path d="M108.089 104.213C108.017 104.144 107.936 104.083 107.849 104.033L100.709 99.9132V66.0432C100.743 65.734 100.713 65.4213 100.622 65.1239C100.53 64.8266 100.38 64.5508 100.179 64.3132C100.116 64.2451 100.041 64.1877 99.9593 64.1432L92.2793 59.7332C92.1093 59.6358 91.9143 59.5906 91.7188 59.603C91.5232 59.6154 91.3356 59.6851 91.1793 59.8032L80.5493 65.9332C79.9935 66.2408 79.5014 66.6515 79.0993 67.1432C78.6248 67.841 78.2353 68.593 77.9393 69.3832L56.9393 122.323C56.3179 123.979 56.0093 125.735 56.0293 127.503V138.983C56.0019 139.294 56.0374 139.608 56.1336 139.905C56.2298 140.202 56.3848 140.477 56.5893 140.713L56.8293 140.893L64.4693 145.293C64.6393 145.391 64.8343 145.436 65.0298 145.423C65.2254 145.411 65.413 145.341 65.5693 145.223L80.0493 136.803V139.023C80.0215 139.335 80.0577 139.65 80.1557 139.947C80.2538 140.245 80.4115 140.519 80.6193 140.753C80.6831 140.821 80.7573 140.879 80.8393 140.923L88.4893 145.333C88.6605 145.433 88.8573 145.479 89.0549 145.467C89.2525 145.454 89.442 145.383 89.5993 145.263L98.8093 139.943C99.4173 139.561 99.895 139.003 100.179 138.343C100.548 137.603 100.743 136.79 100.749 135.963V124.963L106.749 121.473C107.352 121.075 107.819 120.503 108.089 119.833C108.45 119.091 108.642 118.278 108.649 117.453V105.943C108.677 105.632 108.641 105.319 108.545 105.021C108.449 104.724 108.294 104.449 108.089 104.213Z" fill="#FF9900"/>
<path opacity="0.15" d="M86.6993 71.5432V71.6832C86.2486 72.3446 85.8761 73.056 85.5893 73.8032L64.5893 126.803C64.3149 127.505 64.1074 128.232 63.9693 128.973L56.2693 124.533C56.4135 123.801 56.6176 123.082 56.8793 122.383L77.8793 69.4432C78.1674 68.6476 78.5609 67.8942 79.0493 67.2032L86.6993 71.5432Z" fill="#1F1F1F"/>
<path opacity="0.3" d="M64.3593 145.243L56.8093 140.893C56.7223 140.839 56.6417 140.776 56.5693 140.703C56.3643 140.467 56.209 140.193 56.1128 139.895C56.0165 139.598 55.9813 139.284 56.0093 138.973V127.513C56.0107 126.506 56.1112 125.501 56.3093 124.513L63.9493 128.923C63.7497 129.911 63.6525 130.916 63.6593 131.923V143.393C63.6069 144.02 63.8046 144.642 64.2093 145.123L64.3593 145.243Z" fill="#1F1F1F"/>
<path opacity="0.3" d="M88.0493 95.0032V114.913L81.6093 111.203L88.0493 95.0032Z" fill="#1F1F1F"/>
<path opacity="0.4" d="M88.0493 114.913L77.7793 120.833L81.6093 111.203L88.0493 114.913Z" fill="#1F1F1F"/>
<path opacity="0.3" d="M88.2593 145.203L88.3893 145.313L80.8393 140.973C80.7593 140.922 80.6855 140.861 80.6193 140.793C80.4115 140.559 80.2538 140.285 80.1558 139.987C80.0577 139.69 80.0215 139.375 80.0493 139.063V136.803L87.6993 132.393V143.393C87.6607 143.717 87.6906 144.046 87.787 144.358C87.8835 144.67 88.0444 144.958 88.2593 145.203Z" fill="#1F1F1F"/>
<path opacity="0.15" d="M107.759 103.993C107.597 103.923 107.419 103.897 107.243 103.918C107.067 103.939 106.9 104.007 106.759 104.113L100.699 107.603V99.9132C100.699 99.9132 106.929 103.503 107.759 103.993Z" fill="#1F1F1F"/>
<path opacity="0.4" d="M99.8693 64.1132C99.6973 64.037 99.5086 64.0062 99.3213 64.0237C99.1339 64.0412 98.9542 64.1064 98.7993 64.2132L88.1793 70.3432C87.6261 70.6462 87.1371 71.0538 86.7393 71.5432L79.0893 67.1332C79.4852 66.6458 79.9706 66.2385 80.5193 65.9332L91.1793 59.8032C91.3376 59.6809 91.5289 59.6088 91.7286 59.5963C91.9282 59.5838 92.1271 59.6315 92.2993 59.7332L99.8693 64.1132Z" fill="white"/>
<path d="M89.5993 145.303C89.4034 145.456 89.1577 145.53 88.91 145.512C88.6623 145.493 88.4303 145.383 88.2593 145.203C88.0548 144.967 87.8998 144.692 87.8036 144.395C87.7074 144.098 87.6719 143.784 87.6993 143.473V132.473L65.5493 145.223C65.3541 145.373 65.1106 145.446 64.8652 145.427C64.6198 145.409 64.3898 145.301 64.2193 145.123C64.0128 144.888 63.8565 144.614 63.7602 144.316C63.6639 144.019 63.6296 143.705 63.6593 143.393V131.923C63.6374 130.155 63.9461 128.398 64.5693 126.743L85.5693 73.7932C85.8635 73.0022 86.253 72.25 86.7293 71.5532C87.1314 71.0615 87.6235 70.6508 88.1793 70.3432L98.7993 64.2132C98.9945 64.0633 99.238 63.9907 99.4834 64.0091C99.7288 64.0276 99.9587 64.1358 100.129 64.3132C100.337 64.5476 100.495 64.8219 100.593 65.1194C100.691 65.4169 100.727 65.7313 100.699 66.0432V107.603L106.699 104.113C106.895 103.96 107.141 103.886 107.389 103.905C107.636 103.923 107.868 104.033 108.039 104.213C108.244 104.449 108.399 104.724 108.495 105.021C108.591 105.319 108.627 105.632 108.599 105.943V117.413C108.592 118.238 108.4 119.051 108.039 119.793C107.769 120.463 107.302 121.035 106.699 121.433L100.699 124.923V135.923C100.693 136.75 100.498 137.563 100.129 138.303C99.8626 138.972 99.3987 139.544 98.7993 139.943L89.5993 145.303ZM88.0493 114.913V95.0032L77.7893 120.803L88.0493 114.913Z" fill="#FF9900"/>
<path d="M157.369 58.6532C157.273 55.154 156.791 51.6762 155.929 48.2832C155.317 45.5985 154.026 43.1158 152.179 41.0732C151.611 40.4844 150.965 39.9764 150.259 39.5632L142.599 35.1432C141.266 34.3863 139.771 33.9611 138.239 33.9032C135.726 33.7832 132.706 34.7499 129.179 36.8032C125.728 38.7853 122.657 41.3655 120.109 44.4232C117.586 47.4681 115.471 50.83 113.819 54.4232C112.143 58.1086 110.895 61.9738 110.099 65.9432C109.292 69.8974 108.807 73.9106 108.649 77.9432C108.556 81.1032 108.513 84.3799 108.519 87.7732C108.526 91.1666 108.569 94.3132 108.649 97.2132C108.753 100.712 109.239 104.19 110.099 107.583C110.699 110.266 111.98 112.749 113.819 114.793C114.383 115.379 115.026 115.884 115.729 116.293C117.009 117.053 122.729 120.373 123.509 120.783C124.812 121.509 126.269 121.913 127.759 121.963C130.293 122.083 133.316 121.13 136.829 119.103C140.282 117.127 143.354 114.55 145.899 111.493C148.428 108.452 150.543 105.089 152.189 101.493C153.87 97.809 155.122 93.9435 155.919 89.9732C156.729 86.0196 157.21 82.006 157.359 77.9732C157.446 74.9599 157.493 71.7599 157.499 68.3732C157.506 64.9866 157.463 61.7466 157.369 58.6532ZM129.589 97.1232C129.431 95.9461 129.341 94.7608 129.319 93.5732C129.079 87.5732 129.079 81.5132 129.319 75.3932C129.356 73.6304 129.52 71.8726 129.809 70.1332C130.066 68.5327 130.492 66.9639 131.079 65.4532C131.621 64.0131 132.38 62.6641 133.329 61.4532C134.167 60.3822 135.182 59.4623 136.329 58.7332C136.479 59.8032 136.599 60.9732 136.669 62.2432C136.849 68.1232 136.849 74.1832 136.669 80.4232C136.628 82.1812 136.474 83.9348 136.209 85.6732C135.966 87.2767 135.54 88.8469 134.939 90.3532C134.377 91.7901 133.609 93.1376 132.659 94.3532C131.801 95.4447 130.763 96.3815 129.589 97.1232Z" fill="#FF9900"/>
<path opacity="0.15" d="M123.309 120.663C122.039 119.943 116.929 116.993 115.729 116.303C115.037 115.879 114.399 115.372 113.829 114.793C111.99 112.749 110.709 110.266 110.109 107.583C109.247 104.19 108.764 100.713 108.669 97.2132C108.569 94.3032 108.529 91.2132 108.529 87.7732C108.529 84.3332 108.529 81.1032 108.669 77.9432C108.818 73.9104 109.3 69.8968 110.109 65.9432C110.667 63.1349 111.459 60.3785 112.479 57.7032L120.109 62.1232C119.102 64.7977 118.316 67.5502 117.759 70.3532C116.943 74.306 116.458 78.3199 116.309 82.3532C116.209 85.5032 116.169 88.7832 116.169 92.1732C116.169 95.5632 116.169 98.7132 116.309 101.613C116.403 105.117 116.889 108.598 117.759 111.993C118.359 114.676 119.64 117.159 121.479 119.203C122.021 119.77 122.636 120.261 123.309 120.663Z" fill="#1F1F1F"/>
<path opacity="0.4" d="M149.989 39.4032C148.725 38.7475 147.332 38.3788 145.909 38.3232C143.383 38.2032 140.359 39.1532 136.839 41.1732C133.386 43.1562 130.314 45.7401 127.769 48.8032C125.238 51.8425 123.123 55.2054 121.479 58.8032C121.219 59.3532 120.989 59.9032 120.749 60.4732L120.119 62.0832L112.489 57.6632C112.669 57.1832 112.859 56.6632 113.049 56.2332C113.309 55.6132 113.559 55.0032 113.839 54.3932C115.494 50.8014 117.608 47.4399 120.129 44.3932C122.673 41.3479 125.738 38.7781 129.179 36.8032C132.689 34.8032 135.729 33.8032 138.259 33.9532C139.788 34.0041 141.281 34.4262 142.609 35.1832C143.279 35.5232 148.309 38.4132 149.989 39.4032Z" fill="white"/>
<path opacity="0.3" d="M144.369 84.8932C144.325 86.6481 144.168 88.3984 143.899 90.1332C143.666 91.7376 143.243 93.3085 142.639 94.8132C142.39 95.4418 142.099 96.0531 141.769 96.6432L134.179 92.2232C134.504 91.6352 134.791 91.0273 135.039 90.4032C135.64 88.8969 136.066 87.3267 136.309 85.7232C136.575 83.9884 136.725 82.2379 136.759 80.4832C136.946 74.2432 136.946 68.1799 136.759 62.2932C136.691 61.1243 136.564 59.9595 136.379 58.8032C136.379 58.8032 136.579 58.6632 136.839 58.5132C137.874 57.8088 139.109 57.458 140.359 57.5132C140.805 57.555 141.236 57.6917 141.624 57.9142C142.012 58.1367 142.348 58.4399 142.609 58.8032C143.244 59.784 143.663 60.8883 143.839 62.0432C144.112 63.5909 144.289 65.1538 144.369 66.7232C144.543 72.5966 144.543 78.6532 144.369 84.8932Z" fill="#1F1F1F"/>
<path opacity="0.4" d="M141.769 96.6432C141.356 97.3921 140.884 98.1076 140.359 98.7832C139.392 100.002 138.196 101.021 136.839 101.783C135.809 102.494 134.581 102.865 133.329 102.843C132.875 102.798 132.435 102.656 132.04 102.426C131.645 102.197 131.304 101.886 131.039 101.513C130.379 100.55 129.948 99.4486 129.779 98.2932C129.699 97.9232 129.649 97.5232 129.589 97.1232C130.778 96.3942 131.83 95.4636 132.699 94.3732C133.234 93.6969 133.712 92.9779 134.129 92.2232L141.769 96.6432Z" fill="#1F1F1F"/>
<path d="M136.839 41.1732C140.346 39.1732 143.369 38.2232 145.909 38.3232C148.278 38.3866 150.528 39.3736 152.179 41.0732C154.019 43.118 155.303 45.6005 155.909 48.2833C156.771 51.6762 157.253 55.154 157.349 58.6532C157.436 61.7066 157.483 64.9299 157.489 68.3232C157.496 71.7166 157.449 74.9166 157.349 77.9232C157.2 81.956 156.719 85.9697 155.909 89.9232C155.114 93.9038 153.862 97.7794 152.179 101.473C150.533 105.069 148.418 108.432 145.889 111.473C143.344 114.53 140.272 117.107 136.819 119.083C133.313 121.083 130.289 122.037 127.749 121.943C125.374 121.885 123.115 120.898 121.459 119.193C119.618 117.146 118.334 114.66 117.729 111.973C116.867 108.581 116.384 105.103 116.289 101.603C116.203 98.7032 116.156 95.5566 116.149 92.1632C116.143 88.7699 116.189 85.4966 116.289 82.3432C116.44 78.3105 116.921 74.297 117.729 70.3432C118.533 66.3655 119.791 62.4933 121.479 58.8032C123.126 55.207 125.241 51.8445 127.769 48.8032C130.314 45.7397 133.385 43.1557 136.839 41.1732ZM144.359 84.8932C144.546 78.6532 144.546 72.5899 144.359 66.7032C144.286 65.1371 144.112 63.5772 143.839 62.0333C143.662 60.8803 143.239 59.7789 142.599 58.8032C142.348 58.4255 142.015 58.1083 141.626 57.8748C141.237 57.6414 140.801 57.4973 140.349 57.4532C139.104 57.414 137.877 57.7635 136.839 58.4532C135.483 59.2128 134.291 60.2322 133.329 61.4532C132.38 62.6642 131.621 64.0131 131.079 65.4532C130.492 66.964 130.066 68.5327 129.809 70.1332C129.52 71.8726 129.356 73.6304 129.319 75.3932C129.079 81.5199 129.079 87.5799 129.319 93.5732C129.345 95.1559 129.496 96.7342 129.769 98.2933C129.941 99.4494 130.376 100.551 131.039 101.513C131.306 101.884 131.648 102.194 132.042 102.423C132.437 102.652 132.875 102.795 133.329 102.843C134.575 102.882 135.802 102.533 136.839 101.843C138.192 101.08 139.385 100.061 140.349 98.8432C141.301 97.6269 142.072 96.2798 142.639 94.8432C143.243 93.3378 143.669 91.7672 143.909 90.1632C144.167 88.4174 144.317 86.6575 144.359 84.8932Z" fill="#FF9900"/>
<path d="M211.309 44.6132C211.24 44.5448 211.162 44.4844 211.079 44.4332C210.749 44.2532 203.929 40.3132 203.929 40.3132V6.44323C203.957 6.13206 203.921 5.81855 203.825 5.52135C203.729 5.22415 203.574 4.94933 203.369 4.71324C203.299 4.64789 203.222 4.59084 203.139 4.54324L195.509 0.133235C195.334 0.0400613 195.137 -0.00272987 194.939 0.00962958C194.742 0.021989 194.551 0.0890133 194.389 0.203235L183.769 6.33323C183.215 6.63916 182.726 7.05016 182.329 7.54324C181.853 8.24548 181.467 9.00475 181.179 9.80324L160.179 62.7232C159.557 64.3819 159.248 66.1418 159.269 67.9132V79.3832C159.24 79.6946 159.274 80.0087 159.37 80.3062C159.467 80.6037 159.623 80.8784 159.829 81.1132C159.901 81.1841 159.981 81.2447 160.069 81.2932L167.699 85.7032C167.873 85.7952 168.07 85.8365 168.266 85.8224C168.462 85.8082 168.65 85.7392 168.809 85.6232L183.309 77.2532V79.4632C183.282 79.7744 183.317 80.0879 183.414 80.3851C183.51 80.6823 183.665 80.9571 183.869 81.1932C183.937 81.2617 184.014 81.319 184.099 81.3632L191.739 85.7832C191.913 85.8753 192.11 85.9165 192.306 85.9024C192.502 85.8882 192.69 85.8192 192.849 85.7032L202.059 80.3832C202.662 79.9892 203.129 79.4205 203.399 78.7532C203.759 78.0073 203.95 77.1914 203.959 76.3632V65.3632L209.979 61.8032C210.578 61.4082 211.042 60.8394 211.309 60.1732C211.673 59.4322 211.864 58.6186 211.869 57.7932V46.3432C211.899 46.0319 211.865 45.7178 211.768 45.4203C211.672 45.1227 211.516 44.8481 211.309 44.6132Z" fill="#FF9900"/>
<path opacity="0.15" d="M189.919 11.9532V12.0832C189.484 12.7488 189.122 13.4596 188.839 14.2032L167.839 67.1432C167.56 67.844 167.353 68.571 167.219 69.3132L159.519 64.8732C159.66 64.1403 159.864 63.4209 160.129 62.7232L181.129 9.78323C181.417 8.98935 181.807 8.23635 182.289 7.54324L189.919 11.9532Z" fill="#1F1F1F"/>
<path opacity="0.3" d="M167.579 85.6432L160.029 81.2932C159.946 81.2427 159.868 81.1823 159.799 81.1132C159.591 80.8774 159.433 80.6013 159.335 80.3021C159.237 80.0029 159.201 79.6868 159.229 79.3732V67.9132C159.231 66.9058 159.332 65.9011 159.529 64.9132L167.179 69.3232C166.976 70.3102 166.876 71.3156 166.879 72.3232V83.8032C166.852 84.1129 166.888 84.4248 166.984 84.7203C167.08 85.0159 167.235 85.289 167.439 85.5232L167.579 85.6432Z" fill="#1F1F1F"/>
<path opacity="0.3" d="M191.279 35.4032V55.3232L184.839 51.6032L191.279 35.4032Z" fill="#1F1F1F"/>
<path opacity="0.4" d="M191.279 55.3232L181.009 61.2432L184.839 51.6032L191.279 55.3232Z" fill="#1F1F1F"/>
<path opacity="0.3" d="M191.489 85.6032L191.619 85.7232L184.069 81.3732C183.984 81.3248 183.907 81.2642 183.839 81.1932C183.635 80.9571 183.48 80.6823 183.384 80.3851C183.287 80.0879 183.252 79.7744 183.279 79.4632V77.2532L190.919 72.8332V83.8332C190.885 84.1518 190.917 84.474 191.016 84.779C191.114 85.084 191.275 85.3648 191.489 85.6032Z" fill="#1F1F1F"/>
<path opacity="0.15" d="M210.989 44.3932C210.825 44.3322 210.649 44.3112 210.475 44.3321C210.301 44.3529 210.134 44.415 209.989 44.5132L203.939 48.0032V40.3132L210.989 44.3932Z" fill="#1F1F1F"/>
<path opacity="0.4" d="M203.089 4.51324C202.919 4.43635 202.731 4.40602 202.544 4.42534C202.358 4.44466 202.181 4.51294 202.029 4.62324L191.419 10.7432C190.869 11.0549 190.381 11.4651 189.979 11.9532L182.339 7.53324C182.738 7.0485 183.223 6.64166 183.769 6.33323L194.389 0.203235C194.549 0.0824194 194.74 0.0121275 194.94 0.00143227C195.14 -0.00926295 195.338 0.0401301 195.509 0.143236C195.579 0.173236 202.379 4.10324 203.089 4.51324Z" fill="white"/>
<path d="M192.819 85.7032C192.625 85.8544 192.382 85.9288 192.137 85.9122C191.892 85.8956 191.661 85.7891 191.489 85.6132C191.283 85.3762 191.127 85.0998 191.031 84.8007C190.934 84.5016 190.9 84.1861 190.929 83.8732V72.8032L168.779 85.6232C168.583 85.776 168.338 85.8503 168.09 85.8318C167.842 85.8134 167.61 85.7034 167.439 85.5232C167.234 85.2874 167.079 85.0127 166.983 84.7154C166.887 84.4181 166.851 84.1044 166.879 83.7932V72.3232C166.862 70.5544 167.174 68.7978 167.799 67.1432L188.799 14.2032C189.085 13.4084 189.475 12.6551 189.959 11.9632C190.364 11.4833 190.86 11.089 191.419 10.8032L202.029 4.67324C202.224 4.51925 202.469 4.44318 202.717 4.45981C202.964 4.47645 203.197 4.5846 203.369 4.76324C203.574 4.99933 203.729 5.27415 203.825 5.57135C203.921 5.86855 203.957 6.18206 203.929 6.49324V48.0132L209.979 44.5232C210.173 44.3721 210.416 44.2977 210.661 44.3143C210.907 44.3309 211.137 44.4373 211.309 44.6132C211.516 44.8481 211.672 45.1227 211.768 45.4203C211.865 45.7178 211.899 46.0319 211.869 46.3432V57.8032C211.864 58.6286 211.673 59.4422 211.309 60.1832C211.041 60.8458 210.577 61.4108 209.979 61.8032L203.929 65.3032V76.3032C203.92 77.1314 203.729 77.9473 203.369 78.6932C203.099 79.3605 202.632 79.9292 202.029 80.3232L192.819 85.7032ZM191.279 55.3132V35.4032L181.009 61.2432L191.279 55.3132Z" fill="#FF9900"/>
<path d="M20.0736 93.4734C20.1288 93.4288 20.1977 93.4044 20.2686 93.4044C20.3396 93.4044 20.4085 93.4288 20.4636 93.4734C20.5798 93.613 20.6372 93.7923 20.6237 93.9734V97.2534C20.6183 97.4888 20.5638 97.7204 20.4636 97.9334C20.3858 98.1269 20.2495 98.2913 20.0736 98.4034L10.5436 103.913C10.49 103.957 10.4229 103.981 10.3536 103.981C10.2844 103.981 10.2172 103.957 10.1636 103.913C10.1037 103.846 10.0585 103.766 10.0309 103.68C10.0034 103.594 9.99408 103.503 10.0036 103.413V83.4134C10.0052 83.1776 10.0599 82.9452 10.1636 82.7334C10.2388 82.5413 10.3715 82.3771 10.5436 82.2634L19.9136 76.8534C19.968 76.8069 20.0371 76.7814 20.1086 76.7814C20.1801 76.7814 20.2493 76.8069 20.3036 76.8534C20.4183 76.99 20.4756 77.1656 20.4636 77.3434V80.6334C20.4571 80.8686 20.4027 81.1 20.3036 81.3134C20.2258 81.5069 20.0895 81.6713 19.9136 81.7834L13.7236 85.3534V88.7034L19.4636 85.4034C19.5164 85.3577 19.5838 85.3325 19.6536 85.3325C19.7235 85.3325 19.7909 85.3577 19.8436 85.4034C19.9044 85.4709 19.9508 85.55 19.98 85.636C20.0092 85.7219 20.0207 85.8129 20.0136 85.9034V89.2034C20.0107 89.4402 19.9525 89.6731 19.8436 89.8834C19.7728 90.078 19.6391 90.2434 19.4636 90.3534L13.7136 93.6734V97.1434L20.0736 93.4734Z" fill="#6E6E6E"/>
<path d="M29.4637 71.3534C30.1912 70.901 30.9938 70.5827 31.8337 70.4134C32.4402 70.2886 33.0714 70.3843 33.6137 70.6834C34.1624 71.0584 34.5623 71.614 34.7437 72.2534C35.0332 73.1987 35.1649 74.1853 35.1337 75.1734C35.1493 76.6006 34.9401 78.0214 34.5137 79.3834C34.1189 80.5959 33.5203 81.7321 32.7437 82.7434L35.2337 88.6734C35.2728 88.7721 35.2932 88.8773 35.2937 88.9834C35.2927 89.1775 35.2482 89.3688 35.1637 89.5434C35.1021 89.6991 34.9938 89.8318 34.8537 89.9234L32.1237 91.5034C31.8537 91.6534 31.6637 91.6734 31.5437 91.5034C31.4357 91.3831 31.3449 91.2485 31.2737 91.1034L29.0437 85.7634L27.1937 86.8334V93.4634C27.1871 93.6986 27.1327 93.93 27.0337 94.1434C26.9541 94.3333 26.8179 94.4939 26.6437 94.6034L23.9837 96.2034C23.93 96.2473 23.8629 96.2713 23.7937 96.2713C23.7244 96.2713 23.6573 96.2473 23.6037 96.2034C23.5424 96.1363 23.4957 96.0572 23.4665 95.9712C23.4372 95.8851 23.426 95.794 23.4337 95.7034V75.7034C23.439 75.4669 23.4971 75.2346 23.6037 75.0234C23.6788 74.8313 23.8115 74.6672 23.9837 74.5534L29.4637 71.3534ZM27.1937 82.0434L29.4637 80.7334C30.0231 80.4123 30.502 79.9676 30.8637 79.4334C31.2573 78.7987 31.4491 78.0595 31.4137 77.3134C31.4137 76.4534 31.2337 75.9534 30.8637 75.8434C30.6216 75.794 30.3719 75.796 30.1307 75.8494C29.8894 75.9028 29.6622 76.0064 29.4637 76.1534L27.1937 77.4634V82.0434Z" fill="#6E6E6E"/>
<path d="M43.9237 62.9834C44.6502 62.5312 45.4535 62.216 46.2937 62.0534C46.8999 61.9183 47.5348 62.0146 48.0737 62.3234C48.6224 62.694 49.0226 63.2465 49.2037 63.8834C49.4917 64.829 49.6235 65.8154 49.5937 66.8034C49.6102 68.234 49.401 69.6581 48.9737 71.0234C48.5789 72.2359 47.9803 73.3721 47.2037 74.3834L49.6937 80.3134C49.7338 80.4118 49.7542 80.5172 49.7537 80.6234C49.7536 80.8144 49.7091 81.0027 49.6237 81.1734C49.5615 81.3288 49.4533 81.4614 49.3137 81.5534L46.5737 83.1334C46.3037 83.2934 46.1137 83.3034 46.0037 83.1334C45.8871 83.0201 45.7952 82.8839 45.7337 82.7334L43.4637 77.4434L41.6137 78.5134V85.1434C41.6142 85.3795 41.5594 85.6124 41.4537 85.8234C41.3785 86.0155 41.2458 86.1797 41.0737 86.2934L38.4637 87.8134C38.4109 87.8592 38.3435 87.8843 38.2737 87.8843C38.2039 87.8843 38.1364 87.8592 38.0837 87.8134C38.0247 87.7452 37.9801 87.6657 37.9527 87.5798C37.9252 87.4938 37.9153 87.4032 37.9237 87.3134V67.3134C37.9242 67.0775 37.9789 66.8448 38.0837 66.6334C38.164 66.4443 38.2956 66.2815 38.4637 66.1634L43.9237 62.9834ZM41.6437 73.6834L43.9237 72.3734C44.4799 72.0516 44.9554 71.6069 45.3137 71.0734C45.7097 70.4393 45.9049 69.7004 45.8737 68.9534C45.8737 68.0834 45.6837 67.5934 45.3137 67.4734C45.0731 67.4272 44.8256 67.4309 44.5865 67.4842C44.3474 67.5376 44.1218 67.6394 43.9237 67.7834L41.6437 69.1034V73.6834Z" fill="#6E6E6E"/>
<path d="M51.9436 66.4334C51.988 65.2361 52.1555 64.0465 52.4436 62.8834C52.7176 61.7164 53.127 60.5854 53.6636 59.5134C54.1867 58.4688 54.8348 57.4917 55.5936 56.6034C56.341 55.7335 57.2302 54.9965 58.2236 54.4234C59.0074 53.9154 59.9109 53.6223 60.8436 53.5734C61.5515 53.5565 62.2412 53.7983 62.7836 54.2534C63.3598 54.7806 63.7816 55.4547 64.0036 56.2034C64.3153 57.1738 64.4837 58.1844 64.5036 59.2034C64.5036 60.0734 64.5036 60.9934 64.5036 61.9634C64.5036 62.9334 64.5036 63.8534 64.5036 64.7134C64.4593 65.9108 64.2917 67.1004 64.0036 68.2634C63.7236 69.4351 63.3144 70.572 62.7836 71.6534C62.2632 72.705 61.6113 73.6861 60.8436 74.5734C60.0921 75.4295 59.2074 76.1589 58.2236 76.7334C57.4355 77.2416 56.5297 77.5378 55.5936 77.5934C54.8876 77.6184 54.1981 77.3755 53.6636 76.9134C53.0793 76.3729 52.6569 75.6804 52.4436 74.9134C52.1318 73.9431 51.9634 72.9324 51.9436 71.9134C51.9436 71.0834 51.9436 70.1834 51.9436 69.2134C51.9436 68.2434 51.9136 67.3434 51.9436 66.4334ZM60.7736 66.6934C60.7736 66.3134 60.7736 65.8934 60.8236 65.4334C60.8736 64.9734 60.8236 64.5034 60.8236 64.0234C60.8236 63.5434 60.8236 63.0934 60.8236 62.6634C60.8236 62.2334 60.8236 61.8334 60.7736 61.4934C60.7639 61.0525 60.6933 60.615 60.5636 60.1934C60.4778 59.8712 60.3128 59.5756 60.0836 59.3334C59.8756 59.1362 59.6003 59.0254 59.3136 59.0234C58.9262 59.0442 58.5507 59.1647 58.2236 59.3734C57.8089 59.6093 57.4398 59.9175 57.1336 60.2834C56.8245 60.6472 56.5655 61.0508 56.3636 61.4834C56.1502 61.9335 55.9892 62.4066 55.8836 62.8934C55.7642 63.4025 55.6906 63.9212 55.6636 64.4434C55.6636 64.8134 55.6636 65.2134 55.6636 65.6634C55.6636 66.1134 55.6636 66.5734 55.6636 67.0534C55.6636 67.5334 55.6636 67.9834 55.6636 68.4334C55.6636 68.8834 55.6636 69.2934 55.6636 69.6434C55.6435 70.4253 55.8904 71.1907 56.3636 71.8134C56.7736 72.2634 57.3636 72.2434 58.2236 71.7634C59.0512 71.2866 59.7008 70.5528 60.0736 69.6734C60.4852 68.7306 60.7223 67.7209 60.7736 66.6934Z" fill="#6E6E6E"/>
<path d="M73.3536 45.9934C74.0833 45.5453 74.8852 45.2273 75.7236 45.0534C76.3313 44.9271 76.9641 45.0266 77.5036 45.3334C78.0542 45.7022 78.4549 46.2554 78.6336 46.8934C78.9217 47.8391 79.0535 48.8254 79.0236 49.8134C79.0402 51.2407 78.8309 52.6616 78.4036 54.0234C78.011 55.2399 77.4123 56.3798 76.6336 57.3934L79.1236 63.3234C79.1628 63.4186 79.1831 63.5205 79.1836 63.6234C79.1837 63.8176 79.1392 64.0092 79.0536 64.1834C78.9889 64.3372 78.8813 64.4691 78.7436 64.5634L76.0036 66.1434C75.7436 66.2934 75.5436 66.3134 75.4336 66.1934C75.3234 66.0749 75.2323 65.94 75.1636 65.7934L72.9336 60.4534L71.0836 61.5234V68.2034C71.0796 68.4401 71.0215 68.6727 70.9136 68.8834C70.8385 69.0755 70.7058 69.2397 70.5336 69.3534L67.9036 70.8734C67.8503 70.9219 67.7807 70.9488 67.7086 70.9488C67.6365 70.9488 67.567 70.9219 67.5136 70.8734C67.399 70.7369 67.3417 70.5613 67.3536 70.3834V50.3834C67.3578 50.1479 67.4124 49.9161 67.5136 49.7034C67.5915 49.5099 67.7278 49.3456 67.9036 49.2334L73.3536 45.9934ZM71.0836 56.6934L73.3536 55.3834C73.9136 55.0585 74.3923 54.6106 74.7536 54.0734C75.1459 53.4418 75.3377 52.7062 75.3036 51.9634C75.3036 51.0934 75.1236 50.6034 74.7536 50.4834C74.5115 50.4364 74.2623 50.4397 74.0214 50.493C73.7806 50.5463 73.5533 50.6486 73.3536 50.7934L71.0836 52.1034V56.6934Z" fill="#6E6E6E"/>
<path d="M120.542 137.424C121.792 136.704 122.762 136.604 123.442 137.104C124.122 137.604 124.442 138.734 124.442 140.474C124.488 142.059 124.145 143.632 123.442 145.054C122.788 146.315 121.78 147.357 120.542 148.054L118.082 149.534V154.824C118.082 155.005 118.037 155.184 117.952 155.344C117.898 155.493 117.796 155.619 117.662 155.704L116.412 156.424C116.373 156.461 116.321 156.482 116.267 156.482C116.213 156.482 116.161 156.461 116.122 156.424C116.078 156.372 116.045 156.311 116.024 156.246C116.004 156.181 115.996 156.112 116.002 156.044V140.694C116.004 140.511 116.045 140.33 116.122 140.164C116.18 140.02 116.281 139.898 116.412 139.814L120.542 137.424ZM118.082 146.534L120.472 145.154C121.039 144.826 121.519 144.366 121.872 143.814C122.248 143.155 122.428 142.402 122.392 141.644C122.392 140.754 122.222 140.244 121.872 140.104C121.631 140.046 121.38 140.043 121.138 140.095C120.896 140.147 120.668 140.253 120.472 140.404L118.082 141.784V146.534Z" fill="#6E6E6E"/>
<path d="M130.972 131.404C131.132 131.314 131.252 131.314 131.342 131.404C131.446 131.547 131.518 131.711 131.552 131.884L135.332 144.704C135.338 144.757 135.338 144.811 135.332 144.864C135.331 145.044 135.29 145.221 135.212 145.384C135.157 145.532 135.055 145.659 134.922 145.744L133.812 146.384C133.602 146.504 133.462 146.524 133.382 146.384C133.3 146.305 133.241 146.204 133.212 146.094L132.542 143.834L127.672 146.654L127.012 149.654C126.973 149.823 126.916 149.987 126.842 150.144C126.754 150.338 126.602 150.497 126.412 150.594L125.302 151.244C125.26 151.28 125.207 151.3 125.152 151.3C125.097 151.3 125.044 151.28 125.002 151.244C124.956 151.193 124.922 151.132 124.902 151.067C124.881 151.001 124.874 150.932 124.882 150.864C124.876 150.807 124.876 150.75 124.882 150.694L128.682 133.534C128.732 133.284 128.806 133.04 128.902 132.804C128.983 132.632 129.111 132.486 129.272 132.384L130.972 131.404ZM131.812 141.334L130.122 135.534L128.422 143.274L131.812 141.334Z" fill="#6E6E6E"/>
<path d="M136.532 134.344C136.553 133.402 136.667 132.464 136.872 131.544C137.069 130.667 137.371 129.818 137.772 129.014C138.153 128.239 138.638 127.519 139.212 126.874C139.787 126.23 140.462 125.682 141.212 125.254C141.874 124.817 142.64 124.561 143.432 124.514C143.934 124.506 144.423 124.676 144.812 124.994C145.159 125.293 145.412 125.685 145.542 126.124C145.67 126.513 145.751 126.916 145.782 127.324C145.792 127.508 145.75 127.692 145.662 127.854C145.598 127.997 145.493 128.118 145.362 128.204L144.112 128.924C143.999 128.997 143.909 128.997 143.842 128.924C143.779 128.874 143.731 128.809 143.702 128.734C143.702 128.734 143.622 128.574 143.532 128.414C143.44 128.234 143.297 128.085 143.122 127.984C142.894 127.854 142.634 127.792 142.372 127.804C141.958 127.832 141.559 127.967 141.212 128.194C140.416 128.669 139.773 129.363 139.362 130.194C138.899 131.128 138.647 132.152 138.622 133.194C138.622 133.814 138.622 134.464 138.622 135.194C138.622 135.924 138.622 136.524 138.622 137.104C138.622 138.404 138.902 139.214 139.362 139.544C139.654 139.698 139.985 139.763 140.314 139.731C140.643 139.699 140.955 139.571 141.212 139.364C141.593 139.141 141.946 138.873 142.262 138.564C142.592 138.245 142.872 137.877 143.092 137.474C143.335 137.02 143.516 136.536 143.632 136.034C143.762 135.433 143.826 134.819 143.822 134.204V134.014L141.942 135.094C141.9 135.13 141.847 135.15 141.792 135.15C141.737 135.15 141.684 135.13 141.642 135.094C141.596 135.043 141.562 134.982 141.542 134.917C141.521 134.851 141.514 134.782 141.522 134.714V133.034C141.523 132.854 141.564 132.676 141.642 132.514C141.7 132.365 141.806 132.238 141.942 132.154L145.482 130.104C145.525 130.07 145.577 130.051 145.632 130.051C145.687 130.051 145.739 130.07 145.782 130.104C145.826 130.156 145.859 130.217 145.88 130.282C145.9 130.347 145.908 130.416 145.902 130.484V133.094C145.902 134.031 145.804 134.966 145.612 135.884C145.422 136.776 145.126 137.642 144.732 138.464C144.332 139.268 143.82 140.012 143.212 140.674C142.644 141.34 141.968 141.904 141.212 142.344C140.612 142.738 139.926 142.982 139.212 143.054C138.683 143.081 138.166 142.898 137.772 142.544C137.349 142.114 137.049 141.579 136.902 140.994C136.686 140.202 136.575 139.385 136.572 138.564C136.572 138.274 136.572 137.944 136.572 137.564C136.572 137.184 136.572 136.834 136.572 136.454C136.572 136.074 136.572 135.694 136.572 135.334C136.572 134.974 136.522 134.644 136.532 134.344Z" fill="#6E6E6E"/>
<path d="M155.402 130.944C155.444 130.912 155.495 130.895 155.547 130.895C155.599 130.895 155.65 130.912 155.692 130.944C155.739 130.994 155.775 131.054 155.798 131.12C155.82 131.185 155.828 131.255 155.822 131.324V133.014C155.822 133.195 155.777 133.374 155.692 133.534C155.637 133.682 155.535 133.809 155.402 133.894L148.642 137.804C148.599 137.838 148.547 137.857 148.492 137.857C148.437 137.857 148.385 137.838 148.342 137.804C148.298 137.752 148.265 137.691 148.244 137.626C148.224 137.561 148.216 137.492 148.222 137.424V122.084C148.225 121.904 148.266 121.727 148.342 121.564C148.403 121.416 148.508 121.291 148.642 121.204L155.282 117.374C155.321 117.337 155.373 117.316 155.427 117.316C155.481 117.316 155.533 117.337 155.572 117.374C155.616 117.426 155.65 117.486 155.671 117.552C155.691 117.617 155.699 117.686 155.692 117.754V119.434C155.692 119.614 155.651 119.792 155.572 119.954C155.517 120.102 155.415 120.229 155.282 120.314L150.282 123.194V126.964L154.922 124.284C154.964 124.252 155.015 124.235 155.067 124.235C155.119 124.235 155.17 124.252 155.212 124.284C155.259 124.334 155.295 124.394 155.318 124.46C155.34 124.525 155.348 124.595 155.342 124.664V126.354C155.342 126.535 155.297 126.714 155.212 126.874C155.157 127.022 155.055 127.149 154.922 127.234L150.282 129.914V133.854L155.402 130.944Z" fill="#6E6E6E"/>
<path d="M169.022 126.054C168.842 126.154 168.712 126.164 168.612 126.054L168.412 125.834L164.102 118.454V128.234C164.102 128.415 164.057 128.594 163.972 128.754C163.917 128.902 163.815 129.029 163.682 129.114L162.432 129.834C162.393 129.871 162.341 129.892 162.287 129.892C162.233 129.892 162.181 129.871 162.142 129.834C162.097 129.782 162.064 129.721 162.043 129.656C162.023 129.591 162.015 129.522 162.022 129.454V114.124C162.024 113.941 162.065 113.76 162.142 113.594C162.2 113.45 162.301 113.328 162.432 113.244L163.512 112.614C163.692 112.514 163.822 112.514 163.912 112.614C163.987 112.676 164.054 112.746 164.112 112.824L168.432 120.204V110.434C168.434 110.251 168.475 110.07 168.552 109.904C168.616 109.758 168.72 109.633 168.852 109.544L170.092 108.824C170.135 108.79 170.187 108.771 170.242 108.771C170.297 108.771 170.349 108.79 170.392 108.824C170.436 108.876 170.469 108.937 170.49 109.002C170.51 109.067 170.518 109.136 170.512 109.204V124.534C170.511 124.714 170.47 124.891 170.392 125.054C170.328 125.2 170.224 125.324 170.092 125.414L169.022 126.054Z" fill="#6E6E6E"/>
<path d="M172.932 113.374C172.962 112.469 173.073 111.569 173.262 110.684C173.443 109.811 173.725 108.962 174.102 108.154C174.47 107.371 174.937 106.638 175.492 105.974C176.056 105.31 176.733 104.751 177.492 104.324C178.089 103.935 178.78 103.717 179.492 103.694C179.75 103.691 180.006 103.74 180.245 103.838C180.483 103.936 180.7 104.081 180.882 104.264C181.288 104.707 181.58 105.242 181.732 105.824C181.94 106.58 182.054 107.36 182.072 108.144C182.072 108.434 182.072 108.764 182.072 109.144C182.072 109.524 182.072 109.884 182.072 110.264C182.072 110.644 182.072 111.034 182.072 111.394C182.072 111.754 182.072 112.104 182.072 112.394C182.042 113.302 181.932 114.205 181.742 115.094C181.556 115.967 181.27 116.816 180.892 117.624C180.528 118.406 180.06 119.136 179.502 119.794C178.932 120.446 178.256 120.997 177.502 121.424C176.904 121.812 176.214 122.033 175.502 122.064C174.984 122.064 174.485 121.864 174.112 121.504C173.701 121.066 173.412 120.528 173.272 119.944C173.07 119.19 172.959 118.414 172.942 117.634C172.942 117.334 172.942 117.014 172.942 116.634C172.942 116.254 172.942 115.894 172.942 115.504C172.942 115.114 172.942 114.744 172.942 114.374C172.942 114.004 172.922 113.684 172.932 113.374ZM179.932 109.464C179.991 108.652 179.733 107.849 179.212 107.224C178.957 107.042 178.648 106.949 178.335 106.962C178.022 106.975 177.722 107.092 177.482 107.294C176.718 107.748 176.111 108.425 175.742 109.234C175.281 110.189 175.036 111.234 175.022 112.294C175.022 112.904 175.022 113.574 175.022 114.294C175.022 115.014 175.022 115.694 175.022 116.294C174.988 116.693 175.034 117.096 175.157 117.477C175.281 117.858 175.48 118.211 175.742 118.514C176.182 118.874 176.742 118.854 177.482 118.434C178.233 117.984 178.834 117.323 179.212 116.534C179.662 115.579 179.907 114.54 179.932 113.484C179.932 112.874 179.932 112.194 179.932 111.484C179.932 110.774 179.942 110.054 179.922 109.464H179.932Z" fill="#6E6E6E"/>
<path d="M191.382 96.5339C191.425 96.4998 191.477 96.4813 191.532 96.4813C191.587 96.4813 191.639 96.4998 191.682 96.5339C191.726 96.5863 191.759 96.6468 191.78 96.712C191.8 96.7772 191.808 96.8458 191.802 96.9139V98.6039C191.801 98.784 191.76 98.9615 191.682 99.1239C191.618 99.2697 191.514 99.3944 191.382 99.4839L188.612 101.084V114.084C188.611 114.264 188.57 114.441 188.492 114.604C188.428 114.75 188.324 114.874 188.192 114.964L186.942 115.684C186.902 115.719 186.85 115.738 186.797 115.738C186.744 115.738 186.692 115.719 186.652 115.684C186.608 115.632 186.575 115.571 186.554 115.506C186.534 115.441 186.526 115.372 186.532 115.304V102.304L183.752 103.904C183.713 103.941 183.661 103.962 183.607 103.962C183.553 103.962 183.501 103.941 183.462 103.904C183.417 103.852 183.384 103.791 183.363 103.726C183.343 103.661 183.335 103.592 183.342 103.524V101.844C183.344 101.661 183.385 101.48 183.462 101.314C183.52 101.17 183.621 101.048 183.752 100.964L191.382 96.5339Z" fill="#6E6E6E"/>
<path d="M204.212 89.1039C204.254 89.068 204.307 89.0483 204.362 89.0483C204.417 89.0483 204.47 89.068 204.512 89.1039C204.556 89.156 204.59 89.2164 204.611 89.2817C204.631 89.347 204.639 89.4158 204.632 89.4839V91.1639C204.63 91.3471 204.589 91.5279 204.512 91.6939C204.451 91.8388 204.346 91.9611 204.212 92.0439L199.292 94.8839V99.5339L203.902 96.8739C203.944 96.838 203.997 96.8183 204.052 96.8183C204.107 96.8183 204.16 96.838 204.202 96.8739C204.246 96.926 204.28 96.9864 204.301 97.0517C204.321 97.117 204.329 97.1858 204.322 97.2539V98.9339C204.322 99.1141 204.281 99.2918 204.202 99.4539C204.147 99.6052 204.041 99.7326 203.902 99.8139L199.322 102.534V107.964C199.322 108.144 199.281 108.322 199.202 108.484C199.147 108.632 199.045 108.759 198.912 108.844L197.662 109.564C197.623 109.601 197.571 109.622 197.517 109.622C197.463 109.622 197.411 109.601 197.372 109.564C197.324 109.514 197.287 109.454 197.264 109.389C197.242 109.323 197.234 109.253 197.242 109.184V93.7839C197.242 93.6026 197.287 93.424 197.372 93.2639C197.427 93.1157 197.529 92.9893 197.662 92.9039L204.212 89.1039Z" fill="#6E6E6E"/>
<path d="M206.342 94.0839C206.372 93.1793 206.483 92.2791 206.672 91.3939C206.853 90.521 207.135 89.672 207.512 88.8639C207.876 88.0787 208.344 87.3455 208.902 86.6839C209.465 86.0191 210.142 85.4604 210.902 85.0339C211.499 84.6467 212.191 84.4289 212.902 84.4039C213.161 84.4007 213.418 84.4506 213.657 84.5503C213.896 84.6501 214.112 84.7976 214.292 84.9839C214.7 85.4217 214.992 85.9545 215.142 86.5339C215.35 87.2904 215.464 88.0696 215.482 88.8539C215.482 89.1439 215.482 89.4739 215.482 89.8539C215.482 90.2339 215.482 90.5939 215.482 90.9739C215.482 91.3539 215.482 91.7439 215.482 92.1139C215.482 92.4839 215.482 92.8139 215.482 93.1139C215.448 94.0189 215.334 94.919 215.142 95.8039C214.96 96.6768 214.679 97.5258 214.302 98.3339C213.938 99.1161 213.47 99.8459 212.912 100.504C212.344 101.158 211.667 101.709 210.912 102.134C210.314 102.522 209.624 102.743 208.912 102.774C208.394 102.774 207.895 102.574 207.522 102.214C207.109 101.777 206.82 101.239 206.682 100.654C206.48 99.8999 206.369 99.1244 206.352 98.3439C206.352 98.0539 206.352 97.7239 206.352 97.3439C206.352 96.9639 206.352 96.6039 206.352 96.2139C206.352 95.8239 206.352 95.4539 206.352 95.0839C206.352 94.7139 206.332 94.3939 206.342 94.0839ZM213.342 90.1739C213.41 89.3659 213.155 88.5638 212.632 87.9439C212.192 87.5639 211.612 87.5839 210.892 88.0039C210.133 88.4616 209.53 89.1378 209.162 89.9439C208.704 90.9 208.458 91.9439 208.442 93.0039C208.442 93.6139 208.442 94.2939 208.442 95.0039C208.442 95.7139 208.442 96.4039 208.442 97.0039C208.408 97.4033 208.454 97.8055 208.577 98.1868C208.701 98.5681 208.9 98.9208 209.162 99.2239C209.592 99.5939 210.162 99.5639 210.892 99.1539C211.649 98.6952 212.254 98.024 212.632 97.2239C213.077 96.2849 213.319 95.2627 213.342 94.2239C213.342 93.6139 213.342 92.9339 213.342 92.2239C213.342 91.5139 213.342 90.7639 213.322 90.1739H213.342Z" fill="#6E6E6E"/>
<path d="M226.212 76.4439C226.251 76.4066 226.303 76.3858 226.357 76.3858C226.411 76.3858 226.463 76.4066 226.502 76.4439C226.546 76.4963 226.579 76.5568 226.6 76.622C226.62 76.6872 226.628 76.7558 226.622 76.8239V86.5339C226.627 87.4811 226.533 88.4262 226.342 89.3539C226.17 90.2248 225.891 91.0712 225.512 91.8739C225.154 92.6444 224.686 93.3587 224.122 93.9939C223.574 94.6238 222.925 95.1577 222.202 95.5739C221.618 95.945 220.952 96.1681 220.262 96.2239C220.009 96.2365 219.755 96.1968 219.518 96.1074C219.281 96.0179 219.064 95.8806 218.882 95.7039C218.471 95.2691 218.187 94.7293 218.062 94.1439C217.867 93.3219 217.777 92.4786 217.792 91.6339V81.9039C217.793 81.7239 217.834 81.5464 217.912 81.3839C217.973 81.2392 218.074 81.1144 218.202 81.0239L219.452 80.3039C219.494 80.268 219.547 80.2483 219.602 80.2483C219.657 80.2483 219.71 80.268 219.752 80.3039C219.796 80.3563 219.829 80.4168 219.85 80.482C219.87 80.5472 219.878 80.6158 219.872 80.6839V90.2939C219.859 90.8225 219.916 91.3504 220.042 91.8639C220.115 92.1883 220.282 92.484 220.522 92.7139C220.625 92.796 220.744 92.8569 220.871 92.8929C220.998 92.929 221.131 92.9395 221.262 92.9239C221.596 92.8778 221.916 92.762 222.202 92.5839C222.567 92.3791 222.903 92.1269 223.202 91.8339C223.503 91.5184 223.753 91.1573 223.942 90.7639C224.163 90.3161 224.328 89.8425 224.432 89.3539C224.557 88.7758 224.618 88.1855 224.612 87.5939V78.0339C224.615 77.854 224.656 77.6768 224.732 77.5139C224.793 77.3692 224.894 77.2444 225.022 77.1539L226.212 76.4439Z" fill="#6E6E6E"/>
<path d="M236.302 87.2139C236.122 87.3139 235.992 87.3139 235.892 87.2139C235.82 87.1495 235.753 87.0793 235.692 87.0039L231.382 79.6239V89.4039C231.382 89.5853 231.337 89.7638 231.252 89.9239C231.191 90.0687 231.09 90.1934 230.962 90.2839L229.712 91.0039C229.672 91.0391 229.62 91.0585 229.567 91.0585C229.514 91.0585 229.462 91.0391 229.422 91.0039C229.378 90.9516 229.345 90.8911 229.324 90.8259C229.304 90.7607 229.296 90.692 229.302 90.6239V75.2739C229.305 75.094 229.346 74.9168 229.422 74.7539C229.483 74.6092 229.584 74.4844 229.712 74.3939L230.792 73.7739C230.972 73.6739 231.102 73.6639 231.192 73.7739C231.265 73.8413 231.332 73.915 231.392 73.9939L235.712 81.3739V71.5339C235.713 71.3539 235.754 71.1764 235.832 71.0139C235.89 70.8674 235.991 70.7419 236.122 70.6539L237.372 69.9339C237.414 69.898 237.467 69.8783 237.522 69.8783C237.577 69.8783 237.63 69.898 237.672 69.9339C237.716 69.9863 237.749 70.0468 237.77 70.112C237.79 70.1772 237.798 70.2458 237.792 70.3139V85.6439C237.792 85.8241 237.751 86.0018 237.672 86.1639C237.614 86.3133 237.508 86.4396 237.372 86.5239L236.302 87.2139Z" fill="#6E6E6E"/>
<path d="M244.802 65.6839C245.403 65.2964 246.09 65.0628 246.802 65.0039C247.058 64.9872 247.315 65.0239 247.556 65.1117C247.797 65.1995 248.017 65.3365 248.202 65.5139C248.622 65.9485 248.919 66.4869 249.062 67.0739C249.28 67.8901 249.401 68.7293 249.422 69.5739C249.475 70.7206 249.475 71.8906 249.422 73.0839C249.387 74.0658 249.266 75.0428 249.062 76.0039C248.874 76.8762 248.589 77.7248 248.212 78.5339C247.852 79.2976 247.387 80.0076 246.832 80.6439C246.277 81.2736 245.621 81.8074 244.892 82.2239L241.002 84.5339C240.96 84.5698 240.907 84.5896 240.852 84.5896C240.797 84.5896 240.744 84.5698 240.702 84.5339C240.658 84.4819 240.624 84.4214 240.603 84.3561C240.583 84.2908 240.575 84.2221 240.582 84.1539V68.7639C240.582 68.5838 240.623 68.4061 240.702 68.2439C240.76 68.0946 240.866 67.9683 241.002 67.8839L244.802 65.6839ZM247.332 70.7739C247.322 70.3345 247.258 69.8979 247.142 69.4739C247.059 69.1504 246.894 68.854 246.662 68.6139C246.56 68.5093 246.437 68.4282 246.3 68.3764C246.164 68.3245 246.018 68.3032 245.872 68.3139C245.466 68.3427 245.074 68.4734 244.732 68.6939L242.662 69.8839V80.5339L244.802 79.3039C245.217 79.0649 245.589 78.7572 245.902 78.3939C246.211 78.0337 246.47 77.6334 246.672 77.2039C246.882 76.7535 247.04 76.2804 247.142 75.7939C247.25 75.2871 247.314 74.7718 247.332 74.2539C247.372 73.1073 247.372 71.9473 247.332 70.7739Z" fill="#6E6E6E"/>
</svg>
