<svg width="331" height="366" viewBox="0 0 331 366" fill="none" xmlns="http://www.w3.org/2000/svg">
<path d="M321.423 0.356133L245.313 44.2261C244.896 44.4966 244.548 44.8625 244.299 45.2937C244.051 45.7249 243.908 46.209 243.883 46.7061V91.8661C243.91 92.3626 244.054 92.8456 244.305 93.2752C244.555 93.7047 244.904 94.0684 245.323 94.3361L250.453 97.2061C250.899 97.4281 251.39 97.5436 251.888 97.5436C252.386 97.5436 252.878 97.4281 253.323 97.2061L329.403 53.3361C329.819 53.0633 330.165 52.6969 330.413 52.2662C330.662 51.8355 330.806 51.3525 330.833 50.8561V5.67613C330.807 5.18099 330.662 4.69937 330.412 4.27145C330.161 3.84352 329.812 3.48168 329.393 3.21613L324.313 0.336136C323.864 0.111747 323.368 -0.00339898 322.866 7.63957e-05C322.364 0.00355177 321.87 0.125547 321.423 0.356133Z" fill="#FF9900"/>
<path d="M251.923 96.3661V51.2061C251.95 50.7094 252.093 50.2259 252.341 49.7949C252.59 49.364 252.937 48.9978 253.353 48.7261L329.433 4.85613C330.223 4.39613 330.863 4.76613 330.863 5.67613V50.8461C330.836 51.3425 330.692 51.8254 330.443 52.2561C330.195 52.6868 329.849 53.0533 329.433 53.3261L253.313 97.1961C252.563 97.6461 251.923 97.2761 251.923 96.3661Z" fill="#FF9900"/>
<path opacity="0.2" d="M253.313 97.1961C252.87 97.4258 252.378 97.5457 251.878 97.5457C251.379 97.5457 250.887 97.4258 250.443 97.1961L245.313 94.3261C244.894 94.0612 244.544 93.6995 244.294 93.2715C244.043 92.8434 243.899 92.3615 243.873 91.8661V46.7061C243.895 46.1888 244.05 45.6858 244.323 45.2461L252.323 49.7961C252.064 50.2219 251.919 50.7077 251.903 51.2061V96.3661C251.923 97.1961 252.513 97.6861 253.313 97.1961Z" fill="#1F1F1F"/>
<path opacity="0.4" d="M330.843 5.41613C330.733 4.69613 330.143 4.41613 329.433 4.85613L253.313 48.7261C252.894 48.9914 252.55 49.3598 252.313 49.7961L244.313 45.2461C244.557 44.8335 244.901 44.4895 245.313 44.2461L321.393 0.366135C321.839 0.144204 322.33 0.0286942 322.828 0.0286942C323.326 0.0286942 323.818 0.144204 324.263 0.366135L329.393 3.24613C329.776 3.48321 330.104 3.79957 330.354 4.1739C330.604 4.54822 330.771 4.97182 330.843 5.41613Z" fill="white"/>
<path d="M243.913 66.3961L232.393 78.1161C232.253 78.2502 232.145 78.4147 232.078 78.597C232.011 78.7793 231.987 78.9746 232.007 79.1678C232.027 79.3609 232.092 79.5469 232.195 79.7113C232.298 79.8757 232.438 80.0142 232.603 80.1161C232.843 80.2661 240.603 84.7061 240.603 84.7061L251.943 71.0461L243.913 66.3961Z" fill="#FF9900"/>
<path opacity="0.1" d="M243.913 66.3961L232.393 78.1161C232.253 78.2502 232.145 78.4147 232.078 78.597C232.011 78.7793 231.987 78.9746 232.007 79.1678C232.027 79.3609 232.092 79.5469 232.195 79.7113C232.298 79.8757 232.438 80.0142 232.603 80.1161C232.843 80.2661 240.603 84.7061 240.603 84.7061L251.943 71.0461L243.913 66.3961Z" fill="#1F1F1F"/>
<path d="M251.923 71.0061L240.403 82.7261C240.217 82.9151 240.094 83.1578 240.053 83.4202C240.011 83.6825 240.053 83.9512 240.172 84.1885C240.292 84.4258 240.482 84.6198 240.717 84.7431C240.953 84.8665 241.22 84.913 241.483 84.8761L251.923 83.3661C253.043 83.3661 253.043 71.0061 251.923 71.0061Z" fill="#FF9900"/>
<path d="M259.463 63.2961C259.52 61.9478 259.707 60.6081 260.023 59.2961C260.344 57.9752 260.81 56.694 261.413 55.4761C262.004 54.2897 262.74 53.1812 263.603 52.1761C264.455 51.187 265.469 50.3515 266.603 49.7061C267.498 49.1136 268.533 48.7686 269.603 48.7061C270.406 48.6894 271.187 48.9628 271.803 49.4761C272.463 50.0695 272.944 50.8348 273.193 51.6861C273.546 52.779 273.734 53.918 273.753 55.0661C273.753 56.0661 273.803 57.0661 273.803 58.2061C273.803 59.3461 273.803 60.3461 273.753 61.3161C273.707 62.6654 273.519 64.006 273.193 65.3161C272.878 66.6449 272.411 67.9332 271.803 69.1561C271.215 70.3493 270.476 71.4618 269.603 72.4661C268.746 73.4405 267.732 74.2651 266.603 74.9061C265.707 75.494 264.673 75.8386 263.603 75.9061C262.802 75.9356 262.02 75.6605 261.413 75.1361C260.76 74.53 260.28 73.7601 260.023 72.9061C259.681 71.8109 259.492 70.6733 259.463 69.5261C259.463 68.5861 259.463 67.5261 259.463 66.4561C259.463 65.3861 259.433 64.3161 259.463 63.2961ZM269.463 63.5861C269.463 63.1561 269.463 62.6861 269.463 62.1561C269.463 61.6261 269.463 61.1061 269.463 60.5661C269.463 60.0261 269.463 59.5161 269.463 59.0161C269.463 58.5161 269.463 58.0861 269.463 57.6961C269.445 57.1948 269.364 56.6977 269.223 56.2161C269.13 55.8429 268.944 55.499 268.683 55.2161C268.444 54.9938 268.13 54.869 267.803 54.8661C267.364 54.8818 266.938 55.0204 266.573 55.2661C266.109 55.5266 265.693 55.8649 265.343 56.2661C264.991 56.6819 264.695 57.1425 264.463 57.6361C264.221 58.1472 264.036 58.6839 263.913 59.2361C263.782 59.8113 263.702 60.3969 263.673 60.9861C263.673 61.4061 263.653 61.8661 263.613 62.3661C263.613 62.8761 263.613 63.3661 263.613 63.9361C263.613 64.5061 263.613 65.0061 263.613 65.5161C263.613 66.0261 263.613 66.5161 263.673 66.8861C263.648 67.7723 263.927 68.6405 264.463 69.3461C264.923 69.8461 265.623 69.8261 266.573 69.2861C267.508 68.7428 268.241 67.9113 268.663 66.9161C269.132 65.8604 269.406 64.729 269.473 63.5761L269.463 63.5861Z" fill="#6E6E6E"/>
<path d="M288.213 51.6462C288.213 51.9862 288.213 52.4362 288.213 52.9862C288.213 53.5362 288.213 53.9862 288.213 54.3462C288.183 55.5118 288.015 56.6698 287.713 57.7961C287.417 58.9412 286.998 60.0509 286.463 61.1061C285.94 62.1319 285.292 63.0892 284.533 63.9562C283.814 64.7841 282.963 65.487 282.013 66.0362C281.258 66.5213 280.39 66.8037 279.493 66.8561C278.799 66.8924 278.116 66.6717 277.573 66.2362C276.993 65.7411 276.558 65.0984 276.313 64.3762C275.99 63.4535 275.821 62.4838 275.813 61.5061C275.813 61.1661 275.813 60.7262 275.813 60.1762C275.813 59.6262 275.813 59.1761 275.813 58.8061C275.837 57.6478 275.998 56.4964 276.293 55.3762C276.588 54.2244 277.014 53.1104 277.563 52.0561C278.089 51.0255 278.737 50.0619 279.493 49.1861C280.209 48.349 281.061 47.639 282.013 47.0861C282.768 46.6003 283.637 46.3211 284.533 46.2761C285.235 46.256 285.922 46.4824 286.473 46.9161C287.057 47.4017 287.491 48.0433 287.723 48.7661C288.041 49.6933 288.207 50.666 288.213 51.6462ZM279.923 58.9661C279.9 59.2818 279.944 59.5988 280.051 59.8967C280.157 60.1946 280.325 60.4669 280.543 60.6961C280.769 60.8329 281.031 60.8968 281.294 60.8789C281.557 60.861 281.809 60.7622 282.013 60.5962C282.65 60.2191 283.162 59.6625 283.483 58.9961C283.869 58.2349 284.084 57.3989 284.113 56.5461C284.113 56.1761 284.163 55.7661 284.163 55.3261C284.163 54.8861 284.163 54.4861 284.113 54.1561C284.135 53.8398 284.09 53.5224 283.982 53.2244C283.873 52.9264 283.703 52.6545 283.483 52.4262C283.113 52.1362 282.623 52.1761 282.013 52.5261C281.377 52.9032 280.865 53.4598 280.543 54.1262C280.161 54.8881 279.95 55.7242 279.923 56.5761C279.885 56.9817 279.869 57.3889 279.873 57.7961C279.867 58.1868 279.884 58.5774 279.923 58.9661Z" fill="#6E6E6E"/>
<path d="M297.753 56.9561C297.393 57.1769 296.997 57.3326 296.583 57.4161C296.3 57.4785 296.007 57.4785 295.723 57.4161C295.494 57.3554 295.282 57.2424 295.103 57.0861C294.949 56.9574 294.811 56.8096 294.693 56.6461V64.1161C294.691 64.3861 294.63 64.6524 294.513 64.8961C294.422 65.1123 294.269 65.2967 294.073 65.4261L291.203 67.0861C291.143 67.1357 291.067 67.1627 290.988 67.1627C290.91 67.1627 290.834 67.1357 290.773 67.0861C290.707 67.0076 290.658 66.9169 290.627 66.8191C290.596 66.7212 290.584 66.6183 290.593 66.5161V43.5161C290.596 43.2461 290.657 42.9799 290.773 42.7361C290.861 42.521 291.011 42.3366 291.203 42.2061L293.963 40.6161C294.022 40.5627 294.099 40.5332 294.178 40.5332C294.258 40.5332 294.335 40.5627 294.393 40.6161C294.461 40.692 294.512 40.7807 294.545 40.8769C294.578 40.9731 294.591 41.0748 294.583 41.1761V41.9861C294.713 41.6761 294.863 41.3361 295.023 40.9861C295.192 40.6372 295.39 40.3027 295.613 39.9861C295.869 39.6243 296.16 39.2893 296.483 38.9861C296.866 38.6237 297.292 38.3112 297.753 38.0561C298.337 37.6933 298.999 37.474 299.683 37.4161C299.973 37.3942 300.265 37.4317 300.54 37.5263C300.815 37.6209 301.068 37.7705 301.283 37.9661C301.808 38.4835 302.191 39.1276 302.393 39.8361C302.705 40.9116 302.86 42.0264 302.853 43.1461C302.853 43.4961 302.853 43.9561 302.853 44.5561C302.853 45.1561 302.853 45.6361 302.853 45.9961C302.838 47.2922 302.683 48.5828 302.393 49.8461C302.138 50.933 301.766 51.9891 301.283 52.9961C300.862 53.8686 300.324 54.6795 299.683 55.4061C299.123 56.0182 298.472 56.5409 297.753 56.9561ZM298.753 47.8661C298.806 47.2005 298.806 46.5318 298.753 45.8661C298.754 45.2164 298.574 44.5793 298.233 44.0261C297.927 43.5861 297.417 43.5861 296.703 44.0261C296.37 44.2166 296.075 44.4676 295.833 44.7661C295.594 45.074 295.392 45.4098 295.233 45.7661C295.073 46.1236 294.945 46.4952 294.853 46.8761C294.765 47.2477 294.705 47.6255 294.673 48.0061C294.673 48.3661 294.623 48.7861 294.623 49.2561C294.623 49.7261 294.623 50.1261 294.673 50.4561C294.699 50.7686 294.759 51.0772 294.853 51.3761C294.931 51.6242 295.06 51.8527 295.233 52.0461C295.309 52.1334 295.4 52.2048 295.503 52.2563C295.606 52.3078 295.719 52.3383 295.833 52.3461C296.142 52.3557 296.447 52.2683 296.703 52.0961C297.405 51.6941 297.945 51.0616 298.233 50.3061C298.542 49.5267 298.724 48.703 298.773 47.8661H298.753Z" fill="#6E6E6E"/>
<path d="M311.973 42.9161C311.973 42.6561 311.923 42.4861 311.803 42.4161C311.617 42.3405 311.409 42.3405 311.223 42.4161C310.857 42.5135 310.497 42.6304 310.143 42.7661C309.693 42.9261 309.143 43.1161 308.463 43.3061C308.024 43.4945 307.54 43.5551 307.068 43.4808C306.596 43.4065 306.154 43.2004 305.793 42.8861C305.07 41.9391 304.738 40.751 304.863 39.5661C304.868 38.7377 305 37.9148 305.253 37.1261C305.52 36.284 305.882 35.4753 306.333 34.7161C306.799 33.9216 307.364 33.1892 308.013 32.5361C308.66 31.8704 309.393 31.2952 310.193 30.8261C310.866 30.4194 311.609 30.1413 312.383 30.0061C312.965 29.9092 313.561 29.9503 314.123 30.1261C314.598 30.2965 315.003 30.6202 315.273 31.0461C315.561 31.4955 315.723 32.0133 315.743 32.5461C315.749 32.8138 315.687 33.0786 315.563 33.3161C315.474 33.5336 315.321 33.7186 315.123 33.8461L312.413 35.4161C312.243 35.5161 312.113 35.5361 312.013 35.4761C311.898 35.4047 311.778 35.3412 311.653 35.2861C311.485 35.2222 311.303 35.1983 311.123 35.2161C310.793 35.2672 310.476 35.3864 310.193 35.5661C309.861 35.7579 309.566 36.0087 309.323 36.3061C309.083 36.5829 308.954 36.9396 308.963 37.3061C308.945 37.4911 308.987 37.6771 309.083 37.8361C309.153 37.9361 309.313 37.9561 309.533 37.9061C309.872 37.8276 310.206 37.7308 310.533 37.6161L312.153 37.0661C313.533 36.6161 314.543 36.7561 315.153 37.4861C315.848 38.3984 316.186 39.5326 316.103 40.6761C316.097 41.5078 315.966 42.3337 315.713 43.1261C315.44 43.9977 315.057 44.831 314.573 45.6061C314.06 46.4424 313.449 47.2145 312.753 47.9061C312.025 48.6326 311.204 49.2612 310.313 49.7761C309.579 50.2372 308.759 50.5466 307.903 50.6861C307.316 50.7875 306.712 50.7181 306.163 50.4861C305.703 50.277 305.321 49.9268 305.073 49.4861C304.819 49.0326 304.675 48.5256 304.653 48.0061C304.644 47.7424 304.702 47.4806 304.823 47.2461C304.919 47.0268 305.075 46.8394 305.273 46.7061L308.093 45.0761C308.263 44.9761 308.383 44.9761 308.463 45.0761C308.548 45.1765 308.649 45.2612 308.763 45.3261C308.921 45.4161 309.102 45.4578 309.283 45.4461C309.642 45.3877 309.983 45.2511 310.283 45.0461C310.732 44.7844 311.132 44.4459 311.463 44.0461C311.773 43.7495 311.956 43.3445 311.973 42.9161Z" fill="#6E6E6E"/>
<path d="M322.483 33.8261C322.482 34.0931 322.421 34.3563 322.303 34.5961C322.221 34.8146 322.07 35.0006 321.873 35.1261L318.993 36.7861C318.935 36.8395 318.858 36.8691 318.778 36.8691C318.699 36.8691 318.622 36.8395 318.563 36.7861C318.497 36.7097 318.447 36.6208 318.416 36.5245C318.385 36.4283 318.374 36.3268 318.383 36.2261V21.0661C318.385 20.7992 318.446 20.5359 318.563 20.2961C318.649 20.0794 318.799 19.8943 318.993 19.7661L321.873 18.1061C321.932 18.0527 322.009 18.0232 322.088 18.0232C322.168 18.0232 322.245 18.0527 322.303 18.1061C322.37 18.1825 322.42 18.2715 322.451 18.3678C322.482 18.464 322.493 18.5655 322.483 18.6661V33.8261ZM322.483 41.3761C322.481 41.643 322.42 41.906 322.303 42.1461C322.218 42.3629 322.068 42.548 321.873 42.6761L318.993 44.3361C318.935 44.3895 318.858 44.4191 318.778 44.4191C318.699 44.4191 318.622 44.3895 318.563 44.3361C318.497 44.2597 318.447 44.1708 318.416 44.0745C318.385 43.9783 318.374 43.8768 318.383 43.7761V40.2261C318.386 39.9593 318.447 39.6963 318.563 39.4561C318.649 39.2394 318.799 39.0543 318.993 38.9261L321.873 37.2661C321.932 37.2127 322.009 37.1831 322.088 37.1831C322.168 37.1831 322.245 37.2127 322.303 37.2661C322.37 37.3425 322.42 37.4315 322.451 37.5278C322.482 37.624 322.493 37.7255 322.483 37.8261V41.3761Z" fill="#6E6E6E"/>
<path d="M3.53482 257.776C9.31482 255.696 23.1548 253.656 46.2848 251.976C76.6848 249.766 84.4948 248.176 86.3448 254.596L120.985 247.916C120.735 239.786 125.985 231.606 136.725 225.406C157.725 213.276 191.795 213.276 212.805 225.406C233.815 237.536 233.805 257.206 212.805 269.336C200.575 276.396 183.925 279.336 167.995 278.176L143.545 306.396C143.545 306.396 147.195 308.656 142.545 315.006C137.545 321.826 112.085 356.326 108.155 359.716C101.965 365.056 90.0248 368.876 73.3548 359.396C54.2948 348.556 73.9148 338.396 85.0648 330.746C98.5448 321.486 127.495 301.796 131.155 299.126C133.945 297.126 136.795 299.916 136.795 299.916L157.565 276.806C150.249 275.475 143.202 272.951 136.705 269.336C128.655 264.686 123.705 258.936 121.825 252.926L87.7548 259.716C87.7548 259.716 89.3148 262.716 82.1048 264.716C75.9348 266.386 29.5648 278.186 21.2948 277.176C13.2348 276.176 6.73483 271.476 2.66483 266.776C-2.31517 260.976 0.694821 258.806 3.53482 257.776Z" fill="#E0E0E0"/>
<path d="M77.2048 252.416C77.5837 252.417 77.9619 252.384 78.3348 252.316L142.055 240.316C143.621 240.019 145.005 239.112 145.902 237.795C146.8 236.477 147.137 234.857 146.84 233.291C146.543 231.725 145.636 230.341 144.318 229.444C143.001 228.546 141.381 228.209 139.815 228.506L76.0947 240.506C74.5947 240.751 73.2435 241.556 72.3139 242.758C71.3843 243.96 70.9457 245.471 71.0866 246.984C71.2275 248.497 71.9375 249.901 73.0731 250.911C74.2087 251.921 75.6853 252.463 77.2048 252.426V252.416Z" fill="#6E6E6E"/>
<path d="M87.1648 238.406C92.4848 237.406 95.0848 249.146 90.8648 249.946" stroke="#37474F" stroke-width="1.2" stroke-linecap="round" stroke-linejoin="round"/>
<path d="M97.7848 236.396C103.095 235.396 105.705 247.136 101.475 247.936" stroke="#37474F" stroke-width="1.2" stroke-linecap="round" stroke-linejoin="round"/>
<path d="M108.395 234.396C113.715 233.396 116.315 245.136 112.095 245.936" stroke="#37474F" stroke-width="1.2" stroke-linecap="round" stroke-linejoin="round"/>
<path d="M118.985 232.386C124.295 231.386 126.905 243.126 122.675 243.926" stroke="#37474F" stroke-width="1.2" stroke-linecap="round" stroke-linejoin="round"/>
<path d="M129.625 230.376C134.945 229.376 137.545 241.116 133.315 241.916" stroke="#37474F" stroke-width="1.2" stroke-linecap="round" stroke-linejoin="round"/>
<path opacity="0.15" d="M146.985 234.396C146.981 235.792 146.491 237.143 145.598 238.216C144.705 239.289 143.467 240.018 142.095 240.276L78.3748 252.276C78.002 252.344 77.6237 252.377 77.2448 252.376C75.8441 252.376 74.4873 251.887 73.4097 250.992C72.3321 250.097 71.6016 248.853 71.3448 247.476V247.266L146.985 234.396Z" fill="#1F1F1F"/>
<path d="M8.56478 199.936C13.3248 198.676 20.8148 198.286 27.1248 203.316C32.2648 207.416 38.2048 225.906 40.1948 232.316L73.8848 232.236C75.7372 232.465 77.4662 233.286 78.8148 234.576C84.4548 240.176 85.5248 246.436 85.0448 252.396C84.7448 256.076 82.2448 258.616 80.4548 258.926C79.9148 259.036 35.5948 268.006 29.3048 269.116C18.8348 270.966 21.1148 270.946 14.9248 262.066C10.8548 256.236 10.8548 247.616 10.8548 241.916C10.8548 236.216 8.29479 226.786 6.13479 219.396C3.97479 212.006 3.80478 201.196 8.56478 199.936Z" fill="#FF9900"/>
<path opacity="0.15" d="M15.3248 200.066C20.9248 202.146 24.3948 207.066 26.0948 214.596C27.7948 222.126 26.2848 228.356 27.8748 239.226C28.9339 245.144 30.819 250.883 33.4748 256.276C35.6348 260.366 38.7048 262.066 44.4748 261.066C50.2448 260.066 70.6248 257.066 75.9548 254.596C77.4562 253.927 78.7243 252.826 79.597 251.433C80.4698 250.04 80.9077 248.419 80.8548 246.776C77.3981 246.758 73.9719 246.129 70.7348 244.916C66.1848 242.996 66.5248 240.816 66.6648 239.626L72.1648 232.236H73.8648C75.7172 232.465 77.4462 233.286 78.7948 234.576C84.4348 240.176 85.5048 246.436 85.0248 252.396C84.7248 256.076 82.2248 258.616 80.4348 258.926C79.8948 259.036 35.5748 268.006 29.2848 269.116C18.8148 270.966 21.0948 270.946 14.9048 262.066C10.8348 256.236 10.8348 247.616 10.8348 241.916C10.8348 236.216 8.27483 226.786 6.11483 219.396C5.38501 216.858 4.92579 214.251 4.74483 211.616C8.98483 204.676 13.1448 199.246 15.3248 200.066Z" fill="#1F1F1F"/>
<path d="M8.56477 199.936L9.4948 199.706C10.5238 199.481 11.5658 199.321 12.6148 199.226C19.8048 200.666 23.1948 207.026 24.2248 215.766C25.2548 224.506 24.3148 234.296 24.9548 240.386C25.5948 246.476 29.3848 256.276 29.1348 262.746C29.1731 265.195 28.419 267.591 26.9848 269.576C19.1948 270.946 20.6348 270.246 14.9848 262.106C10.9148 256.276 10.9148 247.656 10.9148 241.956C10.9148 236.256 8.35478 226.826 6.19478 219.436C4.03478 212.046 3.80477 201.196 8.56477 199.936Z" fill="#6E6E6E"/>
<path opacity="0.15" d="M40.1948 232.316C41.5777 237.815 42.6494 243.387 43.4049 249.006C44.1683 243.469 44.1683 237.853 43.4049 232.316H40.1948Z" fill="#1F1F1F"/>
<path d="M18.9848 209.926C22.2548 218.326 20.9848 231.086 21.7048 239.346C22.4248 247.606 26.1648 259.166 25.5948 263.536C25.0248 267.906 22.8349 270.956 19.4949 269.006C17.7312 267.69 16.3026 265.977 15.3248 264.006C14.3248 262.076 13.6349 260.006 13.1549 258.816C10.8449 253.336 10.8448 246.626 10.8448 241.906C10.8448 236.206 8.28486 226.776 6.12486 219.386C4.50486 213.856 4.00484 206.386 5.85484 202.506C7.29484 199.306 15.3948 200.696 18.9848 209.926Z" fill="#37474F"/>
<path d="M21.4248 230.986C21.4248 231.376 21.4248 231.766 21.4248 232.156L7.4248 224.086C7.3048 223.626 7.1748 223.166 7.0448 222.706L21.4248 230.986Z" fill="#313131"/>
<path d="M5.56482 203.206L19.4348 211.206C19.5748 211.656 19.7048 212.116 19.8348 212.596L5.25482 204.176C5.34482 203.846 5.45482 203.516 5.56482 203.206Z" fill="#313131"/>
<path d="M8.98477 230.026L21.5648 237.286C21.5648 237.696 21.6148 238.096 21.6348 238.486L9.30478 231.366C9.21478 230.916 9.10477 230.476 8.98477 230.026Z" fill="#313131"/>
<path d="M23.9848 252.226L10.8548 244.646C10.8548 244.256 10.8548 243.866 10.8548 243.486L23.7148 250.916C23.8048 251.356 23.8948 251.796 23.9848 252.226Z" fill="#313131"/>
<path d="M21.3048 224.716V225.886L5.43481 216.726C5.34481 216.296 5.26481 215.866 5.18481 215.426L21.3048 224.716Z" fill="#313131"/>
<path d="M22.3248 243.926C22.4048 244.356 22.4748 244.786 22.5548 245.216L10.5548 238.306C10.5048 237.896 10.4448 237.476 10.3848 237.056L22.3248 243.926Z" fill="#313131"/>
<path d="M4.68481 210.066C4.68481 209.676 4.68481 209.286 4.68481 208.906L20.8548 218.246C20.8548 218.656 20.9448 219.056 20.9848 219.476L4.68481 210.066Z" fill="#313131"/>
<path d="M12.9248 258.266C12.7448 257.786 12.5848 257.266 12.4248 256.816L25.4248 264.336C25.3522 264.677 25.2518 265.011 25.1248 265.336L12.9248 258.266Z" fill="#313131"/>
<path d="M11.2548 251.136C11.2548 250.716 11.1548 250.306 11.1148 249.896L25.1148 258.016C25.1948 258.456 25.2648 258.886 25.3248 259.296L11.2548 251.136Z" fill="#313131"/>
<path d="M81.0848 244.226C73.3048 244.966 66.9848 242.136 66.6848 239.626C66.6848 239.626 64.8048 229.146 78.6848 228.026C92.5648 226.906 92.9448 237.076 92.9448 237.076C92.9848 239.476 88.8748 243.496 81.0848 244.226Z" fill="#FF9900"/>
<path opacity="0.7" d="M81.0848 244.226C73.3048 244.966 66.9848 242.136 66.6848 239.626C66.6848 239.626 64.8048 229.146 78.6848 228.026C92.5648 226.906 92.9448 237.076 92.9448 237.076C92.9848 239.476 88.8748 243.496 81.0848 244.226Z" fill="white"/>
<path d="M66.6848 239.626C66.4929 238.199 66.6213 236.746 67.0606 235.375C67.5 234.003 68.2392 232.746 69.2248 231.696C68.6948 232.696 66.4748 237.796 74.6048 240.136C83.6648 242.726 91.9748 237.036 92.4348 234.796C92.7031 235.53 92.8713 236.297 92.9348 237.076C92.9348 239.476 88.8748 243.496 81.0848 244.226C73.2948 244.956 66.9848 242.136 66.6848 239.626Z" fill="#FF9900"/>
<path opacity="0.05" d="M66.6848 239.626C66.4929 238.199 66.6213 236.746 67.0606 235.375C67.5 234.003 68.2392 232.746 69.2248 231.696C68.6948 232.696 66.4748 237.796 74.6048 240.136C83.6648 242.726 91.9748 237.036 92.4348 234.796C92.7031 235.53 92.8713 236.297 92.9348 237.076C92.9348 239.476 88.8748 243.496 81.0848 244.226C73.2948 244.956 66.9848 242.136 66.6848 239.626Z" fill="#1F1F1F"/>
<path d="M96.3248 143.626C96.5248 141.456 97.3248 136.946 101.115 135.166C104.905 133.386 106.955 135.166 106.415 136.826C105.875 138.486 101.965 139.016 101.805 144.716C101.805 144.716 98.4048 146.186 96.3248 143.626Z" fill="#6E6E6E"/>
<path opacity="0.15" d="M99.6248 142.746C99.8361 141.53 100.302 140.373 100.991 139.349C101.68 138.326 102.578 137.459 103.625 136.806C104.835 135.856 105.025 134.866 103.625 134.446C105.785 134.256 106.855 135.566 106.445 136.826C105.895 138.516 101.995 139.016 101.835 144.716C101.055 145.021 100.221 145.16 99.3848 145.126C99.4048 144.416 99.4948 143.576 99.6248 142.746Z" fill="#1F1F1F"/>
<path d="M104.465 147.576C102.015 142.576 94.2348 141.936 88.1848 147.576C79.1048 156.046 77.6148 164.436 81.4448 168.896C85.2748 173.356 91.1248 172.076 96.3248 167.396C100.325 163.766 107.985 154.746 104.465 147.576Z" fill="#FF9900"/>
<path opacity="0.1" d="M81.4448 168.876C80.2513 167.453 79.5653 165.672 79.4949 163.816C79.9649 166.316 81.2249 168.086 82.9249 168.686C85.0049 169.426 88.7048 170.576 94.8448 164.226C100.985 157.876 104.205 147.326 100.025 143.956C100.977 144.21 101.864 144.662 102.629 145.282C103.394 145.903 104.02 146.677 104.465 147.556C108.005 154.746 100.325 163.766 96.3249 167.376C91.1249 172.056 85.2748 173.346 81.4448 168.876Z" fill="#1F1F1F"/>
<path d="M117.575 166.906C132.965 158.716 141.345 154.626 148.925 158.556L152.615 151.436C140.945 145.386 129.565 151.436 113.805 159.836L117.575 166.906Z" fill="#6E6E6E"/>
<path d="M139.455 149.216C137.455 150.626 136.455 154.996 138.455 157.576" stroke="#37474F" stroke-width="1.02" stroke-linecap="round" stroke-linejoin="round"/>
<path d="M129.635 152.016C128.235 153.166 127.285 157.866 129.985 160.616" stroke="#37474F" stroke-width="1.02" stroke-linecap="round" stroke-linejoin="round"/>
<path opacity="0.15" d="M148.925 158.576C141.345 154.646 132.925 158.736 117.575 166.926L116.015 164.006C119.537 161.752 123.213 159.747 127.015 158.006C137.845 153.106 141.965 152.556 150.455 155.726L148.925 158.576Z" fill="#1F1F1F"/>
<path d="M153.193 168.617C146.56 165.87 143.41 158.265 146.158 151.632C148.905 144.999 156.51 141.849 163.143 144.596C169.776 147.344 172.926 154.948 170.178 161.582C167.431 168.215 159.826 171.365 153.193 168.617Z" fill="#FF9900"/>
<path opacity="0.25" d="M153.193 168.617C146.56 165.87 143.41 158.265 146.158 151.632C148.905 144.999 156.51 141.849 163.143 144.596C169.776 147.344 172.926 154.948 170.178 161.582C167.431 168.215 159.826 171.365 153.193 168.617Z" fill="#1F1F1F"/>
<path d="M171.035 259.996C153.174 259.996 138.695 245.517 138.695 227.656C138.695 209.795 153.174 195.316 171.035 195.316C188.896 195.316 203.375 209.795 203.375 227.656C203.375 245.517 188.896 259.996 171.035 259.996Z" fill="#FF9900"/>
<path opacity="0.35" d="M171.035 259.996C153.174 259.996 138.695 245.517 138.695 227.656C138.695 209.795 153.174 195.316 171.035 195.316C188.896 195.316 203.375 209.795 203.375 227.656C203.375 245.517 188.896 259.996 171.035 259.996Z" fill="#1F1F1F"/>
<path opacity="0.15" d="M168.985 252.996C176.985 252.076 180.805 247.246 180.805 247.246C180.805 247.246 152.745 247.326 139.305 221.246C140.289 216.412 142.364 211.866 145.373 207.956C148.381 204.046 152.244 200.876 156.665 198.686L194.455 205.406C197.567 208.703 199.952 212.617 201.454 216.894C202.956 221.172 203.541 225.717 203.173 230.236C202.805 234.754 201.49 239.145 199.316 243.123C197.141 247.101 194.154 250.577 190.549 253.325C186.943 256.074 182.801 258.034 178.389 259.079C173.977 260.123 169.395 260.228 164.94 259.387C160.486 258.546 156.257 256.777 152.53 254.197C148.803 251.616 145.66 248.28 143.305 244.406C149.765 251.996 160.865 253.946 168.985 252.996Z" fill="#1F1F1F"/>
<path d="M139.565 210.376L139.735 210.036C139.785 209.946 139.825 209.856 139.865 209.776C143.46 202.033 146.406 194.006 148.675 185.776C151.291 176.046 152.847 166.061 153.315 155.996H227.855C227.855 183.916 222.495 211.346 210.285 232.576C208.205 236.666 203.805 240.046 197.285 242.026C181.195 246.896 158.215 241.516 145.955 230.026C138.855 223.426 136.905 216.226 139.565 210.376Z" fill="#FF9900"/>
<path opacity="0.1" d="M147.735 231.636C152.955 235.476 164.795 240.246 173.655 240.166C183.795 240.066 204.125 234.446 211.395 218.576C218.665 202.706 220.985 173.346 220.985 173.346C220.985 173.346 212.375 178.286 192.885 177.806L195.435 156.026H227.835C227.835 183.946 222.475 211.376 210.265 232.606C208.185 236.696 203.785 240.076 197.265 242.056C181.925 246.696 160.345 242.026 147.735 231.636Z" fill="#1F1F1F"/>
<path d="M143.825 200.406C143.925 200.136 144.035 199.866 144.135 199.586C144.235 199.306 144.255 199.266 144.325 199.106V198.996C145.675 195.346 147.175 190.916 148.635 185.806C150.236 180.015 151.423 174.116 152.185 168.156V168.076C151.355 174.126 154.945 180.356 162.985 184.986C172.585 190.526 186.125 192.426 198.405 190.646C196.965 204.416 192.325 218.906 184.685 229.826C172.685 230.706 158.595 226.256 150.615 218.826C144.125 212.646 141.985 206.006 143.825 200.406Z" fill="#37474F"/>
<path d="M145.725 199.676C145.825 199.416 145.915 199.136 146.015 198.856L146.195 198.376V198.266C147.475 194.586 148.895 190.126 150.245 184.996C151.241 181.177 152.035 177.308 152.625 173.406C153.875 177.646 157.325 181.716 163.005 184.986C172.605 190.526 186.145 192.426 198.425 190.646C197.085 203.406 193.005 216.766 186.335 227.346C174.675 228.076 160.675 224.926 152.895 217.926C146.265 211.916 143.985 205.316 145.725 199.676Z" fill="#6E6E6E"/>
<path d="M167.805 196.266L171.565 194.566C171.565 194.566 185.295 197.776 193.565 197.006C193.511 201.117 192.981 205.207 191.985 209.196C191.029 213.006 189.513 216.652 187.485 220.016L183.155 222.116L167.805 196.266Z" fill="#313131"/>
<path d="M190.495 200.436C190.495 205.666 186.165 218.526 183.145 222.116C183.145 222.116 167.975 221.406 161.445 215.426C161.655 213.756 167.805 196.266 167.805 196.266C171.815 199.226 183.665 200.446 190.495 200.436Z" fill="#37474F"/>
<path d="M166.195 214.616C165.361 214.616 164.685 213.94 164.685 213.106C164.685 212.272 165.361 211.596 166.195 211.596C167.029 211.596 167.705 212.272 167.705 213.106C167.705 213.94 167.029 214.616 166.195 214.616Z" fill="#FF9900"/>
<path d="M170.825 215.356C170.416 215.356 170.085 215.025 170.085 214.616C170.085 214.207 170.416 213.876 170.825 213.876C171.234 213.876 171.565 214.207 171.565 214.616C171.565 215.025 171.234 215.356 170.825 215.356Z" fill="#FF9900"/>
<path d="M166.915 204.696C166.981 204.71 167.049 204.71 167.115 204.696C167.212 204.696 167.308 204.668 167.39 204.615C167.472 204.562 167.536 204.486 167.575 204.396C167.622 204.272 167.621 204.135 167.571 204.013C167.521 203.89 167.426 203.791 167.305 203.736C166.642 203.46 166.102 202.95 165.789 202.304C165.476 201.657 165.41 200.918 165.605 200.226L169.135 187.806C168.825 187.686 168.505 187.566 168.205 187.436L164.645 199.956C164.371 200.887 164.452 201.886 164.871 202.761C165.29 203.637 166.018 204.326 166.915 204.696Z" fill="#FF9900"/>
<path d="M172.985 206.626C173.051 206.64 173.119 206.64 173.185 206.626C173.283 206.624 173.379 206.594 173.461 206.539C173.542 206.484 173.606 206.407 173.645 206.316C173.692 206.192 173.691 206.055 173.641 205.933C173.591 205.81 173.496 205.711 173.375 205.656C172.714 205.38 172.177 204.872 171.866 204.227C171.555 203.582 171.49 202.845 171.685 202.156L175.235 189.636L174.235 189.396L170.685 201.886C170.413 202.821 170.498 203.823 170.923 204.699C171.348 205.574 172.083 206.261 172.985 206.626Z" fill="#FF9900"/>
<path d="M178.985 208.576C179.047 208.59 179.112 208.59 179.175 208.576C179.274 208.578 179.372 208.551 179.456 208.498C179.539 208.444 179.605 208.367 179.645 208.276C179.692 208.152 179.691 208.015 179.641 207.893C179.591 207.77 179.496 207.671 179.375 207.616C178.712 207.34 178.174 206.83 177.862 206.183C177.551 205.536 177.487 204.797 177.685 204.106L181.465 190.796L180.465 190.666L176.735 203.836C176.458 204.765 176.534 205.763 176.95 206.638C177.365 207.513 178.09 208.204 178.985 208.576Z" fill="#FF9900"/>
<g opacity="0.3">
<path d="M166.915 204.696C166.981 204.71 167.049 204.71 167.115 204.696C167.212 204.696 167.308 204.668 167.39 204.615C167.472 204.562 167.536 204.486 167.575 204.396C167.622 204.272 167.621 204.135 167.571 204.013C167.521 203.89 167.426 203.791 167.305 203.736C166.642 203.46 166.102 202.95 165.789 202.304C165.476 201.657 165.41 200.918 165.605 200.226L169.135 187.806C168.825 187.686 168.505 187.566 168.205 187.436L164.645 199.956C164.371 200.887 164.452 201.886 164.871 202.761C165.29 203.637 166.018 204.326 166.915 204.696Z" fill="#1F1F1F"/>
<path d="M172.985 206.626C173.051 206.64 173.119 206.64 173.185 206.626C173.283 206.624 173.379 206.594 173.461 206.539C173.542 206.484 173.606 206.407 173.645 206.316C173.692 206.192 173.691 206.055 173.641 205.933C173.591 205.81 173.496 205.711 173.375 205.656C172.714 205.38 172.177 204.872 171.866 204.227C171.555 203.582 171.49 202.845 171.685 202.156L175.235 189.636L174.235 189.396L170.685 201.886C170.413 202.821 170.498 203.823 170.923 204.699C171.348 205.574 172.083 206.261 172.985 206.626Z" fill="#1F1F1F"/>
<path d="M178.985 208.576C179.047 208.59 179.112 208.59 179.175 208.576C179.274 208.578 179.372 208.551 179.456 208.498C179.539 208.444 179.605 208.367 179.645 208.276C179.692 208.152 179.691 208.015 179.641 207.893C179.591 207.77 179.496 207.671 179.375 207.616C178.712 207.34 178.174 206.83 177.862 206.183C177.551 205.536 177.487 204.797 177.685 204.106L181.465 190.796L180.465 190.666L176.735 203.836C176.458 204.765 176.534 205.763 176.95 206.638C177.365 207.513 178.09 208.204 178.985 208.576Z" fill="#1F1F1F"/>
</g>
<path d="M162.985 184.986C163.755 185.436 164.565 185.846 165.385 186.246C164.505 190.716 162.885 197.666 161.245 201.436C161.245 201.436 153.245 199.016 150.595 193.756C152.289 188.455 153.625 183.046 154.595 177.566C156.788 180.648 159.658 183.186 162.985 184.986Z" fill="#37474F"/>
<path d="M155.705 183.856C155.705 184.028 155.756 184.196 155.851 184.339C155.947 184.483 156.083 184.594 156.242 184.66C156.401 184.726 156.576 184.743 156.745 184.709C156.913 184.676 157.068 184.593 157.19 184.471C157.312 184.35 157.395 184.195 157.428 184.026C157.462 183.857 157.444 183.682 157.379 183.523C157.313 183.364 157.201 183.228 157.058 183.133C156.915 183.037 156.747 182.986 156.575 182.986C156.461 182.986 156.348 183.009 156.242 183.052C156.136 183.096 156.04 183.16 155.96 183.241C155.879 183.322 155.815 183.418 155.771 183.523C155.727 183.629 155.705 183.742 155.705 183.856Z" fill="#FF9900"/>
<path d="M154.475 187.806C154.475 187.979 154.526 188.147 154.622 188.29C154.718 188.434 154.855 188.545 155.014 188.611C155.174 188.676 155.349 188.693 155.518 188.659C155.687 188.624 155.842 188.54 155.964 188.418C156.085 188.295 156.167 188.139 156.199 187.97C156.232 187.8 156.213 187.625 156.146 187.466C156.078 187.307 155.965 187.172 155.821 187.078C155.677 186.983 155.507 186.934 155.335 186.936C155.221 186.936 155.108 186.959 155.003 187.003C154.898 187.046 154.803 187.111 154.723 187.192C154.643 187.272 154.58 187.368 154.537 187.474C154.495 187.579 154.474 187.692 154.475 187.806Z" fill="#FF9900"/>
<path d="M152.735 191.826C152.735 191.998 152.786 192.166 152.882 192.309C152.977 192.453 153.113 192.564 153.272 192.63C153.431 192.696 153.606 192.713 153.775 192.679C153.943 192.646 154.098 192.563 154.22 192.441C154.342 192.32 154.425 192.165 154.458 191.996C154.492 191.827 154.475 191.652 154.409 191.493C154.343 191.334 154.231 191.198 154.088 191.103C153.945 191.007 153.777 190.956 153.605 190.956C153.374 190.956 153.153 191.048 152.99 191.211C152.827 191.374 152.735 191.595 152.735 191.826Z" fill="#FF9900"/>
<path d="M159.865 198.306C159.965 198.306 160.063 198.277 160.147 198.222C160.23 198.167 160.296 198.088 160.335 197.996C161.476 194.451 162.404 190.842 163.115 187.186C163.135 187.055 163.104 186.921 163.027 186.813C162.951 186.705 162.835 186.631 162.705 186.606C162.573 186.588 162.439 186.622 162.331 186.7C162.223 186.779 162.149 186.895 162.125 187.026C161.421 190.592 160.513 194.115 159.405 197.576C159.355 197.698 159.356 197.835 159.406 197.957C159.457 198.078 159.553 198.175 159.675 198.226C159.731 198.267 159.796 198.294 159.865 198.306Z" fill="#FF9900"/>
<path d="M157.115 196.576C157.215 196.576 157.313 196.547 157.397 196.492C157.48 196.437 157.546 196.358 157.585 196.266C158.721 192.72 159.649 189.11 160.365 185.456C160.387 185.324 160.356 185.187 160.279 185.078C160.201 184.968 160.082 184.894 159.95 184.871C159.817 184.849 159.681 184.88 159.571 184.957C159.462 185.035 159.387 185.154 159.365 185.286C158.665 188.866 157.757 192.402 156.645 195.876C156.595 196 156.595 196.138 156.645 196.261C156.696 196.385 156.793 196.483 156.915 196.536C156.979 196.56 157.047 196.573 157.115 196.576Z" fill="#FF9900"/>
<path d="M92.2548 189.896C92.2548 189.896 98.7448 200.186 113.725 205.666C122.156 208.685 131.119 209.938 140.055 209.346C143.546 201.741 146.425 193.869 148.665 185.806C150.27 180.016 151.456 174.117 152.215 168.156C152.215 168.156 140.655 169.656 128.275 161.906C114.155 153.076 110.925 143.606 110.925 143.606C102.165 155.956 95.9848 171.516 92.2548 189.896Z" fill="#FF9900"/>
<path opacity="0.25" d="M92.2548 189.896C92.2548 189.896 98.7448 200.186 113.725 205.666C122.156 208.685 131.119 209.938 140.055 209.346C143.546 201.741 146.425 193.869 148.665 185.806C150.27 180.016 151.456 174.117 152.215 168.156C152.215 168.156 140.655 169.656 128.275 161.906C114.155 153.076 110.925 143.606 110.925 143.606C102.165 155.956 95.9848 171.516 92.2548 189.896Z" fill="#1F1F1F"/>
<path opacity="0.25" d="M92.2548 189.896C96.0248 171.516 102.165 155.956 110.925 143.606C111.368 144.736 111.917 145.82 112.565 146.846C105.085 155.566 96.0548 177.306 94.5648 192.846C93.7264 191.918 92.9544 190.933 92.2548 189.896Z" fill="#1F1F1F"/>
<path d="M110.145 177.906C108.725 177.906 107.575 176.755 107.575 175.336C107.575 173.917 108.725 172.766 110.145 172.766C111.564 172.766 112.715 173.917 112.715 175.336C112.715 176.755 111.564 177.906 110.145 177.906Z" fill="#37474F"/>
<path d="M190.585 177.836C169.996 177.836 153.305 168.201 153.305 156.316C153.305 144.431 169.996 134.796 190.585 134.796C211.174 134.796 227.865 144.431 227.865 156.316C227.865 168.201 211.174 177.836 190.585 177.836Z" fill="#FF9900"/>
<path opacity="0.5" d="M190.585 177.836C169.996 177.836 153.305 168.201 153.305 156.316C153.305 144.431 169.996 134.796 190.585 134.796C211.174 134.796 227.865 144.431 227.865 156.316C227.865 168.201 211.174 177.836 190.585 177.836Z" fill="white"/>
<path opacity="0.1" d="M216.985 141.096C222.665 144.386 226.125 148.456 227.365 152.706C226.365 156.386 223.425 159.916 218.525 162.706C206.215 169.816 186.265 169.816 173.955 162.706C161.645 155.596 161.655 144.206 173.755 137.096C187.705 133.026 205.245 134.346 216.985 141.096Z" fill="#1F1F1F"/>
<path d="M141.655 198.576C143.101 197.633 144.827 197.214 146.545 197.386C148.55 197.576 150.44 198.407 151.935 199.756C152.105 199.906 152.265 200.066 152.415 200.236C154.376 200.749 156.112 201.895 157.355 203.496C158.014 204.335 158.472 205.313 158.695 206.356C159.338 207.131 159.753 208.069 159.895 209.066C160.053 210.635 159.598 212.205 158.625 213.446C157.831 214.481 156.829 215.337 155.684 215.961C154.538 216.585 153.275 216.961 151.975 217.066C151.465 216.566 150.975 216.066 150.525 215.556C152.432 215.684 154.323 215.135 155.865 214.006C156.665 213.495 157.324 212.792 157.782 211.96C158.24 211.129 158.482 210.195 158.485 209.246V209.346C158.118 210.225 157.573 211.018 156.885 211.675C156.197 212.333 155.379 212.84 154.485 213.166C153.637 213.541 152.702 213.674 151.784 213.548C150.866 213.423 150.001 213.045 149.285 212.456C148.861 212.069 148.521 211.599 148.285 211.076C147.972 211.096 147.658 211.096 147.345 211.076C146.488 211.13 145.633 210.949 144.871 210.553C144.11 210.156 143.472 209.559 143.025 208.826C142.659 208.084 142.458 207.272 142.435 206.445C142.413 205.619 142.57 204.797 142.895 204.036C143.386 202.81 144.268 201.78 145.405 201.106C145.779 200.874 146.174 200.676 146.585 200.516C147.744 200.064 148.981 199.846 150.225 199.876C149.05 199.02 147.67 198.489 146.225 198.336C145.453 198.248 144.672 198.264 143.905 198.386C143.185 198.499 142.487 198.722 141.835 199.046C141.415 199.256 141.385 198.736 141.655 198.576ZM156.465 204.476C155.722 203.414 154.725 202.555 153.565 201.976C153.848 202.566 154.05 203.192 154.165 203.836C155.006 203.982 155.819 204.259 156.575 204.656C156.543 204.584 156.506 204.514 156.465 204.446V204.476ZM153.055 212.066C153.797 211.922 154.503 211.631 155.132 211.21C155.76 210.79 156.299 210.248 156.715 209.616C157.246 208.796 157.475 207.817 157.365 206.846C156.53 205.977 155.447 205.387 154.265 205.156C154.261 205.929 154.099 206.693 153.79 207.402C153.48 208.11 153.029 208.748 152.465 209.276C151.677 209.964 150.749 210.472 149.745 210.766C150.099 211.293 150.606 211.698 151.199 211.925C151.791 212.152 152.44 212.191 153.055 212.036V212.066ZM151.055 208.596C151.585 208.175 152.016 207.642 152.317 207.036C152.618 206.429 152.781 205.763 152.795 205.086C152.303 205.122 151.824 205.262 151.389 205.497C150.955 205.731 150.575 206.055 150.275 206.446C149.594 207.295 149.24 208.359 149.275 209.446C149.926 209.261 150.542 208.967 151.095 208.576L151.055 208.596ZM147.725 201.506C146.744 201.772 145.853 202.297 145.145 203.026C144.835 203.336 144.578 203.694 144.385 204.086C143.789 205.203 143.639 206.503 143.965 207.726C144.152 208.283 144.501 208.771 144.968 209.128C145.435 209.484 145.998 209.693 146.585 209.726C147.003 209.776 147.426 209.776 147.845 209.726C147.743 208.951 147.811 208.163 148.045 207.416C148.284 206.563 148.74 205.787 149.367 205.162C149.994 204.536 150.772 204.083 151.625 203.846C151.977 203.769 152.335 203.723 152.695 203.706C152.521 202.826 152.152 201.995 151.615 201.276C150.334 201.028 149.013 201.097 147.765 201.476L147.725 201.506Z" fill="#FF9900"/>
<path opacity="0.5" d="M141.655 198.576C143.101 197.633 144.827 197.214 146.545 197.386C148.55 197.576 150.44 198.407 151.935 199.756C152.105 199.906 152.265 200.066 152.415 200.236C154.376 200.749 156.112 201.895 157.355 203.496C158.014 204.335 158.472 205.313 158.695 206.356C159.338 207.131 159.753 208.069 159.895 209.066C160.053 210.635 159.598 212.205 158.625 213.446C157.831 214.481 156.829 215.337 155.684 215.961C154.538 216.585 153.275 216.961 151.975 217.066C151.465 216.566 150.975 216.066 150.525 215.556C152.432 215.684 154.323 215.135 155.865 214.006C156.665 213.495 157.324 212.792 157.782 211.96C158.24 211.129 158.482 210.195 158.485 209.246V209.346C158.118 210.225 157.573 211.018 156.885 211.675C156.197 212.333 155.379 212.84 154.485 213.166C153.637 213.541 152.702 213.674 151.784 213.548C150.866 213.423 150.001 213.045 149.285 212.456C148.861 212.069 148.521 211.599 148.285 211.076C147.972 211.096 147.658 211.096 147.345 211.076C146.488 211.13 145.633 210.949 144.871 210.553C144.11 210.156 143.472 209.559 143.025 208.826C142.659 208.084 142.458 207.272 142.435 206.445C142.413 205.619 142.57 204.797 142.895 204.036C143.386 202.81 144.268 201.78 145.405 201.106C145.779 200.874 146.174 200.676 146.585 200.516C147.744 200.064 148.981 199.846 150.225 199.876C149.05 199.02 147.67 198.489 146.225 198.336C145.453 198.248 144.672 198.264 143.905 198.386C143.185 198.499 142.487 198.722 141.835 199.046C141.415 199.256 141.385 198.736 141.655 198.576ZM156.465 204.476C155.722 203.414 154.725 202.555 153.565 201.976C153.848 202.566 154.05 203.192 154.165 203.836C155.006 203.982 155.819 204.259 156.575 204.656C156.543 204.584 156.506 204.514 156.465 204.446V204.476ZM153.055 212.066C153.797 211.922 154.503 211.631 155.132 211.21C155.76 210.79 156.299 210.248 156.715 209.616C157.246 208.796 157.475 207.817 157.365 206.846C156.53 205.977 155.447 205.387 154.265 205.156C154.261 205.929 154.099 206.693 153.79 207.402C153.48 208.11 153.029 208.748 152.465 209.276C151.677 209.964 150.749 210.472 149.745 210.766C150.099 211.293 150.606 211.698 151.199 211.925C151.791 212.152 152.44 212.191 153.055 212.036V212.066ZM151.055 208.596C151.585 208.175 152.016 207.642 152.317 207.036C152.618 206.429 152.781 205.763 152.795 205.086C152.303 205.122 151.824 205.262 151.389 205.497C150.955 205.731 150.575 206.055 150.275 206.446C149.594 207.295 149.24 208.359 149.275 209.446C149.926 209.261 150.542 208.967 151.095 208.576L151.055 208.596ZM147.725 201.506C146.744 201.772 145.853 202.297 145.145 203.026C144.835 203.336 144.578 203.694 144.385 204.086C143.789 205.203 143.639 206.503 143.965 207.726C144.152 208.283 144.501 208.771 144.968 209.128C145.435 209.484 145.998 209.693 146.585 209.726C147.003 209.776 147.426 209.776 147.845 209.726C147.743 208.951 147.811 208.163 148.045 207.416C148.284 206.563 148.74 205.787 149.367 205.162C149.994 204.536 150.772 204.083 151.625 203.846C151.977 203.769 152.335 203.723 152.695 203.706C152.521 202.826 152.152 201.995 151.615 201.276C150.334 201.028 149.013 201.097 147.765 201.476L147.725 201.506Z" fill="white"/>
<path opacity="0.15" d="M159.865 208.906C159.545 209.744 158.972 210.46 158.225 210.956C158.43 210.4 158.519 209.808 158.485 209.216V209.316C158.762 208.342 158.843 207.322 158.725 206.316C159.326 207.064 159.72 207.957 159.865 208.906Z" fill="#1F1F1F"/>
<path opacity="0.15" d="M156.985 206.456C156.948 205.83 156.816 205.213 156.595 204.626C157.039 205.278 157.311 206.031 157.385 206.816C157.259 206.688 157.125 206.568 156.985 206.456Z" fill="#1F1F1F"/>
<path opacity="0.15" d="M154.795 202.726C154.412 202.426 154 202.164 153.565 201.946C153.275 201.31 152.887 200.723 152.415 200.206C152.754 200.3 153.088 200.414 153.415 200.546C154.06 201.137 154.537 201.89 154.795 202.726Z" fill="#1F1F1F"/>
<path opacity="0.15" d="M154.165 203.806C154.353 203.837 154.54 203.877 154.725 203.926C154.838 204.383 154.915 204.847 154.955 205.316C154.725 205.246 154.495 205.176 154.265 205.126C154.299 204.684 154.265 204.239 154.165 203.806Z" fill="#1F1F1F"/>
<path opacity="0.15" d="M148.265 211.046C148.763 210.968 149.257 210.865 149.745 210.736C149.903 210.988 150.098 211.214 150.325 211.406C149.891 211.697 149.4 211.891 148.885 211.976C148.643 211.691 148.435 211.379 148.265 211.046Z" fill="#1F1F1F"/>
<path opacity="0.15" d="M150.205 199.896C150.728 200.319 151.213 200.788 151.655 201.296C151.475 201.296 151.295 201.246 151.125 201.216C150.855 200.751 150.547 200.31 150.205 199.896Z" fill="#1F1F1F"/>
<path opacity="0.15" d="M152.835 205.056L152.535 205.116C152.606 204.662 152.606 204.2 152.535 203.746H152.735C152.813 204.178 152.846 204.617 152.835 205.056Z" fill="#1F1F1F"/>
<path opacity="0.15" d="M147.835 209.186C148.338 209.271 148.852 209.271 149.355 209.186C149.35 209.276 149.35 209.366 149.355 209.456C148.882 209.612 148.392 209.71 147.895 209.746C147.865 209.561 147.844 209.374 147.835 209.186Z" fill="#1F1F1F"/>
<path d="M210.315 194.216C210.315 197.016 211.255 199.016 212.785 200.026C213.173 200.234 213.574 200.418 213.985 200.576C215.956 201.346 218.086 201.623 220.189 201.383C222.291 201.143 224.304 200.394 226.051 199.199C227.798 198.005 229.228 196.402 230.215 194.53C231.202 192.657 231.717 190.573 231.715 188.456C231.718 186.456 231.257 184.482 230.369 182.689C229.48 180.897 228.189 179.335 226.595 178.126C226.586 178.104 226.573 178.085 226.555 178.069C226.538 178.054 226.517 178.042 226.495 178.036C226.335 177.926 226.195 177.816 226.035 177.716C224.385 176.716 222.095 176.896 219.555 178.356C214.425 181.246 210.315 188.356 210.315 194.216Z" fill="#FF9900"/>
<path opacity="0.25" d="M210.315 194.216C210.315 197.016 211.255 199.016 212.785 200.026C213.173 200.234 213.574 200.418 213.985 200.576C215.956 201.346 218.086 201.623 220.189 201.383C222.291 201.143 224.304 200.394 226.051 199.199C227.798 198.005 229.228 196.402 230.215 194.53C231.202 192.657 231.717 190.573 231.715 188.456C231.718 186.456 231.257 184.482 230.369 182.689C229.48 180.897 228.189 179.335 226.595 178.126C226.586 178.104 226.573 178.085 226.555 178.069C226.538 178.054 226.517 178.042 226.495 178.036C226.335 177.926 226.195 177.816 226.035 177.716C224.385 176.716 222.095 176.896 219.555 178.356C214.425 181.246 210.315 188.356 210.315 194.216Z" fill="#1F1F1F"/>
<path opacity="0.1" d="M210.315 194.216C210.315 189.696 212.765 184.436 216.215 180.916C213.645 184.136 211.215 192.346 214.355 196.536C217.495 200.726 229.075 198.346 231.355 191.466C230.926 193.275 230.113 194.97 228.973 196.439C227.833 197.907 226.391 199.113 224.744 199.977C223.098 200.84 221.286 201.34 219.43 201.444C217.574 201.547 215.717 201.251 213.985 200.576C213.577 200.421 213.18 200.24 212.795 200.036C211.255 199.016 210.315 197.016 210.315 194.216Z" fill="#1F1F1F"/>
<path d="M225.505 273.966C225.971 275.863 226.016 277.84 225.635 279.756C225.475 280.556 224.635 281.216 224.265 280.826L216.365 272.726L210.025 274.296L208.215 280.586L216.485 289.076C216.795 289.396 216.755 289.726 216.435 289.816L215.845 289.976C212.918 290.698 209.832 290.398 207.099 289.124C204.367 287.85 202.152 285.68 200.823 282.974C199.494 280.268 199.131 277.189 199.793 274.248C200.455 271.307 202.104 268.681 204.465 266.806L194.075 223.496C190.645 222.801 187.631 220.776 185.691 217.863C183.751 214.951 183.044 211.389 183.725 207.956C183.895 207.146 184.725 206.486 185.105 206.876L193.005 214.976L199.345 213.406L201.155 207.116L192.885 198.616C192.585 198.316 192.625 197.966 192.885 197.876L193.475 197.716C196.404 196.989 199.494 197.287 202.231 198.56C204.968 199.834 207.186 202.006 208.516 204.715C209.846 207.425 210.208 210.508 209.542 213.452C208.876 216.396 207.222 219.023 204.855 220.896L215.245 264.206C217.705 264.69 219.977 265.865 221.794 267.594C223.611 269.322 224.898 271.533 225.505 273.966Z" fill="#FF9900"/>
<path opacity="0.8" d="M225.505 273.966C225.971 275.863 226.016 277.84 225.635 279.756C225.475 280.556 224.635 281.216 224.265 280.826L216.365 272.726L210.025 274.296L208.215 280.586L216.485 289.076C216.795 289.396 216.755 289.726 216.435 289.816L215.845 289.976C212.918 290.698 209.832 290.398 207.099 289.124C204.367 287.85 202.152 285.68 200.823 282.974C199.494 280.268 199.131 277.189 199.793 274.248C200.455 271.307 202.104 268.681 204.465 266.806L194.075 223.496C190.645 222.801 187.631 220.776 185.691 217.863C183.751 214.951 183.044 211.389 183.725 207.956C183.895 207.146 184.725 206.486 185.105 206.876L193.005 214.976L199.345 213.406L201.155 207.116L192.885 198.616C192.585 198.316 192.625 197.966 192.885 197.876L193.475 197.716C196.404 196.989 199.494 197.287 202.231 198.56C204.968 199.834 207.186 202.006 208.516 204.715C209.846 207.425 210.208 210.508 209.542 213.452C208.876 216.396 207.222 219.023 204.855 220.896L215.245 264.206C217.705 264.69 219.977 265.865 221.794 267.594C223.611 269.322 224.898 271.533 225.505 273.966Z" fill="white"/>
<path d="M198.865 241.206C199.781 241.884 200.861 242.307 201.994 242.431C203.127 242.556 204.273 242.378 205.315 241.916C206.963 241.331 208.333 240.15 209.155 238.606L214.595 261.286C212.924 262.295 211.045 262.91 209.1 263.083C207.156 263.257 205.198 262.984 203.375 262.286L198.435 241.676C198.575 241.516 198.715 241.356 198.865 241.206Z" fill="#FF9900"/>
<path opacity="0.05" d="M198.865 241.206C199.781 241.884 200.861 242.307 201.994 242.431C203.127 242.556 204.273 242.378 205.315 241.916C206.963 241.331 208.333 240.15 209.155 238.606L214.595 261.286C212.924 262.295 211.045 262.91 209.1 263.083C207.156 263.257 205.198 262.984 203.375 262.286L198.435 241.676C198.575 241.516 198.715 241.356 198.865 241.206Z" fill="#1F1F1F"/>
<path d="M218.725 244.666C227.165 245.266 239.365 240.736 244.905 235.416C247.835 232.586 248.475 228.626 246.905 222.926C243.855 211.926 230.665 196.716 224.405 193.766C224.092 193.575 223.84 193.298 223.679 192.968C223.518 192.639 223.454 192.271 223.495 191.906C223.547 190.922 223.832 189.964 224.326 189.11C224.819 188.257 225.508 187.533 226.335 186.996C226.614 186.795 226.939 186.669 227.281 186.631C227.623 186.592 227.968 186.642 228.285 186.776C237.005 190.886 251.595 208.246 255.155 221.066C257.545 229.666 256.155 236.536 251.005 241.476C244.355 247.866 230.825 252.766 220.365 252.766C219.615 252.766 218.865 252.766 218.145 252.686L218.725 244.666Z" fill="#6E6E6E"/>
<path d="M237.625 193.916C235.055 193.406 231.345 196.266 231.365 199.226" stroke="#37474F" stroke-width="1.2" stroke-linecap="round" stroke-linejoin="round"/>
<path d="M243.575 200.576C241.055 199.966 237.245 202.276 236.345 204.756" stroke="#37474F" stroke-width="1.2" stroke-linecap="round" stroke-linejoin="round"/>
<path d="M249.125 208.296C247.643 208.081 246.132 208.347 244.813 209.054C243.494 209.762 242.436 210.873 241.795 212.226" stroke="#37474F" stroke-width="1.2" stroke-linecap="round" stroke-linejoin="round"/>
<path d="M245.745 219.676C246.485 217.676 252.435 216.356 254.445 218.836" stroke="#37474F" stroke-width="1.2" stroke-linecap="round" stroke-linejoin="round"/>
<path d="M247.725 227.846C248.605 225.846 255.135 226.436 256.255 229.646" stroke="#37474F" stroke-width="1.2" stroke-linecap="round" stroke-linejoin="round"/>
<path d="M245.465 234.826C246.385 233.576 252.735 235.266 253.075 239.076" stroke="#37474F" stroke-width="1.2" stroke-linecap="round" stroke-linejoin="round"/>
<path d="M239.245 239.416C241.785 238.566 246.455 242.476 244.615 246.056" stroke="#37474F" stroke-width="1.2" stroke-linecap="round" stroke-linejoin="round"/>
<path d="M232.985 242.246C235.125 242.346 237.835 246.606 236.515 249.726" stroke="#37474F" stroke-width="1.2" stroke-linecap="round" stroke-linejoin="round"/>
<path d="M225.895 244.166C228.085 244.936 229.525 249.246 228.235 251.956" stroke="#37474F" stroke-width="1.2" stroke-linecap="round" stroke-linejoin="round"/>
<path opacity="0.15" d="M253.825 223.146C250.985 210.366 240.395 199.576 234.885 194.406C231.345 191.106 227.355 188.996 224.645 188.586C225.083 187.938 225.656 187.392 226.325 186.986C226.604 186.785 226.929 186.659 227.271 186.621C227.613 186.582 227.958 186.632 228.275 186.766C236.995 190.876 251.585 208.236 255.145 221.056C257.535 229.656 256.145 236.526 250.995 241.466C250.985 241.456 256.655 235.936 253.825 223.146Z" fill="#1F1F1F"/>
<path opacity="0.15" d="M218.725 244.666C227.165 245.266 239.365 240.736 244.905 235.416C246.306 234.079 247.239 232.326 247.565 230.416H247.725C247.075 234.496 246.555 239.316 234.885 243.986C229.712 246.072 224.144 246.994 218.575 246.686L218.725 244.666Z" fill="#1F1F1F"/>
<path d="M213.385 237.726C213.735 234.116 213.255 229.996 211.695 227.476C210.135 224.956 207.605 223.226 206.415 225.296C205.615 226.676 207.305 228.786 208.095 231.376C208.48 232.941 208.538 234.568 208.265 236.156L213.385 237.726Z" fill="#6E6E6E"/>
<path opacity="0.15" d="M208.095 231.376C207.305 228.786 205.615 226.676 206.415 225.296C206.518 225.097 206.659 224.92 206.831 224.776C207.003 224.632 207.201 224.523 207.415 224.456C206.735 225.386 208.335 227.126 209.465 229.356C210.47 231.709 210.816 234.292 210.465 236.826L208.265 236.156C208.538 234.568 208.48 232.941 208.095 231.376Z" fill="#1F1F1F"/>
<path d="M194.385 250.956C194.905 253.256 196.047 255.368 197.687 257.061C199.327 258.755 201.402 259.965 203.683 260.558C205.965 261.152 208.366 261.106 210.623 260.427C212.88 259.747 214.907 258.459 216.482 256.705C218.057 254.95 219.118 252.796 219.55 250.479C219.983 248.161 219.769 245.769 218.933 243.565C218.097 241.361 216.671 239.429 214.81 237.981C212.95 236.533 210.727 235.625 208.385 235.356C208.255 237.026 206.385 239.036 204.275 239.796C203.232 240.257 202.086 240.433 200.953 240.306C199.82 240.18 198.74 239.755 197.825 239.076C196.298 240.607 195.182 242.498 194.58 244.575C193.979 246.651 193.912 248.846 194.385 250.956Z" fill="#FF9900"/>
<path d="M194.385 250.956C194.905 253.256 196.047 255.368 197.687 257.061C199.327 258.755 201.402 259.965 203.683 260.558C205.965 261.152 208.366 261.106 210.623 260.427C212.88 259.747 214.907 258.459 216.482 256.705C218.057 254.95 219.118 252.796 219.55 250.479C219.983 248.161 219.769 245.769 218.933 243.565C218.097 241.361 216.671 239.429 214.81 237.981C212.95 236.533 210.727 235.625 208.385 235.356C208.255 237.026 206.385 239.036 204.275 239.796C203.232 240.257 202.086 240.433 200.953 240.306C199.82 240.18 198.74 239.755 197.825 239.076C196.298 240.607 195.182 242.498 194.58 244.575C193.979 246.651 193.912 248.846 194.385 250.956Z" fill="#FF9900"/>
<path opacity="0.1" d="M194.385 250.956C194.286 250.527 194.213 250.093 194.165 249.656C195.935 253.226 200.225 258.196 208.735 256.736C217.475 255.236 219.285 244.736 218.145 241.906C218.749 242.978 219.19 244.134 219.455 245.336C219.871 246.999 219.95 248.728 219.688 250.422C219.425 252.116 218.826 253.74 217.927 255.199C217.027 256.659 215.845 257.923 214.449 258.918C213.053 259.913 211.473 260.619 209.8 260.994C208.127 261.369 206.397 261.405 204.71 261.101C203.023 260.797 201.414 260.159 199.977 259.223C198.541 258.288 197.306 257.075 196.346 255.655C195.385 254.235 194.718 252.637 194.385 250.956Z" fill="#1F1F1F"/>
<path d="M194.315 245.576C189.935 243.806 188.495 239.796 189.175 235.736C189.855 231.676 195.665 230.086 195.665 230.086L196.785 234.766C196.785 234.766 193.925 235.836 194.065 237.836C194.181 238.474 194.443 239.076 194.83 239.596C195.216 240.117 195.718 240.541 196.295 240.836C196.494 241.275 196.6 241.75 196.607 242.232C196.614 242.714 196.522 243.192 196.336 243.637C196.15 244.082 195.875 244.483 195.527 244.817C195.18 245.151 194.767 245.409 194.315 245.576Z" fill="#6E6E6E"/>
<path opacity="0.15" d="M195.665 230.126L196.785 234.806C196.785 234.806 193.925 235.876 194.065 237.876C194.181 238.514 194.443 239.116 194.83 239.637C195.216 240.157 195.718 240.581 196.295 240.876C196.587 241.551 196.659 242.3 196.501 243.018C196.343 243.736 195.963 244.386 195.415 244.876C195.875 243.306 194.875 242.546 193.315 240.876C191.755 239.206 192.375 236.386 193.375 234.616C193.955 233.445 194.063 232.095 193.675 230.846C194.317 230.55 194.982 230.309 195.665 230.126Z" fill="#1F1F1F"/>
<path d="M194.895 252.666C191.485 253.666 187.365 252.276 186.815 249.496C186.265 246.716 187.185 244.416 190.405 242.496C191.369 243.892 192.732 244.965 194.315 245.576L194.105 247.076C194.806 247.807 195.26 248.74 195.402 249.744C195.543 250.747 195.366 251.769 194.895 252.666Z" fill="#6E6E6E"/>
<path opacity="0.15" d="M190.405 242.576C191.369 243.972 192.732 245.045 194.315 245.656L194.105 247.156H189.935C189.935 247.156 191.015 246.806 190.705 246.096C190.395 245.386 188.645 245.656 187.795 246.756C187.32 247.365 187.044 248.105 187.005 248.876C186.966 249.648 187.165 250.412 187.575 251.066C187.194 250.63 186.932 250.103 186.815 249.536C186.255 246.716 187.185 244.416 190.405 242.576Z" fill="#1F1F1F"/>
<path d="M199.525 258.656C198.188 259.839 196.636 260.756 194.955 261.356C193.645 261.846 191.355 261.876 190.125 260.566C188.895 259.256 189.745 257.806 190.665 257.156C192.24 256.068 193.914 255.131 195.665 254.356C195.665 254.356 199.225 254.356 199.525 258.656Z" fill="#6E6E6E"/>
<path opacity="0.15" d="M190.665 257.156C192.24 256.068 193.914 255.131 195.665 254.356C196.237 254.387 196.795 254.541 197.302 254.807C197.809 255.072 198.254 255.444 198.605 255.896C197.855 255.146 195.345 256.536 193.295 257.776C191.245 259.016 189.635 259.716 190.475 260.856C190.351 260.768 190.234 260.671 190.125 260.566C188.815 259.146 189.745 257.806 190.665 257.156Z" fill="#1F1F1F"/>
<path d="M96.4948 155.576C95.8616 155.29 95.3585 154.777 95.0845 154.139C94.8106 153.5 94.7857 152.782 95.0148 152.126C95.8448 149.716 98.7548 149.006 98.7548 149.006C98.7548 149.006 104.145 147.516 108.255 150.006C112.365 152.496 112.425 157.706 112.305 159.376C112.242 159.903 112.002 160.393 111.625 160.766C111.248 161.139 110.756 161.374 110.228 161.432C109.701 161.49 109.169 161.368 108.72 161.085C108.271 160.803 107.931 160.377 107.755 159.876C106.805 157.826 106.815 154.986 103.385 153.986C100.555 153.146 98.1748 156.316 96.4948 155.576Z" fill="#6E6E6E"/>
<path opacity="0.15" d="M98.1448 153.396C101.005 152.226 104.065 150.696 106.495 153.396C108.925 156.096 108.425 158.736 109.435 159.846C110.445 160.956 111.655 160.766 112.195 159.846C112.035 160.307 111.735 160.707 111.337 160.99C110.939 161.273 110.463 161.425 109.975 161.425C109.487 161.425 109.01 161.273 108.613 160.99C108.215 160.707 107.915 160.307 107.755 159.846C106.805 157.796 106.815 154.956 103.385 153.956C100.555 153.136 98.1748 156.306 96.4948 155.566C95.8616 155.28 95.3585 154.767 95.0846 154.129C94.8106 153.49 94.7857 152.772 95.0148 152.116C94.9848 153.336 95.9048 154.306 98.1448 153.396Z" fill="#1F1F1F"/>
<path d="M90.9248 167.256C90.5796 166.936 90.137 166.74 89.6677 166.7C89.1983 166.66 88.7291 166.778 88.3348 167.036C87.8751 167.235 87.4779 167.555 87.1856 167.962C86.8933 168.369 86.7168 168.847 86.6748 169.346C86.6748 169.346 86.5248 172.886 90.3648 176.516C91.5726 177.607 93.0032 178.421 94.5574 178.903C96.1116 179.384 97.752 179.522 99.3648 179.306C101.885 178.626 102.315 175.786 99.3648 175.146C97.1548 174.666 95.2048 174.716 92.8348 172.056C91.3848 170.416 91.3848 168.246 90.9248 167.256Z" fill="#6E6E6E"/>
<path opacity="0.15" d="M91.8748 175.336C95.7648 178.336 98.1548 177.986 99.6048 177.626C101.055 177.266 101.035 175.866 100.425 175.556C102.125 176.556 101.515 178.726 99.3548 179.306C97.7421 179.522 96.1016 179.384 94.5474 178.903C92.9932 178.421 91.5626 177.607 90.3548 176.516C86.5148 172.886 86.6648 169.346 86.6648 169.346C86.7068 168.847 86.8833 168.369 87.1756 167.962C87.4679 167.555 87.8651 167.235 88.3248 167.036C87.6048 167.986 87.7048 172.186 91.8748 175.336Z" fill="#1F1F1F"/>
<path d="M94.7048 157.176C93.9731 157.144 93.2468 157.314 92.6049 157.667C91.963 158.019 91.4303 158.542 91.0648 159.176C89.1448 162.086 91.4048 163.306 91.4048 163.306C92.8948 163.486 94.7748 162.546 97.8248 163.756C101.615 165.256 102.035 168.136 102.925 170.406C103.925 172.926 107.775 171.556 107.145 167.626C106.515 163.696 104.895 161.156 102.325 159.496C100.051 158.028 97.4114 157.224 94.7048 157.176Z" fill="#6E6E6E"/>
<path opacity="0.15" d="M93.4548 161.016C96.1248 160.876 100.095 161.286 101.895 164.156C103.105 166.096 103.405 168.806 104.465 169.606C104.694 169.798 104.971 169.925 105.266 169.974C105.561 170.023 105.864 169.993 106.143 169.886C106.422 169.779 106.668 169.599 106.855 169.365C107.041 169.132 107.162 168.852 107.205 168.556C107.145 171.766 103.825 172.726 102.925 170.416C102.025 168.106 101.615 165.266 97.8248 163.766C94.8248 162.556 92.8948 163.496 91.4048 163.316C91.4048 163.316 89.3448 162.196 90.8448 159.546C90.4248 160.576 90.7948 161.166 93.4548 161.016Z" fill="#1F1F1F"/>
<path d="M161.535 248.076C162.051 247.48 162.679 246.991 163.384 246.638C164.089 246.285 164.857 246.074 165.643 246.017C166.43 245.96 167.22 246.059 167.968 246.308C168.717 246.556 169.409 246.95 170.005 247.466C170.601 247.982 171.09 248.611 171.443 249.316C171.796 250.021 172.007 250.788 172.064 251.575C172.121 252.361 172.022 253.151 171.773 253.9C171.524 254.648 171.131 255.34 170.615 255.936L132.275 300.306L123.175 292.446L161.535 248.076Z" fill="#6E6E6E"/>
<path d="M155.645 254.896C156.16 254.3 156.788 253.811 157.492 253.457C158.197 253.104 158.964 252.893 159.75 252.835C160.536 252.778 161.326 252.877 162.074 253.125C162.822 253.373 163.514 253.766 164.11 254.281C164.706 254.797 165.195 255.424 165.548 256.129C165.902 256.833 166.113 257.6 166.171 258.386C166.228 259.172 166.129 259.962 165.881 260.71C165.633 261.458 165.24 262.15 164.725 262.746" stroke="#37474F" stroke-width="1.2" stroke-linecap="round" stroke-linejoin="round"/>
<path d="M149.135 262.426C150.177 261.222 151.655 260.481 153.244 260.367C154.832 260.253 156.401 260.774 157.605 261.816C158.809 262.858 159.55 264.336 159.664 265.925C159.778 267.513 159.257 269.082 158.215 270.286" stroke="#37474F" stroke-width="1.2" stroke-linecap="round" stroke-linejoin="round"/>
<path d="M142.625 269.966C143.14 269.37 143.768 268.881 144.472 268.527C145.177 268.174 145.944 267.963 146.73 267.905C147.516 267.848 148.306 267.947 149.054 268.195C149.802 268.443 150.494 268.836 151.09 269.351C151.686 269.867 152.175 270.494 152.528 271.199C152.882 271.903 153.093 272.67 153.15 273.456C153.208 274.242 153.109 275.032 152.861 275.78C152.613 276.528 152.22 277.22 151.705 277.816" stroke="#37474F" stroke-width="1.2" stroke-linecap="round" stroke-linejoin="round"/>
<path d="M136.105 277.496C137.147 276.291 138.626 275.549 140.215 275.433C141.804 275.318 143.374 275.839 144.58 276.881C145.785 277.923 146.527 279.402 146.643 280.991C146.758 282.581 146.237 284.151 145.195 285.356" stroke="#37474F" stroke-width="1.2" stroke-linecap="round" stroke-linejoin="round"/>
<path d="M138.685 292.886C139.2 292.289 139.593 291.597 139.841 290.848C140.089 290.099 140.187 289.309 140.129 288.523C140.071 287.736 139.86 286.969 139.505 286.264C139.151 285.559 138.662 284.932 138.065 284.416C137.468 283.901 136.775 283.508 136.027 283.26C135.278 283.012 134.488 282.914 133.701 282.972C132.915 283.03 132.147 283.241 131.443 283.596C130.738 283.95 130.11 284.439 129.595 285.036" stroke="#37474F" stroke-width="1.2" stroke-linecap="round" stroke-linejoin="round"/>
<path opacity="0.15" d="M166.085 245.996C167.238 245.993 168.367 246.322 169.337 246.944C170.308 247.566 171.078 248.455 171.557 249.503C172.036 250.552 172.203 251.716 172.038 252.857C171.872 253.998 171.382 255.067 170.625 255.936L132.285 300.306L128.505 297.036C140.215 283.926 159.215 262.646 164.335 256.816C171.895 248.216 168.815 246.646 166.085 245.996Z" fill="#1F1F1F"/>
<path d="M61.7148 298.486C61.7148 298.486 72.9348 288.696 81.9248 295.096C87.3957 299.019 92.2493 303.738 96.3248 309.096L120.545 287.686C122.035 286.396 124.635 286.366 127.205 287.846C131.705 290.446 135.345 296.756 135.345 301.946C135.405 303.396 135.014 304.829 134.225 306.046C134.225 306.046 107.595 343.276 103.065 349.046C98.5348 354.816 92.7848 357.846 85.0648 354.326C77.3448 350.806 75.0648 340.726 74.1348 333.916C73.2048 327.106 64.4848 317.556 62.1348 311.446C59.6848 304.766 60.2748 300.736 61.7148 298.486Z" fill="#FF9900"/>
<path opacity="0.15" d="M70.4648 295.796C74.7548 296.156 85.0448 301.476 88.0548 312.796C89.1475 317.131 90.5511 321.382 92.2548 325.516C93.6398 328.629 95.5549 331.478 97.9148 333.936C101.465 337.706 105.715 335.136 109.395 332.086C113.075 329.036 123.475 315.366 126.985 309.476C129.555 305.216 130.365 301.986 129.665 298.886C129.425 299.206 129.175 299.516 128.925 299.796C125.465 303.636 118.855 306.796 113.815 302.946C111.355 301.076 111.155 298.126 111.965 295.206L120.505 287.656C121.995 286.366 124.595 286.336 127.165 287.816C127.435 287.976 127.695 288.146 127.955 288.316L128.225 288.516L128.715 288.886L129.035 289.156L129.455 289.526L129.795 289.846L130.155 290.206L130.505 290.576L130.825 290.946C130.945 291.076 131.065 291.216 131.175 291.356L131.455 291.716C131.575 291.866 131.695 292.026 131.805 292.186C131.915 292.346 131.955 292.396 132.025 292.496C134.017 295.247 135.158 298.523 135.305 301.916C135.365 303.366 134.974 304.799 134.185 306.016C134.185 306.016 107.555 343.246 103.025 349.016C98.4948 354.786 92.7448 357.816 85.0248 354.296C77.3048 350.776 75.0248 340.696 74.0948 333.886C73.4148 328.886 68.4748 322.336 65.0048 316.806L70.4648 295.796Z" fill="#1F1F1F"/>
<path d="M62.2148 311.416C59.6848 304.766 60.2748 300.736 61.7148 298.486C63.18 297.273 64.7687 296.217 66.4548 295.336C72.6448 294.546 80.2448 301.806 83.0548 306.456C85.8648 311.106 87.3748 316.726 89.4048 324.226C91.2048 330.876 95.7148 334.586 98.2748 340.836C100.135 345.376 100.555 348.836 99.2748 352.836C95.4148 355.836 90.7848 356.836 85.0848 354.266C77.4148 350.756 75.0848 340.666 74.1548 333.856C73.2248 327.046 64.5348 317.576 62.2148 311.416Z" fill="#6E6E6E"/>
<path d="M81.2648 309.066C85.2648 316.196 86.0648 326.066 89.4448 331.836C92.8248 337.606 97.9448 343.996 97.3548 349.536C96.9748 353.156 95.7048 355.056 93.3548 355.626C92.073 355.831 90.7666 355.831 89.4848 355.626L88.9648 355.526C87.6425 355.265 86.3565 354.846 85.1348 354.276C77.4648 350.766 75.1348 340.676 74.2048 333.866C73.2748 327.056 64.5548 317.506 62.2048 311.396C59.6748 304.746 60.2648 300.716 61.7048 298.466C66.6048 295.326 75.9848 299.666 81.2648 309.066Z" fill="#37474F"/>
<path opacity="0.15" d="M97.9148 307.666C103.265 312.796 104.705 320.666 104.705 320.666C102.147 316.638 99.3483 312.768 96.3248 309.076L97.9148 307.666Z" fill="#1F1F1F"/>
<path d="M87.4448 327.246C87.5948 327.676 87.7448 328.086 87.8948 328.496L71.1648 326.366C70.9248 325.946 70.6748 325.516 70.4148 325.086L87.4448 327.246Z" fill="#313131"/>
<path d="M90.3148 333.276C90.5748 333.709 90.8449 334.139 91.1249 334.566L73.8549 332.376C73.7449 331.966 73.6149 331.556 73.4649 331.136L90.3148 333.276Z" fill="#313131"/>
<path d="M96.7748 352.276L79.9848 350.136C79.6448 349.716 79.3348 349.276 78.9848 348.826L97.0748 351.126C96.9952 351.514 96.8951 351.898 96.7748 352.276Z" fill="#313131"/>
<path d="M96.8948 345.436C97.0148 345.843 97.1148 346.253 97.1948 346.666L76.5948 344.046C76.4348 343.636 76.2948 343.216 76.1548 342.796L96.8948 345.436Z" fill="#313131"/>
<path d="M94.1249 339.426C94.3749 339.846 94.6148 340.276 94.8448 340.706L74.9149 338.166C74.8249 337.756 74.7449 337.356 74.6749 336.946L94.1249 339.426Z" fill="#313131"/>
<path d="M76.9048 303.266C77.3248 303.686 77.7348 304.136 78.1448 304.606L60.5248 302.366C60.5526 301.974 60.6027 301.583 60.6748 301.196L76.9048 303.266Z" fill="#313131"/>
<path d="M81.4948 309.506C81.7248 309.926 81.9348 310.346 82.1448 310.776L61.1448 308.106C61.0348 307.686 60.9348 307.276 60.8548 306.886L81.4948 309.506Z" fill="#313131"/>
<path d="M83.9849 315.486C84.1149 315.896 84.2549 316.306 84.3749 316.726L63.4749 314.066C63.2349 313.626 63.0148 313.206 62.8148 312.796L83.9849 315.486Z" fill="#313131"/>
<path d="M85.7048 321.366C85.8248 321.776 85.9348 322.196 86.0448 322.596L67.3048 320.216L66.4548 318.916L85.7048 321.366Z" fill="#313131"/>
<path d="M128.905 282.576C134.455 286.406 131.715 294.456 128.255 298.306C124.795 302.156 118.185 305.306 113.145 301.446C108.515 297.926 111.865 290.556 114.985 286.796C118.245 282.816 124.525 279.516 128.905 282.576Z" fill="#FF9900"/>
<path opacity="0.7" d="M128.905 282.576C134.455 286.406 131.715 294.456 128.255 298.306C124.795 302.156 118.185 305.306 113.145 301.446C108.515 297.926 111.865 290.556 114.985 286.796C118.245 282.816 124.525 279.516 128.905 282.576Z" fill="white"/>
<path d="M110.875 296.576C111.265 299.306 115.445 302.846 122.495 297.396C129.545 291.946 129.705 283.786 127.385 281.786C127.921 281.98 128.431 282.239 128.905 282.556C134.455 286.386 131.715 294.436 128.255 298.286C124.795 302.136 118.195 305.286 113.145 301.426C112.405 300.86 111.812 300.123 111.417 299.279C111.021 298.435 110.836 297.507 110.875 296.576Z" fill="#FF9900"/>
<path opacity="0.05" d="M110.875 296.576C111.265 299.306 115.445 302.846 122.495 297.396C129.545 291.946 129.705 283.786 127.385 281.786C127.921 281.98 128.431 282.239 128.905 282.556C134.455 286.386 131.715 294.436 128.255 298.286C124.795 302.136 118.195 305.286 113.145 301.426C112.405 300.86 111.812 300.123 111.417 299.279C111.021 298.435 110.836 297.507 110.875 296.576Z" fill="#1F1F1F"/>
<path d="M183.095 153.966V129.446H198.095V153.966C198.036 154.625 197.802 155.256 197.417 155.794C197.032 156.332 196.51 156.758 195.905 157.026C194.262 157.86 192.447 158.294 190.605 158.294C188.763 158.294 186.947 157.86 185.305 157.026C184.696 156.76 184.17 156.336 183.782 155.798C183.393 155.26 183.156 154.627 183.095 153.966Z" fill="#6E6E6E"/>
<path d="M198.075 149.266C198.016 149.925 197.782 150.556 197.397 151.094C197.012 151.632 196.49 152.058 195.885 152.326C194.242 153.16 192.427 153.594 190.585 153.594C188.743 153.594 186.927 153.16 185.285 152.326C184.68 152.058 184.158 151.632 183.773 151.094C183.388 150.556 183.154 149.925 183.095 149.266" stroke="#37474F" stroke-width="1.02" stroke-linecap="round" stroke-linejoin="round"/>
<path d="M198.075 144.576C198.014 145.233 197.779 145.863 197.394 146.399C197.009 146.935 196.488 147.359 195.885 147.626C194.242 148.46 192.427 148.894 190.585 148.894C188.743 148.894 186.927 148.46 185.285 147.626C184.68 147.358 184.158 146.932 183.773 146.394C183.388 145.856 183.154 145.225 183.095 144.566" stroke="#37474F" stroke-width="1.02" stroke-linecap="round" stroke-linejoin="round"/>
<path d="M198.075 139.876C198.006 140.525 197.767 141.143 197.382 141.67C196.998 142.197 196.481 142.613 195.885 142.876C194.242 143.71 192.427 144.144 190.585 144.144C188.743 144.144 186.927 143.71 185.285 142.876C184.68 142.608 184.158 142.182 183.773 141.644C183.388 141.106 183.154 140.475 183.095 139.816" stroke="#37474F" stroke-width="1.02" stroke-linecap="round" stroke-linejoin="round"/>
<path opacity="0.15" d="M194.845 129.446H198.075V153.966C198.016 154.625 197.782 155.256 197.397 155.794C197.012 156.332 196.49 156.758 195.885 157.026C195.565 157.215 195.23 157.379 194.885 157.516V141.466C191.021 142.353 187.057 142.726 183.095 142.576V129.446H194.845Z" fill="#1F1F1F"/>
<path d="M221.615 93.6961C221.615 75.1261 206.615 63.1261 187.995 63.1261C169.375 63.1261 154.385 75.1261 154.385 93.6961V114.016C154.385 114.016 161.075 124.576 187.985 124.576C214.895 124.576 221.605 114.576 221.605 114.576L221.615 93.6961Z" fill="#FF9900"/>
<path opacity="0.2" d="M182.655 69.6261C183.079 69.8023 183.463 70.0611 183.786 70.3873C184.109 70.7134 184.363 71.1006 184.535 71.5261C184.624 71.9656 184.599 72.4205 184.462 72.8475C184.326 73.2746 184.082 73.6596 183.755 73.9661C183.087 74.5631 182.314 75.031 181.475 75.3461C177.055 77.2952 172.461 78.8252 167.755 79.9161C166.575 80.1861 164.265 81.0061 163.395 79.9161C162.395 78.5961 162.995 75.9161 164.345 74.1961C166.261 71.4738 169.106 69.546 172.345 68.7761C175.764 67.7328 179.453 68.0369 182.655 69.6261Z" fill="white"/>
<path opacity="0.2" d="M154.385 101.216C154.385 101.216 156.265 111.396 169.585 116.366C182.905 121.336 197.365 119.756 206.205 117.526C206.205 117.526 187.285 126.756 167.755 117.896C150.665 110.146 154.385 101.216 154.385 101.216Z" fill="#1F1F1F"/>
<path opacity="0.15" d="M176.375 64.8161C180.141 63.6852 184.053 63.1158 187.985 63.1261C206.555 63.1261 221.605 75.1261 221.605 93.6961V114.506C221.605 114.506 218.855 118.606 209.845 121.566C211.255 108.056 213.065 90.8161 207.685 80.2661C201.545 68.2161 184.455 62.4661 176.375 64.8161Z" fill="#1F1F1F"/>
<path d="M188.985 107.496C190.311 107.496 191.583 106.969 192.52 106.032C193.458 105.094 193.985 103.822 193.985 102.496V100.186C193.985 98.8601 193.458 97.5883 192.52 96.6506C191.583 95.7129 190.311 95.1861 188.985 95.1861C187.659 95.1861 186.387 95.7129 185.449 96.6506C184.512 97.5883 183.985 98.8601 183.985 100.186V102.496C183.985 103.822 184.512 105.094 185.449 106.032C186.387 106.969 187.659 107.496 188.985 107.496Z" fill="#37474F"/>
<path d="M163.985 99.5061C166.355 100.386 167.605 99.2861 168.055 98.0561C168.479 96.4249 168.584 94.7272 168.365 93.0561C168.292 91.9255 167.924 90.8338 167.298 89.8898C166.671 88.9458 165.808 88.1826 164.795 87.6761C164.421 87.4462 164 87.3059 163.563 87.2663C163.126 87.2266 162.686 87.2886 162.277 87.4475C161.869 87.6064 161.502 87.8578 161.207 88.182C160.911 88.5062 160.695 88.8944 160.575 89.3161C160.258 90.7906 160.174 92.3056 160.325 93.8061C160.445 95.7261 161.635 98.4861 163.985 99.5061Z" fill="#37474F"/>
<path d="M150.905 99.9161C151.831 98.9581 153.061 98.3503 154.385 98.1961V101.196C154.385 106.196 157.665 111.136 164.225 114.926C175.635 121.506 193.225 122.366 206.225 117.506V116.506C206.341 114.37 206.959 112.291 208.029 110.439C209.1 108.587 210.592 107.013 212.385 105.846C215.785 103.846 218.535 105.466 218.535 109.396C220.476 107.117 221.571 104.239 221.635 101.246C222.785 101.246 224.305 101.866 224.305 106.246C224.305 111.696 224.575 117.816 219.405 124.566C211.055 135.476 189.095 145.096 170.195 137.566C150.045 129.566 149.935 114.436 149.935 108.296C149.915 103.726 149.555 101.466 150.905 99.9161Z" fill="#FF9900"/>
<path opacity="0.1" d="M150.905 99.9161C151.831 98.9581 153.061 98.3503 154.385 98.1961V101.196C154.385 106.196 157.665 111.136 164.225 114.926C175.635 121.506 193.225 122.366 206.225 117.506V116.506C206.341 114.37 206.959 112.291 208.029 110.439C209.1 108.587 210.592 107.013 212.385 105.846C215.785 103.846 218.535 105.466 218.535 109.396C220.476 107.117 221.571 104.239 221.635 101.246C222.785 101.246 224.305 101.866 224.305 106.246C224.305 111.696 224.575 117.816 219.405 124.566C211.055 135.476 189.095 145.096 170.195 137.566C150.045 129.566 149.935 114.436 149.935 108.296C149.915 103.726 149.555 101.466 150.905 99.9161Z" fill="#1F1F1F"/>
<path opacity="0.15" d="M181.795 138.666C204.045 138.326 214.795 126.766 217.575 121.566C220.355 116.366 220.135 111.036 218.515 111.726V109.366C220.456 107.087 221.551 104.209 221.615 101.216C222.765 101.216 224.285 101.836 224.285 106.216C224.285 111.666 224.555 117.786 219.385 124.536C211.035 135.446 189.075 145.066 170.175 137.536C165.521 135.795 161.276 133.112 157.705 129.656C162.825 133.516 171.075 138.826 181.795 138.666Z" fill="#1F1F1F"/>
<path opacity="0.2" d="M211.395 106.466C209.285 108.106 207.695 111.586 207.695 118.396L206.205 117.526V116.526C206.31 114.578 206.827 112.674 207.722 110.94C208.616 109.206 209.868 107.681 211.395 106.466Z" fill="#1F1F1F"/>
<path d="M154.385 101.216C154.385 106.216 157.665 111.156 164.225 114.946C175.635 121.526 193.225 122.386 206.225 117.526L207.715 118.396C207.715 118.396 189.515 128.396 168.975 120.276C149.805 112.726 150.215 102.516 150.925 99.9161C151.851 98.9581 153.081 98.3503 154.405 98.1961L154.385 101.216Z" fill="#FF9900"/>
<path opacity="0.6" d="M154.385 101.216C154.385 106.216 157.665 111.156 164.225 114.946C175.635 121.526 193.225 122.386 206.225 117.526L207.715 118.396C207.715 118.396 189.515 128.396 168.975 120.276C149.805 112.726 150.215 102.516 150.925 99.9161C151.851 98.9581 153.081 98.3503 154.405 98.1961L154.385 101.216Z" fill="white"/>
<path d="M213.245 109.196C212.506 109.679 211.891 110.328 211.449 111.093C211.008 111.857 210.753 112.715 210.705 113.596C210.705 115.216 211.845 115.876 213.245 115.066C213.985 114.585 214.601 113.935 215.043 113.171C215.484 112.406 215.738 111.548 215.785 110.666C215.785 109.046 214.655 108.386 213.245 109.196Z" fill="#37474F"/>
<path d="M213.245 109.196C213.619 108.963 214.054 108.848 214.495 108.866C214.777 109.254 214.919 109.727 214.895 110.206C214.847 111.087 214.592 111.945 214.15 112.71C213.709 113.474 213.094 114.124 212.355 114.606C211.981 114.839 211.545 114.954 211.105 114.936C210.822 114.548 210.681 114.075 210.705 113.596C210.753 112.715 211.008 111.857 211.449 111.093C211.891 110.328 212.506 109.679 213.245 109.196Z" fill="#6E6E6E"/>
<path d="M218.515 109.366C220.456 107.087 221.551 104.209 221.615 101.216C221.894 101.207 222.172 101.254 222.433 101.354C222.694 101.453 222.932 101.604 223.135 101.796C223.407 102.612 223.516 103.474 223.454 104.332C223.392 105.19 223.161 106.028 222.775 106.796C221.929 108.857 220.433 110.584 218.515 111.716C218.584 110.934 218.584 110.148 218.515 109.366Z" fill="#FF9900"/>
<path opacity="0.5" d="M218.515 109.366C220.456 107.087 221.551 104.209 221.615 101.216C221.894 101.207 222.172 101.254 222.433 101.354C222.694 101.453 222.932 101.604 223.135 101.796C223.407 102.612 223.516 103.474 223.454 104.332C223.392 105.19 223.161 106.028 222.775 106.796C221.929 108.857 220.433 110.584 218.515 111.716C218.584 110.934 218.584 110.148 218.515 109.366Z" fill="white"/>
<path d="M191.815 69.7661V51.7661H196.205V69.7661C196.185 69.96 196.115 70.1452 196 70.3032C195.886 70.4612 195.733 70.5864 195.555 70.6661C195.074 70.908 194.543 71.0339 194.005 71.0339C193.467 71.0339 192.936 70.908 192.455 70.6661C192.279 70.5842 192.128 70.4582 192.016 70.3005C191.904 70.1428 191.835 69.9587 191.815 69.7661Z" fill="#6E6E6E"/>
<path opacity="0.15" d="M196.205 54.8061C195.502 55.0029 194.775 55.1038 194.045 55.1061C193.29 55.1022 192.54 54.9945 191.815 54.7861V51.7161H196.205V54.8061Z" fill="#1F1F1F"/>
<path d="M194.045 53.1361C189.549 53.1361 185.905 49.4917 185.905 44.9961C185.905 40.5005 189.549 36.8561 194.045 36.8561C198.54 36.8561 202.185 40.5005 202.185 44.9961C202.185 49.4917 198.54 53.1361 194.045 53.1361Z" fill="#FF9900"/>
<path opacity="0.15" d="M194.045 49.2561C199.915 48.2561 201.935 43.0061 199.345 38.8161C200.381 39.7048 201.177 40.8397 201.659 42.1164C202.142 43.3931 202.295 44.7706 202.106 46.1223C201.917 47.474 201.391 48.7564 200.577 49.8516C199.762 50.9469 198.686 51.8197 197.445 52.3899C196.205 52.9601 194.842 53.2093 193.48 53.1147C192.119 53.02 190.803 52.5846 189.654 51.8483C188.504 51.112 187.559 50.0986 186.904 48.9012C186.249 47.7039 185.905 46.361 185.905 44.9961C186.255 47.5761 188.835 50.1761 194.045 49.2561Z" fill="#1F1F1F"/>
<path opacity="0.3" d="M194.365 42.2561C193.082 42.6194 191.869 43.194 190.775 43.9561C190.085 44.4261 188.985 45.1361 188.195 44.4261C187.405 43.7161 187.615 42.4261 187.915 41.6161C188.336 40.5967 189.072 39.7384 190.015 39.1661C191.174 38.4621 192.551 38.2094 193.885 38.4561C194.725 38.6061 196.105 39.0361 196.335 40.0061C196.565 40.9761 195.265 41.9961 194.365 42.2561Z" fill="white"/>
<path d="M193.985 31.1461C194.25 31.1461 194.504 31.0408 194.692 30.8532C194.88 30.6657 194.985 30.4113 194.985 30.1461V23.1461C194.985 22.8809 194.88 22.6266 194.692 22.439C194.504 22.2515 194.25 22.1461 193.985 22.1461C193.72 22.1461 193.465 22.2515 193.278 22.439C193.09 22.6266 192.985 22.8809 192.985 23.1461V30.1461C192.985 30.4113 193.09 30.6657 193.278 30.8532C193.465 31.0408 193.72 31.1461 193.985 31.1461Z" fill="#E0E0E0"/>
<path d="M186.595 33.1561C186.77 33.1573 186.942 33.1125 187.095 33.0261C187.209 32.96 187.308 32.872 187.388 32.7673C187.468 32.6626 187.526 32.5431 187.559 32.4159C187.593 32.2886 187.601 32.156 187.583 32.0256C187.565 31.8952 187.521 31.7697 187.455 31.6561L183.985 25.5761C183.922 25.4566 183.836 25.351 183.732 25.2656C183.627 25.1802 183.507 25.1168 183.377 25.0793C183.248 25.0417 183.112 25.0307 182.978 25.047C182.844 25.0632 182.715 25.1064 182.598 25.1739C182.482 25.2414 182.38 25.3318 182.299 25.4397C182.218 25.5476 182.16 25.6708 182.127 25.8018C182.095 25.9327 182.09 26.0689 182.112 26.202C182.134 26.335 182.182 26.4623 182.255 26.5761L185.765 32.6561C185.849 32.803 185.97 32.9259 186.115 33.0134C186.26 33.1008 186.425 33.15 186.595 33.1561Z" fill="#E0E0E0"/>
<path d="M181.175 38.5761C181.396 38.5777 181.612 38.5057 181.788 38.3715C181.964 38.2373 182.091 38.0484 182.148 37.8345C182.205 37.6206 182.19 37.3937 182.104 37.1895C182.018 36.9853 181.867 36.8153 181.675 36.7061L175.585 33.1961C175.356 33.0766 175.09 33.05 174.843 33.1218C174.595 33.1937 174.385 33.3585 174.256 33.5818C174.126 33.8051 174.089 34.0696 174.15 34.3201C174.211 34.5706 174.367 34.7878 174.585 34.9261L180.675 38.4461C180.827 38.5325 181 38.5773 181.175 38.5761Z" fill="#E0E0E0"/>
<path d="M172.175 46.0361H179.175C179.44 46.0361 179.694 45.9308 179.882 45.7432C180.069 45.5557 180.175 45.3013 180.175 45.0361C180.175 44.7709 180.069 44.5166 179.882 44.329C179.694 44.1415 179.44 44.0361 179.175 44.0361H172.175C171.91 44.0361 171.655 44.1415 171.468 44.329C171.28 44.5166 171.175 44.7709 171.175 45.0361C171.175 45.3013 171.28 45.5557 171.468 45.7432C171.655 45.9308 171.91 46.0361 172.175 46.0361Z" fill="#E0E0E0"/>
<path d="M175.125 56.9661C175.301 56.9643 175.473 56.916 175.625 56.8261L181.715 53.3161C181.834 53.2536 181.94 53.1676 182.025 53.0632C182.111 52.9588 182.174 52.8382 182.212 52.7087C182.249 52.5791 182.26 52.4433 182.244 52.3095C182.228 52.1756 182.185 52.0464 182.117 51.9296C182.05 51.8128 181.959 51.7109 181.851 51.63C181.743 51.5491 181.62 51.4908 181.489 51.4588C181.358 51.4267 181.222 51.4214 181.089 51.4433C180.956 51.4652 180.829 51.5138 180.715 51.5861L174.635 55.0961C174.52 55.1615 174.42 55.2488 174.339 55.3532C174.258 55.4575 174.199 55.5768 174.165 55.7041C174.13 55.8315 174.121 55.9644 174.139 56.0951C174.156 56.2259 174.199 56.352 174.265 56.4661C174.352 56.6173 174.477 56.7429 174.628 56.8307C174.779 56.9184 174.95 56.9651 175.125 56.9661Z" fill="#E0E0E0"/>
<path d="M212.985 56.8961C213.206 56.8977 213.422 56.8257 213.598 56.6915C213.774 56.5573 213.901 56.3684 213.958 56.1545C214.015 55.9406 214 55.7137 213.914 55.5095C213.828 55.3053 213.677 55.1353 213.485 55.0261L207.405 51.5161C207.174 51.3835 206.9 51.348 206.643 51.4174C206.386 51.4868 206.167 51.6554 206.035 51.8861C205.902 52.1169 205.867 52.3908 205.936 52.6478C206.005 52.9047 206.174 53.1235 206.405 53.2561L212.485 56.7661C212.637 56.8525 212.81 56.8974 212.985 56.8961Z" fill="#E0E0E0"/>
<path d="M208.895 45.9561H215.895C216.16 45.9561 216.414 45.8508 216.602 45.6632C216.789 45.4757 216.895 45.2213 216.895 44.9561C216.895 44.6909 216.789 44.4366 216.602 44.249C216.414 44.0615 216.16 43.9561 215.895 43.9561H208.895C208.63 43.9561 208.375 44.0615 208.188 44.249C208 44.4366 207.895 44.6909 207.895 44.9561C207.895 45.2213 208 45.4757 208.188 45.6632C208.375 45.8508 208.63 45.9561 208.895 45.9561Z" fill="#E0E0E0"/>
<path d="M206.885 38.5761C207.06 38.5773 207.232 38.5325 207.385 38.4461L213.465 34.9361C213.579 34.8705 213.679 34.783 213.76 34.6786C213.84 34.5742 213.899 34.455 213.934 34.3278C213.968 34.2006 213.977 34.0678 213.96 33.9371C213.943 33.8064 213.9 33.6804 213.835 33.5661C213.769 33.4519 213.682 33.3517 213.577 33.2713C213.473 33.1908 213.354 33.1318 213.226 33.0974C213.099 33.063 212.967 33.0541 212.836 33.071C212.705 33.088 212.579 33.1305 212.465 33.1961L206.385 36.7061C206.27 36.7715 206.17 36.8588 206.089 36.9632C206.008 37.0675 205.949 37.1868 205.915 37.3141C205.88 37.4415 205.871 37.5744 205.889 37.7051C205.906 37.8359 205.949 37.962 206.015 38.0761C206.103 38.2287 206.23 38.3554 206.383 38.4432C206.535 38.531 206.709 38.5768 206.885 38.5761Z" fill="#E0E0E0"/>
<path d="M201.435 33.1161C201.611 33.1168 201.784 33.071 201.937 32.9832C202.09 32.8954 202.217 32.7687 202.305 32.6161L205.815 26.5761C205.887 26.4623 205.936 26.335 205.958 26.202C205.98 26.0689 205.974 25.9327 205.942 25.8018C205.91 25.6708 205.852 25.5476 205.771 25.4397C205.69 25.3318 205.588 25.2414 205.471 25.1739C205.355 25.1064 205.225 25.0632 205.092 25.047C204.958 25.0307 204.822 25.0417 204.692 25.0793C204.563 25.1168 204.442 25.1802 204.338 25.2656C204.233 25.351 204.147 25.4566 204.085 25.5761L200.565 31.6561C200.477 31.8084 200.431 31.9813 200.431 32.1571C200.431 32.333 200.478 32.5057 200.566 32.6579C200.654 32.81 200.781 32.9362 200.933 33.0237C201.086 33.1111 201.259 33.1568 201.435 33.1561V33.1161Z" fill="#E0E0E0"/>
</svg>
