<svg width="39" height="40" viewBox="0 0 39 40" fill="none" xmlns="http://www.w3.org/2000/svg">
<path d="M36.3799 26.1237C37.4766 23.1795 37.7027 19.9553 37.2131 16.8627C36.7065 13.7319 35.4964 10.7562 33.6736 8.15885C31.8522 5.55766 29.4005 3.37415 26.5464 1.9638C22.9606 0.191747 18.8468 -0.444559 14.9093 0.31616C11.3116 1.00944 8.1006 3.01319 5.90024 5.93802C4.89875 7.27032 4.16782 8.78521 3.74855 10.3975C3.73787 10.4392 3.72808 10.4863 3.71829 10.5237C2.45118 11.9625 1.4791 13.6355 0.857095 15.4479C-0.185362 18.4321 -0.250353 21.6883 0.517913 24.7445C1.29482 27.7783 2.80236 30.5767 4.90941 32.8964C7.02637 35.2301 9.72822 37.0386 12.7434 37.9744C13.8084 38.3024 14.9039 38.5218 16.0132 38.6294C17.4812 39.4212 19.1174 39.9304 20.7893 39.9944C22.5235 40.049 24.247 39.7041 25.8262 38.9866C28.4506 37.8118 30.6779 35.7358 32.1085 33.2386C34.219 33.1052 36.3086 32.7423 38.3401 32.1562C38.5956 32.0815 39.0817 31.8522 38.9882 31.5065C38.8948 31.1608 38.3482 31.1964 38.098 31.2684C37.2861 31.5053 36.4641 31.7035 35.632 31.8629L35.5582 31.8744L35.6142 31.8664C35.576 31.8718 35.5377 31.8807 35.5003 31.8869L35.1602 31.9464C34.951 31.9811 34.7427 32.0131 34.5371 32.0433C34.1216 32.1025 33.7023 32.1529 33.2792 32.1944C33.0614 32.2157 32.8433 32.2344 32.6249 32.2504C32.6534 32.1899 32.681 32.1286 32.7086 32.0673C34.3041 30.3404 35.5507 28.3223 36.3799 26.1237ZM26.5606 35.559C26.4716 35.6087 26.3773 35.6567 26.2847 35.7047C25.6077 36.055 24.9109 36.366 24.198 36.636L23.9549 36.7249L23.8659 36.7578C23.6772 36.8218 23.4894 36.8849 23.2997 36.9435C22.9436 37.0537 22.5876 37.1539 22.2315 37.2439C22.0472 37.2892 21.862 37.3328 21.6769 37.3728L21.424 37.4252L21.2754 37.4554C21.2458 37.4597 21.2159 37.4597 21.1863 37.4554C21.0332 37.4714 20.8676 37.5221 20.7234 37.5443C20.5365 37.5727 20.3489 37.5979 20.1608 37.6198C19.7851 37.6643 19.4086 37.6965 19.0311 37.7167C18.8735 37.7256 18.7151 37.7371 18.5575 37.7362H18.351C18.2477 37.7362 18.1444 37.7362 18.0421 37.7362C17.6913 37.7309 17.3414 37.7131 16.9925 37.6865C16.9382 37.6554 16.883 37.6243 16.8296 37.5923C15.3393 36.7178 14.0823 35.5918 12.9313 34.297C14.4398 34.3906 15.9541 34.3259 17.4492 34.1042C17.9804 34.2223 18.5195 34.3022 19.0623 34.3432C21.3208 34.5139 23.5241 33.9682 25.4888 32.9329C26.3879 33.0721 27.293 33.1719 28.204 33.2324C28.7536 33.2691 29.304 33.2895 29.8554 33.2937L29.8402 33.3079C29.7129 33.4172 29.5847 33.5238 29.4548 33.6305L29.315 33.7416C29.234 33.8065 29.1512 33.8696 29.0684 33.9326C28.7657 34.1637 28.4562 34.3862 28.1399 34.6001C27.8236 34.8139 27.5013 35.0183 27.1731 35.2133C27.0093 35.311 26.844 35.4061 26.6773 35.4985C26.647 35.5154 26.6158 35.5314 26.5882 35.5492L26.6354 35.5216L26.5606 35.559ZM5.21386 10.5761C5.28508 10.4997 5.35809 10.4241 5.43198 10.3504C5.57619 10.2046 5.72457 10.0633 5.87709 9.92646C5.95721 9.85477 6.03822 9.78367 6.12012 9.71317L6.20914 9.63763L6.26166 9.59498L6.29995 9.56388C6.63563 9.30138 6.9851 9.05694 7.34686 8.8316C7.42698 8.78272 7.5071 8.73473 7.58811 8.68763C7.62371 8.66719 7.88544 8.50989 7.70918 8.61742C7.89369 8.5111 8.08422 8.41556 8.27981 8.33126C8.4543 8.2495 8.63234 8.17277 8.81395 8.10108C8.90297 8.06643 8.98398 8.03354 9.06945 8.00155C9.10416 7.98822 9.14512 7.96778 9.1834 7.95534L9.23146 7.94378C9.61123 7.81585 9.99754 7.70818 10.3888 7.6212C10.4867 7.59898 10.5846 7.57854 10.6825 7.55899C10.6968 7.5562 10.7107 7.55233 10.7244 7.54743L10.768 7.54122C10.1009 8.19505 9.48879 8.90245 8.93769 9.65629C7.30115 11.9087 6.22074 14.5152 5.7845 17.2635C5.53866 16.606 5.34343 15.9307 5.20052 15.2435C4.87407 13.7043 4.878 12.1136 5.21208 10.5761H5.21386ZM15.0358 5.61631L15.066 5.60031C15.1639 5.54788 15.2628 5.49722 15.3634 5.44746C15.7194 5.26972 16.0853 5.10442 16.4574 4.95957C16.5393 4.92757 16.6221 4.89647 16.7049 4.8707L16.7548 4.85204L16.7895 4.8396L16.8304 4.82626C17.0236 4.76228 17.2177 4.70185 17.4135 4.64853C17.5836 4.59965 17.7545 4.55965 17.9263 4.51344C17.9797 4.501 18.5263 4.34548 18.5495 4.37925C18.5495 4.37214 18.3714 4.41035 18.4979 4.38902L18.6545 4.36237C18.7435 4.34815 18.8326 4.33393 18.9216 4.32149C19.1234 4.29246 19.3258 4.26757 19.5287 4.24684C19.7139 4.22788 19.8994 4.21277 20.0851 4.20151C20.1741 4.19618 20.2632 4.19174 20.3522 4.18819L20.5115 4.18285H20.5293C20.9193 4.18285 21.3092 4.18818 21.6982 4.21484C22.0872 4.2415 22.4736 4.28683 22.8555 4.34371H22.8671H22.8902L22.9953 4.36237C23.0991 4.38014 23.2033 4.3997 23.3077 4.42103C23.4983 4.45894 23.6879 4.501 23.8766 4.54721C24.2535 4.63964 24.6253 4.74776 24.9921 4.87159C25.1588 4.92787 25.3241 4.98712 25.4879 5.04933L25.5983 5.09198L25.6624 5.11776C25.7674 5.1613 25.8716 5.20663 25.9758 5.25284C26.6631 5.5571 27.321 5.92359 27.9414 6.3477C28.2357 6.54737 28.5191 6.76244 28.7907 6.992C29.0838 7.24084 29.3638 7.50485 29.6292 7.78294C30.7594 8.97838 31.6181 10.403 32.1468 11.9598C33.0869 14.6578 33.1483 17.571 32.6195 20.3641C32.5928 20.2966 32.5652 20.229 32.5376 20.1615C32.6446 19.0895 32.6345 18.009 32.5074 16.9391C32.1513 13.962 30.8159 11.0311 28.512 9.05821C25.9072 6.82582 22.3864 5.97978 19.0106 6.3717C18.2798 6.45687 17.5566 6.59799 16.8474 6.79382C15.8375 6.57215 14.8095 6.44335 13.7761 6.40903C13.9874 6.2615 14.2016 6.11961 14.4188 5.98334C14.5921 5.87551 14.7678 5.77183 14.9458 5.6723C14.9743 5.64919 15.0046 5.63053 15.0358 5.61631ZM16.7049 4.86537C16.73 4.85431 16.7559 4.8451 16.7824 4.83782L16.7049 4.86537ZM32.3222 26.8649C32.3229 27.7159 32.243 28.5652 32.0836 29.4012C32.0071 29.7905 31.9109 30.177 31.7961 30.5565C31.6812 30.936 31.5575 31.2843 31.424 31.6069C31.383 31.7047 31.3412 31.8016 31.2984 31.8984C31.1631 32.0424 31.0254 32.1846 30.8854 32.325C30.0604 32.3315 29.2361 32.3019 28.4123 32.2361C27.9903 32.2041 27.5693 32.1627 27.1491 32.1117C27.0601 32.1019 26.971 32.0895 26.8865 32.078C27.4774 31.6706 28.0373 31.2203 28.5619 30.7307C30.0833 29.2927 31.3408 27.6 32.2777 25.7291C32.3079 26.1095 32.3228 26.4878 32.3222 26.864V26.8649ZM23.3309 32.8804C23.1359 32.9453 22.941 33.0075 22.7425 33.0582C22.5597 33.1097 22.3757 33.1559 22.1905 33.1968C22.1015 33.2164 22.0125 33.2332 21.9279 33.2519H21.9172L21.7543 33.2786C21.3634 33.3402 20.9693 33.3788 20.5739 33.3941C21.4205 33.1352 22.2496 32.822 23.0558 32.4565C23.3389 32.5241 23.6238 32.5863 23.9078 32.6458C23.8356 32.6769 23.7635 32.7071 23.6905 32.7347C23.6175 32.7622 23.5232 32.8013 23.4395 32.8324L23.3309 32.8804ZM8.38308 20.2681C8.37804 18.6529 8.63538 17.0475 9.14511 15.5145C9.39316 14.7701 9.70717 14.0492 10.0834 13.3604C10.2766 13.0049 10.4858 12.6583 10.7066 12.3224C10.8087 12.1695 10.9137 12.0187 11.0217 11.87C11.076 11.7963 11.1312 11.7225 11.1864 11.6496C11.2122 11.615 11.2389 11.5812 11.2648 11.5474C11.2763 11.5341 11.336 11.4586 11.3466 11.4461C11.8549 10.825 12.4213 10.2537 13.0381 9.73984L13.0559 9.72472L13.0719 9.71228L13.1796 9.62786C13.2586 9.56861 13.3387 9.50937 13.42 9.45012C13.5811 9.33104 13.7467 9.2164 13.9141 9.1062C14.0814 8.996 14.2372 8.89913 14.4019 8.80226C14.4909 8.75072 14.58 8.70185 14.6627 8.65208L14.7073 8.62719L14.8292 8.5641C15.1853 8.38014 15.553 8.20862 15.926 8.06377C16.015 8.02911 16.096 7.99623 16.1824 7.96423L16.3364 7.90736C16.352 7.90195 16.3667 7.89416 16.38 7.88425C16.4227 7.87003 16.469 7.85758 16.5126 7.84603C16.7453 7.90528 16.9762 7.96837 17.2052 8.03532C17.6124 8.15381 18.0144 8.28652 18.4115 8.43345C18.5112 8.46989 18.6109 8.50722 18.7097 8.54543L18.845 8.59787L18.8806 8.61208L18.9163 8.6263C19.1139 8.70717 19.3106 8.78983 19.5056 8.87603C21.0551 9.56272 22.5191 10.4276 23.8677 11.4532C24.5286 11.9598 25.1602 12.5033 25.7594 13.0813C27.9592 15.1875 29.8028 17.7025 30.9788 20.5125C30.9254 20.983 30.8495 21.4498 30.7509 21.9131C30.4588 23.3456 29.9145 24.7149 29.1432 25.9575C28.9331 26.2988 28.7079 26.6303 28.4675 26.952C28.4132 27.0257 28.3571 27.0995 28.301 27.1724L28.2396 27.2515L28.1915 27.311C28.0589 27.4754 27.9245 27.6372 27.782 27.7953C27.2535 28.3939 26.6797 28.951 26.0657 29.4616L25.9766 29.5327L25.9214 29.5772C25.8431 29.6394 25.763 29.7016 25.6829 29.7629C25.5226 29.8861 25.3597 30.0064 25.1941 30.1237C24.8636 30.3607 24.525 30.5832 24.1784 30.7911C24.0128 30.8924 23.8454 30.9905 23.6763 31.0853L23.5552 31.1528H23.549L23.5321 31.1617C23.4342 31.2141 23.3362 31.2666 23.2374 31.3172L23.1778 31.3466C22.495 31.1688 21.8166 30.9618 21.148 30.7334C20.2961 30.4428 19.6605 30.1948 18.8744 29.8447C15.7987 28.4876 12.9784 26.6276 10.6051 24.3135C9.85288 23.5825 9.149 22.8036 8.49792 21.9815C8.42287 21.4131 8.38333 20.8406 8.37952 20.2673L8.38308 20.2681ZM19.956 7.25061H20.1439C20.5445 7.25061 20.9451 7.27017 21.343 7.30838C21.5335 7.32734 21.7231 7.35015 21.9119 7.37681L21.9777 7.38659L22.0872 7.40435C22.1941 7.42302 22.3009 7.44257 22.4077 7.46479C22.7983 7.54294 23.1846 7.64111 23.565 7.75894C23.7368 7.81226 23.9086 7.87003 24.0787 7.93668C24.1677 7.97045 24.2647 8.006 24.3573 8.04244H24.3636L24.3885 8.0531L24.5888 8.14197C24.9451 8.29829 25.2928 8.47361 25.6304 8.66718C25.9688 8.8622 26.2957 9.07644 26.6096 9.30882C26.6844 9.36274 26.7583 9.41871 26.8313 9.47678L26.9052 9.53454L26.9799 9.59587C27.1212 9.71436 27.2592 9.83551 27.3939 9.95934C27.9274 10.455 28.4091 11.0035 28.8316 11.5963C29.0417 11.8925 29.2378 12.1971 29.42 12.5099C29.5895 12.8022 29.744 13.103 29.883 13.411C30.4076 14.5686 30.7617 15.7958 30.9343 17.0546C29.8981 15.4076 28.6653 13.8922 27.263 12.5419C24.8665 10.2242 21.9893 8.40058 18.821 7.34304C18.91 7.33326 18.9928 7.32348 19.0783 7.31549C19.2789 7.29593 19.4792 7.28112 19.6792 7.27105C19.7682 7.25594 19.859 7.25239 19.9507 7.24972L19.956 7.25061ZM9.31069 25.0697C11.8244 27.478 14.7542 29.4119 17.9584 30.7778C19.1365 31.2823 20.3444 31.7144 21.5754 32.0717C21.3973 32.1419 21.2193 32.2104 21.0412 32.2752C21.0056 32.2886 20.97 32.2992 20.9353 32.3135L20.962 32.3028L20.9237 32.317C20.8347 32.3472 20.7457 32.3774 20.6567 32.4059C20.4617 32.4699 20.2649 32.5312 20.0682 32.5889C19.6907 32.7003 19.3103 32.7999 18.9269 32.8875C18.7489 32.9302 18.5619 32.9693 18.3777 33.0066C18.2949 33.0235 18.2112 33.0422 18.1266 33.0564L18.0892 33.0617L17.9245 33.0902C17.7216 33.0374 17.5198 32.9782 17.3192 32.9124C17.1483 32.8579 16.9785 32.7987 16.81 32.7347L16.6595 32.6778L16.5705 32.6414L16.5055 32.6147L16.307 32.5259C15.9598 32.373 15.62 32.2044 15.2877 32.0202C13.8973 31.2512 12.6602 30.234 11.6378 29.0191C10.6051 27.8279 9.79331 26.4625 9.24036 24.9871C9.25995 25.0209 9.28488 25.0457 9.31069 25.0697ZM20.5187 33.3985C20.459 33.3932 20.3994 33.3737 20.5187 33.3985ZM24.5843 31.6834C27.077 30.2766 29.2616 28.3063 30.7153 25.8313C30.7768 25.7265 30.8364 25.6207 30.8934 25.515C30.7153 25.8607 30.5373 26.2055 30.3325 26.5512C29.9259 27.2543 29.473 27.9297 28.9767 28.573L28.9313 28.6316L28.8476 28.7356C28.7898 28.8076 28.731 28.8796 28.6696 28.9506C28.5396 29.1071 28.4064 29.2608 28.2699 29.4119C27.9992 29.7134 27.7173 30.004 27.4242 30.2837C27.2787 30.4223 27.1304 30.558 26.979 30.6907C26.9105 30.7511 26.8419 30.8107 26.7716 30.8684L26.6675 30.9573L26.6274 30.9911L26.614 31.0017C26.3016 31.2488 25.982 31.4852 25.6499 31.7056C25.5734 31.7562 25.4959 31.8033 25.4185 31.8522C25.1416 31.7989 24.863 31.7438 24.5843 31.6834ZM12.5556 7.36348H12.7568C12.8458 7.36348 12.941 7.36348 13.0336 7.36348C13.2562 7.36348 13.4787 7.3768 13.7013 7.39102C14.0811 7.41472 14.4601 7.45323 14.8381 7.50656C12.9705 8.33122 11.3257 9.5867 10.0389 11.1697C8.99428 12.4766 8.18409 13.9541 7.64419 15.5368C7.75636 15.0972 7.88604 14.6614 8.03322 14.2295C8.2858 13.4935 8.59043 12.7763 8.94481 12.0833C9.31658 11.3508 9.74084 10.646 10.2143 9.97445C10.3273 9.81449 10.4431 9.65718 10.5615 9.50077L10.6505 9.39058L10.6719 9.36214C10.6772 9.35503 10.6834 9.34703 10.6923 9.33726C10.7618 9.24839 10.8321 9.15951 10.9033 9.07686C11.1633 8.76345 11.4354 8.45953 11.7197 8.16508C11.9885 7.88662 12.268 7.62002 12.5582 7.36526C12.5805 7.36526 12.6028 7.36526 12.625 7.36526L12.5556 7.36348ZM10.3238 29.7887C11.657 31.3192 13.3093 32.5403 15.1648 33.3666H15.1364C14.9467 33.3719 14.7571 33.3666 14.5675 33.3666C14.1669 33.363 13.7666 33.3473 13.3666 33.3194C13.0416 33.2981 12.601 33.419 12.3971 33.6998C11.3636 32.4593 10.4584 31.1176 9.69528 29.6954C9.28771 28.936 8.92362 28.1542 8.60475 27.3537C9.09187 28.2225 9.66796 29.0385 10.3238 29.7887ZM34.465 12.8849C35.0309 14.2995 35.4376 15.7725 35.6775 17.2768C35.9169 18.7403 35.9746 20.2276 35.8493 21.7052C35.7256 23.2282 35.3998 24.728 34.8807 26.1655C34.854 26.2393 34.8264 26.3121 34.7988 26.3859L34.7632 26.4748C34.7507 26.5067 34.7383 26.5387 34.7249 26.5707C34.6501 26.7556 34.5724 26.9387 34.4917 27.1199C34.3403 27.4582 34.178 27.7918 34.0047 28.1206C33.9157 28.293 33.8195 28.4636 33.7225 28.6334C33.8011 28.1035 33.8475 27.5693 33.8614 27.0337C33.8941 25.6626 33.7524 24.2928 33.4394 22.9573C33.5391 22.6605 33.6335 22.3637 33.7199 22.0686C34.6938 18.6712 34.8531 14.8889 33.6709 11.5217C33.4714 10.956 33.2334 10.4046 32.9587 9.87136C33.5458 10.83 34.0497 11.837 34.465 12.8814V12.8849ZM28.5832 4.83426C28.6313 4.87158 28.601 4.84848 28.5832 4.83426ZM6.07917 8.10464C6.43045 7.38633 6.84767 6.70207 7.32549 6.06066C7.38247 5.98334 7.44122 5.90781 7.50354 5.83227L7.52134 5.80916C7.55695 5.7665 7.59078 5.72028 7.62639 5.68029C7.75547 5.52299 7.89346 5.36837 8.02521 5.2164C8.29762 4.91306 8.58368 4.62245 8.88339 4.34459C9.03295 4.20595 9.18547 4.07028 9.34096 3.93757L9.519 3.79094L9.59379 3.7314L9.72554 3.62831C10.0496 3.37948 10.384 3.14516 10.7288 2.92535C10.8935 2.82138 11.06 2.72006 11.2291 2.6232L11.3502 2.55389C11.3591 2.55389 11.3769 2.53789 11.3956 2.52633L11.3734 2.54055C11.4624 2.4819 11.571 2.43569 11.6689 2.38592C12.0345 2.1993 12.4084 2.03074 12.7906 1.88025C12.8894 1.84204 12.9891 1.80382 13.0888 1.76739L13.1627 1.74073L13.2517 1.71052C13.4823 1.6332 13.7155 1.56122 13.9497 1.49456C14.1633 1.43502 14.3779 1.37904 14.5942 1.32927C14.6966 1.30527 14.7998 1.28217 14.9031 1.25995L15.0892 1.22263L15.1364 1.21285H15.1301C15.5858 1.11953 16.0475 1.05806 16.5117 1.02889C16.7432 1.00845 16.9756 0.992453 17.2079 0.982678C17.2969 0.982678 17.3859 0.97557 17.475 0.973793H17.5854H17.7759C18.2423 0.973793 18.7097 0.995116 19.1753 1.03511C19.3872 1.05288 19.5985 1.0748 19.8092 1.10087C19.9365 1.11687 20.0629 1.13376 20.1893 1.15153L20.3157 1.17108L20.3629 1.1782L20.4572 1.1933C23.0433 1.63027 25.4999 2.6353 27.6494 4.13575C27.9627 4.35496 28.269 4.58366 28.5681 4.82183L28.5859 4.83604L28.7052 4.93379L28.9055 5.10087C29.064 5.23595 29.2206 5.3734 29.3755 5.51322C29.7512 5.85507 30.1129 6.21054 30.4607 6.57965C29.4763 5.68919 28.3541 4.96354 27.1375 4.4308C24.6726 3.34613 21.9558 2.96095 19.2858 3.31764C16.6159 3.67433 14.0961 4.75906 12.0036 6.45257C10.5771 6.56694 9.17916 6.91492 7.86586 7.48256C7.15244 7.7964 6.47244 8.18107 5.83613 8.63075C5.90735 8.46012 5.99638 8.28238 6.07917 8.10464ZM12.6419 36.7036L12.5467 36.6663L12.4995 36.6467C12.4105 36.6112 12.3214 36.5747 12.2387 36.5374C12.0606 36.4592 11.8826 36.3783 11.7045 36.293C11.024 35.9694 10.3661 35.6004 9.73533 35.1884C9.42732 34.9869 9.12552 34.776 8.82997 34.5556C8.68575 34.4481 8.54421 34.337 8.40267 34.2259L8.37506 34.2037L8.34836 34.1824L8.26824 34.1166C8.18901 34.0517 8.10978 33.9851 8.03144 33.9184C5.16735 31.4713 3.10812 28.2196 2.12211 24.5872C1.33692 21.6438 1.33781 18.6152 2.27433 15.6869C2.52344 14.9024 2.84161 14.1414 3.2251 13.4128C3.28474 13.2981 3.34706 13.1844 3.41026 13.0715C3.40216 13.941 3.48693 14.8088 3.66309 15.6603C4.01117 17.3488 4.68418 18.9484 5.56996 20.437C5.63494 23.8327 6.59551 27.1706 8.19257 30.1682C9.09214 31.8643 10.1878 33.4492 11.457 34.8907C12.1493 35.6781 12.9036 36.4089 13.7129 37.0759C13.3503 36.9616 12.9933 36.8363 12.6419 36.7V36.7036ZM23.152 38.8915L23.1039 38.8995C23.135 38.8871 23.2855 38.8658 23.152 38.888V38.8915ZM28.9384 35.5039C28.6678 35.7953 28.3844 36.0747 28.0883 36.3419C27.9423 36.4743 27.7918 36.6023 27.6432 36.7285L27.6538 36.7205L27.6423 36.7294L27.596 36.7667L27.5265 36.8209C27.4375 36.8875 27.3565 36.9524 27.2701 37.0164C26.9556 37.2504 26.6292 37.469 26.2909 37.6723C26.2152 37.7185 26.1387 37.7611 26.0621 37.8073L25.9232 37.8864C25.8217 37.9433 25.9072 37.898 25.9428 37.8767C25.7653 37.9833 25.5799 38.0763 25.3882 38.1548C25.2291 38.2295 25.0683 38.3006 24.9057 38.3681C24.8247 38.4019 24.7428 38.4339 24.6618 38.4659L24.514 38.521L24.4766 38.5352C24.1205 38.6516 23.7707 38.7565 23.4083 38.8382C23.3469 38.8515 23.1502 38.8587 23.1048 38.9004L23.0015 38.9173C22.8116 38.9475 22.6214 38.9721 22.4309 38.9911C22.2395 39.0097 22.0481 39.0204 21.8558 39.0293H21.8131H21.7356C21.6297 39.0293 21.5246 39.0293 21.4187 39.0293C21.2246 39.0228 21.0305 39.01 20.8365 38.9911C20.7474 38.9831 20.6584 38.9733 20.5694 38.9617L20.4368 38.944L20.3246 38.9253C19.9516 38.8585 19.5825 38.7716 19.2189 38.6649C20.2609 38.5841 21.2947 38.4207 22.3107 38.1761C24.8702 37.5542 27.2886 36.4538 29.4378 34.9333C29.4031 34.9751 29.3693 35.0169 29.3337 35.0586C29.2061 35.2067 29.0732 35.354 28.9349 35.5003L28.9384 35.5039Z" fill="#3E5888"/>
<path d="M36.3799 26.1237C37.4766 23.1795 37.7027 19.9553 37.2131 16.8627C36.7065 13.7319 35.4964 10.7562 33.6736 8.15885C31.8522 5.55766 29.4005 3.37415 26.5464 1.9638C22.9606 0.191747 18.8468 -0.444559 14.9093 0.31616C11.3116 1.00944 8.1006 3.01319 5.90024 5.93802C4.89875 7.27032 4.16782 8.78521 3.74855 10.3975C3.73787 10.4392 3.72808 10.4863 3.71829 10.5237C2.45118 11.9625 1.4791 13.6355 0.857095 15.4479C-0.185362 18.4321 -0.250353 21.6883 0.517913 24.7445C1.29482 27.7783 2.80236 30.5767 4.90941 32.8964C7.02637 35.2301 9.72822 37.0386 12.7434 37.9744C13.8084 38.3024 14.9039 38.5218 16.0132 38.6294C17.4812 39.4212 19.1174 39.9304 20.7893 39.9944C22.5235 40.049 24.247 39.7041 25.8262 38.9866C28.4506 37.8118 30.6779 35.7358 32.1085 33.2386C34.219 33.1052 36.3086 32.7423 38.3401 32.1562C38.5956 32.0815 39.0817 31.8522 38.9882 31.5065C38.8948 31.1608 38.3482 31.1964 38.098 31.2684C37.2861 31.5053 36.4641 31.7035 35.632 31.8629L35.5582 31.8744L35.6142 31.8664C35.576 31.8718 35.5377 31.8807 35.5003 31.8869L35.1602 31.9464C34.951 31.9811 34.7427 32.0131 34.5371 32.0433C34.1216 32.1025 33.7023 32.1529 33.2792 32.1944C33.0614 32.2157 32.8433 32.2344 32.6249 32.2504C32.6534 32.1899 32.681 32.1286 32.7086 32.0673C34.3041 30.3404 35.5507 28.3223 36.3799 26.1237ZM26.5606 35.559C26.4716 35.6087 26.3773 35.6567 26.2847 35.7047C25.6077 36.055 24.9109 36.366 24.198 36.636L23.9549 36.7249L23.8659 36.7578C23.6772 36.8218 23.4894 36.8849 23.2997 36.9435C22.9436 37.0537 22.5876 37.1539 22.2315 37.2439C22.0472 37.2892 21.862 37.3328 21.6769 37.3728L21.424 37.4252L21.2754 37.4554C21.2458 37.4597 21.2159 37.4597 21.1863 37.4554C21.0332 37.4714 20.8676 37.5221 20.7234 37.5443C20.5365 37.5727 20.3489 37.5979 20.1608 37.6198C19.7851 37.6643 19.4086 37.6965 19.0311 37.7167C18.8735 37.7256 18.7151 37.7371 18.5575 37.7362H18.351C18.2477 37.7362 18.1444 37.7362 18.0421 37.7362C17.6913 37.7309 17.3414 37.7131 16.9925 37.6865C16.9382 37.6554 16.883 37.6243 16.8296 37.5923C15.3393 36.7178 14.0823 35.5918 12.9313 34.297C14.4398 34.3906 15.9541 34.3259 17.4492 34.1042C17.9804 34.2223 18.5195 34.3022 19.0623 34.3432C21.3208 34.5139 23.5241 33.9682 25.4888 32.9329C26.3879 33.0721 27.293 33.1719 28.204 33.2324C28.7536 33.2691 29.304 33.2895 29.8554 33.2937L29.8402 33.3079C29.7129 33.4172 29.5847 33.5238 29.4548 33.6305L29.315 33.7416C29.234 33.8065 29.1512 33.8696 29.0684 33.9326C28.7657 34.1637 28.4562 34.3862 28.1399 34.6001C27.8236 34.8139 27.5013 35.0183 27.1731 35.2133C27.0093 35.311 26.844 35.4061 26.6773 35.4985C26.647 35.5154 26.6158 35.5314 26.5882 35.5492L26.6354 35.5216L26.5606 35.559ZM5.21386 10.5761C5.28508 10.4997 5.35809 10.4241 5.43198 10.3504C5.57619 10.2046 5.72457 10.0633 5.87709 9.92646C5.95721 9.85477 6.03822 9.78367 6.12012 9.71317L6.20914 9.63763L6.26166 9.59498L6.29995 9.56388C6.63563 9.30138 6.9851 9.05694 7.34686 8.8316C7.42698 8.78272 7.5071 8.73473 7.58811 8.68763C7.62371 8.66719 7.88544 8.50989 7.70918 8.61742C7.89369 8.5111 8.08422 8.41556 8.27981 8.33126C8.4543 8.2495 8.63234 8.17277 8.81395 8.10108C8.90297 8.06643 8.98398 8.03354 9.06945 8.00155C9.10416 7.98822 9.14512 7.96778 9.1834 7.95534L9.23146 7.94378C9.61123 7.81585 9.99754 7.70818 10.3888 7.6212C10.4867 7.59898 10.5846 7.57854 10.6825 7.55899C10.6968 7.5562 10.7107 7.55233 10.7244 7.54743L10.768 7.54122C10.1009 8.19505 9.48879 8.90245 8.93769 9.65629C7.30115 11.9087 6.22074 14.5152 5.7845 17.2635C5.53866 16.606 5.34343 15.9307 5.20052 15.2435C4.87407 13.7043 4.878 12.1136 5.21208 10.5761H5.21386ZM15.0358 5.61631L15.066 5.60031C15.1639 5.54788 15.2628 5.49722 15.3634 5.44746C15.7194 5.26972 16.0853 5.10442 16.4574 4.95957C16.5393 4.92757 16.6221 4.89647 16.7049 4.8707L16.7548 4.85204L16.7895 4.8396L16.8304 4.82626C17.0236 4.76228 17.2177 4.70185 17.4135 4.64853C17.5836 4.59965 17.7545 4.55965 17.9263 4.51344C17.9797 4.501 18.5263 4.34548 18.5495 4.37925C18.5495 4.37214 18.3714 4.41035 18.4979 4.38902L18.6545 4.36237C18.7435 4.34815 18.8326 4.33393 18.9216 4.32149C19.1234 4.29246 19.3258 4.26757 19.5287 4.24684C19.7139 4.22788 19.8994 4.21277 20.0851 4.20151C20.1741 4.19618 20.2632 4.19174 20.3522 4.18819L20.5115 4.18285H20.5293C20.9193 4.18285 21.3092 4.18818 21.6982 4.21484C22.0872 4.2415 22.4736 4.28683 22.8555 4.34371H22.8671H22.8902L22.9953 4.36237C23.0991 4.38014 23.2033 4.3997 23.3077 4.42103C23.4983 4.45894 23.6879 4.501 23.8766 4.54721C24.2535 4.63964 24.6253 4.74776 24.9921 4.87159C25.1588 4.92787 25.3241 4.98712 25.4879 5.04933L25.5983 5.09198L25.6624 5.11776C25.7674 5.1613 25.8716 5.20663 25.9758 5.25284C26.6631 5.5571 27.321 5.92359 27.9414 6.3477C28.2357 6.54737 28.5191 6.76244 28.7907 6.992C29.0838 7.24084 29.3638 7.50485 29.6292 7.78294C30.7594 8.97838 31.6181 10.403 32.1468 11.9598C33.0869 14.6578 33.1483 17.571 32.6195 20.3641C32.5928 20.2966 32.5652 20.229 32.5376 20.1615C32.6446 19.0895 32.6345 18.009 32.5074 16.9391C32.1513 13.962 30.8159 11.0311 28.512 9.05821C25.9072 6.82582 22.3864 5.97978 19.0106 6.3717C18.2798 6.45687 17.5566 6.59799 16.8474 6.79382C15.8375 6.57215 14.8095 6.44335 13.7761 6.40903C13.9874 6.2615 14.2016 6.11961 14.4188 5.98334C14.5921 5.87551 14.7678 5.77183 14.9458 5.6723C14.9743 5.64919 15.0046 5.63053 15.0358 5.61631ZM16.7049 4.86537C16.73 4.85431 16.7559 4.8451 16.7824 4.83782L16.7049 4.86537ZM32.3222 26.8649C32.3229 27.7159 32.243 28.5652 32.0836 29.4012C32.0071 29.7905 31.9109 30.177 31.7961 30.5565C31.6812 30.936 31.5575 31.2843 31.424 31.6069C31.383 31.7047 31.3412 31.8016 31.2984 31.8984C31.1631 32.0424 31.0254 32.1846 30.8854 32.325C30.0604 32.3315 29.2361 32.3019 28.4123 32.2361C27.9903 32.2041 27.5693 32.1627 27.1491 32.1117C27.0601 32.1019 26.971 32.0895 26.8865 32.078C27.4774 31.6706 28.0373 31.2203 28.5619 30.7307C30.0833 29.2927 31.3408 27.6 32.2777 25.7291C32.3079 26.1095 32.3228 26.4878 32.3222 26.864V26.8649ZM23.3309 32.8804C23.1359 32.9453 22.941 33.0075 22.7425 33.0582C22.5597 33.1097 22.3757 33.1559 22.1905 33.1968C22.1015 33.2164 22.0125 33.2332 21.9279 33.2519H21.9172L21.7543 33.2786C21.3634 33.3402 20.9693 33.3788 20.5739 33.3941C21.4205 33.1352 22.2496 32.822 23.0558 32.4565C23.3389 32.5241 23.6238 32.5863 23.9078 32.6458C23.8356 32.6769 23.7635 32.7071 23.6905 32.7347C23.6175 32.7622 23.5232 32.8013 23.4395 32.8324L23.3309 32.8804ZM8.38308 20.2681C8.37804 18.6529 8.63538 17.0475 9.14511 15.5145C9.39316 14.7701 9.70717 14.0492 10.0834 13.3604C10.2766 13.0049 10.4858 12.6583 10.7066 12.3224C10.8087 12.1695 10.9137 12.0187 11.0217 11.87C11.076 11.7963 11.1312 11.7225 11.1864 11.6496C11.2122 11.615 11.2389 11.5812 11.2648 11.5474C11.2763 11.5341 11.336 11.4586 11.3466 11.4461C11.8549 10.825 12.4213 10.2537 13.0381 9.73984L13.0559 9.72472L13.0719 9.71228L13.1796 9.62786C13.2586 9.56861 13.3387 9.50937 13.42 9.45012C13.5811 9.33104 13.7467 9.2164 13.9141 9.1062C14.0814 8.996 14.2372 8.89913 14.4019 8.80226C14.4909 8.75072 14.58 8.70185 14.6627 8.65208L14.7073 8.62719L14.8292 8.5641C15.1853 8.38014 15.553 8.20862 15.926 8.06377C16.015 8.02911 16.096 7.99623 16.1824 7.96423L16.3364 7.90736C16.352 7.90195 16.3667 7.89416 16.38 7.88425C16.4227 7.87003 16.469 7.85758 16.5126 7.84603C16.7453 7.90528 16.9762 7.96837 17.2052 8.03532C17.6124 8.15381 18.0144 8.28652 18.4115 8.43345C18.5112 8.46989 18.6109 8.50722 18.7097 8.54543L18.845 8.59787L18.8806 8.61208L18.9163 8.6263C19.1139 8.70717 19.3106 8.78983 19.5056 8.87603C21.0551 9.56272 22.5191 10.4276 23.8677 11.4532C24.5286 11.9598 25.1602 12.5033 25.7594 13.0813C27.9592 15.1875 29.8028 17.7025 30.9788 20.5125C30.9254 20.983 30.8495 21.4498 30.7509 21.9131C30.4588 23.3456 29.9145 24.7149 29.1432 25.9575C28.9331 26.2988 28.7079 26.6303 28.4675 26.952C28.4132 27.0257 28.3571 27.0995 28.301 27.1724L28.2396 27.2515L28.1915 27.311C28.0589 27.4754 27.9245 27.6372 27.782 27.7953C27.2535 28.3939 26.6797 28.951 26.0657 29.4616L25.9766 29.5327L25.9214 29.5772C25.8431 29.6394 25.763 29.7016 25.6829 29.7629C25.5226 29.8861 25.3597 30.0064 25.1941 30.1237C24.8636 30.3607 24.525 30.5832 24.1784 30.7911C24.0128 30.8924 23.8454 30.9905 23.6763 31.0853L23.5552 31.1528H23.549L23.5321 31.1617C23.4342 31.2141 23.3362 31.2666 23.2374 31.3172L23.1778 31.3466C22.495 31.1688 21.8166 30.9618 21.148 30.7334C20.2961 30.4428 19.6605 30.1948 18.8744 29.8447C15.7987 28.4876 12.9784 26.6276 10.6051 24.3135C9.85288 23.5825 9.149 22.8036 8.49792 21.9815C8.42287 21.4131 8.38333 20.8406 8.37952 20.2673L8.38308 20.2681ZM19.956 7.25061H20.1439C20.5445 7.25061 20.9451 7.27017 21.343 7.30838C21.5335 7.32734 21.7231 7.35015 21.9119 7.37681L21.9777 7.38659L22.0872 7.40435C22.1941 7.42302 22.3009 7.44257 22.4077 7.46479C22.7983 7.54294 23.1846 7.64111 23.565 7.75894C23.7368 7.81226 23.9086 7.87003 24.0787 7.93668C24.1677 7.97045 24.2647 8.006 24.3573 8.04244H24.3636L24.3885 8.0531L24.5888 8.14197C24.9451 8.29829 25.2928 8.47361 25.6304 8.66718C25.9688 8.8622 26.2957 9.07644 26.6096 9.30882C26.6844 9.36274 26.7583 9.41871 26.8313 9.47678L26.9052 9.53454L26.9799 9.59587C27.1212 9.71436 27.2592 9.83551 27.3939 9.95934C27.9274 10.455 28.4091 11.0035 28.8316 11.5963C29.0417 11.8925 29.2378 12.1971 29.42 12.5099C29.5895 12.8022 29.744 13.103 29.883 13.411C30.4076 14.5686 30.7617 15.7958 30.9343 17.0546C29.8981 15.4076 28.6653 13.8922 27.263 12.5419C24.8665 10.2242 21.9893 8.40058 18.821 7.34304C18.91 7.33326 18.9928 7.32348 19.0783 7.31549C19.2789 7.29593 19.4792 7.28112 19.6792 7.27105C19.7682 7.25594 19.859 7.25239 19.9507 7.24972L19.956 7.25061ZM9.31069 25.0697C11.8244 27.478 14.7542 29.4119 17.9584 30.7778C19.1365 31.2823 20.3444 31.7144 21.5754 32.0717C21.3973 32.1419 21.2193 32.2104 21.0412 32.2752C21.0056 32.2886 20.97 32.2992 20.9353 32.3135L20.962 32.3028L20.9237 32.317C20.8347 32.3472 20.7457 32.3774 20.6567 32.4059C20.4617 32.4699 20.2649 32.5312 20.0682 32.5889C19.6907 32.7003 19.3103 32.7999 18.9269 32.8875C18.7489 32.9302 18.5619 32.9693 18.3777 33.0066C18.2949 33.0235 18.2112 33.0422 18.1266 33.0564L18.0892 33.0617L17.9245 33.0902C17.7216 33.0374 17.5198 32.9782 17.3192 32.9124C17.1483 32.8579 16.9785 32.7987 16.81 32.7347L16.6595 32.6778L16.5705 32.6414L16.5055 32.6147L16.307 32.5259C15.9598 32.373 15.62 32.2044 15.2877 32.0202C13.8973 31.2512 12.6602 30.234 11.6378 29.0191C10.6051 27.8279 9.79331 26.4625 9.24036 24.9871C9.25995 25.0209 9.28488 25.0457 9.31069 25.0697ZM20.5187 33.3985C20.459 33.3932 20.3994 33.3737 20.5187 33.3985ZM24.5843 31.6834C27.077 30.2766 29.2616 28.3063 30.7153 25.8313C30.7768 25.7265 30.8364 25.6207 30.8934 25.515C30.7153 25.8607 30.5373 26.2055 30.3325 26.5512C29.9259 27.2543 29.473 27.9297 28.9767 28.573L28.9313 28.6316L28.8476 28.7356C28.7898 28.8076 28.731 28.8796 28.6696 28.9506C28.5396 29.1071 28.4064 29.2608 28.2699 29.4119C27.9992 29.7134 27.7173 30.004 27.4242 30.2837C27.2787 30.4223 27.1304 30.558 26.979 30.6907C26.9105 30.7511 26.8419 30.8107 26.7716 30.8684L26.6675 30.9573L26.6274 30.9911L26.614 31.0017C26.3016 31.2488 25.982 31.4852 25.6499 31.7056C25.5734 31.7562 25.4959 31.8033 25.4185 31.8522C25.1416 31.7989 24.863 31.7438 24.5843 31.6834ZM12.5556 7.36348H12.7568C12.8458 7.36348 12.941 7.36348 13.0336 7.36348C13.2562 7.36348 13.4787 7.3768 13.7013 7.39102C14.0811 7.41472 14.4601 7.45323 14.8381 7.50656C12.9705 8.33122 11.3257 9.5867 10.0389 11.1697C8.99428 12.4766 8.18409 13.9541 7.64419 15.5368C7.75636 15.0972 7.88604 14.6614 8.03322 14.2295C8.2858 13.4935 8.59043 12.7763 8.94481 12.0833C9.31658 11.3508 9.74084 10.646 10.2143 9.97445C10.3273 9.81449 10.4431 9.65718 10.5615 9.50077L10.6505 9.39058L10.6719 9.36214C10.6772 9.35503 10.6834 9.34703 10.6923 9.33726C10.7618 9.24839 10.8321 9.15951 10.9033 9.07686C11.1633 8.76345 11.4354 8.45953 11.7197 8.16508C11.9885 7.88662 12.268 7.62002 12.5582 7.36526C12.5805 7.36526 12.6028 7.36526 12.625 7.36526L12.5556 7.36348ZM10.3238 29.7887C11.657 31.3192 13.3093 32.5403 15.1648 33.3666H15.1364C14.9467 33.3719 14.7571 33.3666 14.5675 33.3666C14.1669 33.363 13.7666 33.3473 13.3666 33.3194C13.0416 33.2981 12.601 33.419 12.3971 33.6998C11.3636 32.4593 10.4584 31.1176 9.69528 29.6954C9.28771 28.936 8.92362 28.1542 8.60475 27.3537C9.09187 28.2225 9.66796 29.0385 10.3238 29.7887ZM34.465 12.8849C35.0309 14.2995 35.4376 15.7725 35.6775 17.2768C35.9169 18.7403 35.9746 20.2276 35.8493 21.7052C35.7256 23.2282 35.3998 24.728 34.8807 26.1655C34.854 26.2393 34.8264 26.3121 34.7988 26.3859L34.7632 26.4748C34.7507 26.5067 34.7383 26.5387 34.7249 26.5707C34.6501 26.7556 34.5724 26.9387 34.4917 27.1199C34.3403 27.4582 34.178 27.7918 34.0047 28.1206C33.9157 28.293 33.8195 28.4636 33.7225 28.6334C33.8011 28.1035 33.8475 27.5693 33.8614 27.0337C33.8941 25.6626 33.7524 24.2928 33.4394 22.9573C33.5391 22.6605 33.6335 22.3637 33.7199 22.0686C34.6938 18.6712 34.8531 14.8889 33.6709 11.5217C33.4714 10.956 33.2334 10.4046 32.9587 9.87136C33.5458 10.83 34.0497 11.837 34.465 12.8814V12.8849ZM28.5832 4.83426C28.6313 4.87158 28.601 4.84848 28.5832 4.83426ZM6.07917 8.10464C6.43045 7.38633 6.84767 6.70207 7.32549 6.06066C7.38247 5.98334 7.44122 5.90781 7.50354 5.83227L7.52134 5.80916C7.55695 5.7665 7.59078 5.72028 7.62639 5.68029C7.75547 5.52299 7.89346 5.36837 8.02521 5.2164C8.29762 4.91306 8.58368 4.62245 8.88339 4.34459C9.03295 4.20595 9.18547 4.07028 9.34096 3.93757L9.519 3.79094L9.59379 3.7314L9.72554 3.62831C10.0496 3.37948 10.384 3.14516 10.7288 2.92535C10.8935 2.82138 11.06 2.72006 11.2291 2.6232L11.3502 2.55389C11.3591 2.55389 11.3769 2.53789 11.3956 2.52633L11.3734 2.54055C11.4624 2.4819 11.571 2.43569 11.6689 2.38592C12.0345 2.1993 12.4084 2.03074 12.7906 1.88025C12.8894 1.84204 12.9891 1.80382 13.0888 1.76739L13.1627 1.74073L13.2517 1.71052C13.4823 1.6332 13.7155 1.56122 13.9497 1.49456C14.1633 1.43502 14.3779 1.37904 14.5942 1.32927C14.6966 1.30527 14.7998 1.28217 14.9031 1.25995L15.0892 1.22263L15.1364 1.21285H15.1301C15.5858 1.11953 16.0475 1.05806 16.5117 1.02889C16.7432 1.00845 16.9756 0.992453 17.2079 0.982678C17.2969 0.982678 17.3859 0.97557 17.475 0.973793H17.5854H17.7759C18.2423 0.973793 18.7097 0.995116 19.1753 1.03511C19.3872 1.05288 19.5985 1.0748 19.8092 1.10087C19.9365 1.11687 20.0629 1.13376 20.1893 1.15153L20.3157 1.17108L20.3629 1.1782L20.4572 1.1933C23.0433 1.63027 25.4999 2.6353 27.6494 4.13575C27.9627 4.35496 28.269 4.58366 28.5681 4.82183L28.5859 4.83604L28.7052 4.93379L28.9055 5.10087C29.064 5.23595 29.2206 5.3734 29.3755 5.51322C29.7512 5.85507 30.1129 6.21054 30.4607 6.57965C29.4763 5.68919 28.3541 4.96354 27.1375 4.4308C24.6726 3.34613 21.9558 2.96095 19.2858 3.31764C16.6159 3.67433 14.0961 4.75906 12.0036 6.45257C10.5771 6.56694 9.17916 6.91492 7.86586 7.48256C7.15244 7.7964 6.47244 8.18107 5.83613 8.63075C5.90735 8.46012 5.99638 8.28238 6.07917 8.10464ZM12.6419 36.7036L12.5467 36.6663L12.4995 36.6467C12.4105 36.6112 12.3214 36.5747 12.2387 36.5374C12.0606 36.4592 11.8826 36.3783 11.7045 36.293C11.024 35.9694 10.3661 35.6004 9.73533 35.1884C9.42732 34.9869 9.12552 34.776 8.82997 34.5556C8.68575 34.4481 8.54421 34.337 8.40267 34.2259L8.37506 34.2037L8.34836 34.1824L8.26824 34.1166C8.18901 34.0517 8.10978 33.9851 8.03144 33.9184C5.16735 31.4713 3.10812 28.2196 2.12211 24.5872C1.33692 21.6438 1.33781 18.6152 2.27433 15.6869C2.52344 14.9024 2.84161 14.1414 3.2251 13.4128C3.28474 13.2981 3.34706 13.1844 3.41026 13.0715C3.40216 13.941 3.48693 14.8088 3.66309 15.6603C4.01117 17.3488 4.68418 18.9484 5.56996 20.437C5.63494 23.8327 6.59551 27.1706 8.19257 30.1682C9.09214 31.8643 10.1878 33.4492 11.457 34.8907C12.1493 35.6781 12.9036 36.4089 13.7129 37.0759C13.3503 36.9616 12.9933 36.8363 12.6419 36.7V36.7036ZM23.152 38.8915L23.1039 38.8995C23.135 38.8871 23.2855 38.8658 23.152 38.888V38.8915ZM28.9384 35.5039C28.6678 35.7953 28.3844 36.0747 28.0883 36.3419C27.9423 36.4743 27.7918 36.6023 27.6432 36.7285L27.6538 36.7205L27.6423 36.7294L27.596 36.7667L27.5265 36.8209C27.4375 36.8875 27.3565 36.9524 27.2701 37.0164C26.9556 37.2504 26.6292 37.469 26.2909 37.6723C26.2152 37.7185 26.1387 37.7611 26.0621 37.8073L25.9232 37.8864C25.8217 37.9433 25.9072 37.898 25.9428 37.8767C25.7653 37.9833 25.5799 38.0763 25.3882 38.1548C25.2291 38.2295 25.0683 38.3006 24.9057 38.3681C24.8247 38.4019 24.7428 38.4339 24.6618 38.4659L24.514 38.521L24.4766 38.5352C24.1205 38.6516 23.7707 38.7565 23.4083 38.8382C23.3469 38.8515 23.1502 38.8587 23.1048 38.9004L23.0015 38.9173C22.8116 38.9475 22.6214 38.9721 22.4309 38.9911C22.2395 39.0097 22.0481 39.0204 21.8558 39.0293H21.8131H21.7356C21.6297 39.0293 21.5246 39.0293 21.4187 39.0293C21.2246 39.0228 21.0305 39.01 20.8365 38.9911C20.7474 38.9831 20.6584 38.9733 20.5694 38.9617L20.4368 38.944L20.3246 38.9253C19.9516 38.8585 19.5825 38.7716 19.2189 38.6649C20.2609 38.5841 21.2947 38.4207 22.3107 38.1761C24.8702 37.5542 27.2886 36.4538 29.4378 34.9333C29.4031 34.9751 29.3693 35.0169 29.3337 35.0586C29.2061 35.2067 29.0732 35.354 28.9349 35.5003L28.9384 35.5039Z" fill="black" fill-opacity="0.2"/>
</svg>
