<svg width="318" height="170" viewBox="0 0 318 170" fill="none" xmlns="http://www.w3.org/2000/svg">
<path fill-rule="evenodd" clip-rule="evenodd" d="M303.514 92.5544C307.192 96.4047 310.633 100.474 313.82 104.74C317.713 110.327 320.099 116.74 314.633 124.739C309.167 132.739 284.608 160.137 277.769 165.35C270.929 170.563 267.463 171.256 260.743 166.977C254.023 162.697 236.931 149.458 238.078 140.658C238.078 140.658 233.998 141.991 230.358 136.898C226.718 131.805 211.693 122.513 204.92 122.139C188.334 128.912 173.948 124.019 162.829 113.78C167.175 108.894 170.946 103.526 174.068 97.7807C180.108 86.5281 182.561 75.9154 179.668 63.4228C177.001 52.0502 170.682 39.5442 162.456 28.4249C170.455 18.5055 179.975 10.0927 189.587 5.6263C216.159 -6.81295 219.305 4.11974 234.758 12.2926C234.758 12.2926 220.185 21.212 222.625 35.9711C222.625 35.9711 218.039 29.7448 217.732 22.6386C217.676 20.286 216.916 18.0042 215.549 16.0884C214.183 14.1727 212.272 12.7111 210.066 11.8926C210.066 11.8926 215.906 16.9856 213.772 24.2652C213.772 24.2652 204.786 12.1459 197.133 16.1057C197.133 16.1057 203.026 16.4123 208.559 22.7719C214.092 29.1316 215.839 34.2646 219.225 37.851C221.679 40.4242 229.025 46.2639 235.051 55.4366C253.263 83.115 240.611 101.78 210.373 120.939C223.705 121.699 246.051 101.714 250.944 88.8479C255.277 77.4753 249.117 68.8491 241.397 56.8499C254.73 53.5167 274.182 65.8227 279.582 53.1968C279.582 53.1968 273.995 57.5298 267.969 55.8633C267.969 55.8633 270.169 55.05 270.356 51.3435C270.356 51.3435 264.516 57.8765 243.344 51.7835C222.932 45.8772 223.052 33.318 228.265 24.7718C233.478 16.2257 248.624 11.6393 265.596 17.2256C281.795 22.5586 284.688 25.7051 288.648 40.4109C292.608 55.1166 290.155 54.3567 288.075 63.7828C285.995 73.2089 288.395 76.2754 288.395 76.2754C288.395 76.2754 264.143 83.5682 241.664 133.379C241.664 133.379 257.663 105.74 278.409 90.1012C290.341 81.0484 293.914 82.1017 303.46 92.4877L303.514 92.5544Z" fill="#B0B0B0"/>
<path fill-rule="evenodd" clip-rule="evenodd" d="M14.3312 92.5544C10.676 96.4252 7.23551 100.493 4.02518 104.74C0.132079 110.327 -2.25444 116.74 3.21189 124.739C8.67823 132.739 33.3567 160.11 40.143 165.323C46.9292 170.536 50.3824 171.23 57.102 166.95C63.8216 162.67 80.9138 149.431 79.8472 140.631C79.8472 140.631 83.927 141.965 87.5001 136.872C91.0732 131.779 106.286 122.486 113.005 122.113C137.884 132.285 157.856 116.073 169.228 95.1009C175.188 84.0482 176.641 74.8755 174.255 64.6361C169.095 42.4641 148.816 15.1324 128.271 5.58632C101.766 -6.85292 98.5528 4.07976 83.167 12.2526C83.167 12.2526 97.7395 21.172 95.2997 35.9312C98.033 31.9729 99.7166 27.3854 100.193 22.5986C100.249 20.246 101.009 17.9642 102.376 16.0485C103.742 14.1327 105.652 12.6711 107.859 11.8526C107.859 11.8526 101.953 16.9456 104.152 24.2252C104.152 24.2252 113.072 12.1059 120.738 16.0657C120.738 16.0657 114.832 16.3723 109.365 22.732C103.899 29.0916 102.073 34.2246 98.6994 37.811C96.2462 40.3842 88.9 46.2239 82.8737 55.3967C64.6215 83.115 77.3274 101.78 107.472 120.939C94.1397 121.699 71.7944 101.714 66.9014 88.8479C62.5683 77.4753 68.7279 68.8492 76.5141 56.8499C63.0749 53.5168 43.6628 65.8227 38.3164 53.1968C38.3164 53.1968 43.9161 57.5298 49.8757 55.8633C49.8757 55.8633 47.6759 55.05 47.5559 51.3436C47.5559 51.3436 53.3955 57.8765 74.5009 51.7835C94.9797 45.8772 94.793 33.318 89.6333 24.7718C84.4736 16.2257 69.2212 11.6393 52.3022 17.2256C36.0366 22.5586 33.1434 25.7051 29.2503 40.4109C25.3572 55.1167 27.7437 54.3567 29.8236 63.7828C31.9035 73.2089 29.437 76.2754 29.437 76.2754C29.437 76.2754 53.7555 83.5683 76.1808 133.379C76.1808 133.379 60.1818 105.74 39.423 90.1012C27.4904 81.0484 23.9706 82.1017 14.3712 92.4877L14.3312 92.5544Z" fill="#404040"/>
</svg>
