<svg width="492" height="369" viewBox="0 0 492 369" fill="none" xmlns="http://www.w3.org/2000/svg">
<rect width="492" height="369" fill="url(#paint0_radial_342_77)"/>
<path d="M314.07 148.475V159.63C314.07 165.299 314.056 170.968 314.085 176.643C314.085 177.555 314.016 178.013 312.876 178.241C303.942 180.056 294.763 180.333 285.735 179.06C268.225 176.574 253.149 169.146 240.444 156.899C227.799 144.701 219.782 129.924 216.342 112.694C213.115 96.5254 214.539 80.74 220.347 65.3237C220.699 64.3923 221.137 64.1328 222.097 64.1356C252.313 64.1645 282.528 64.1645 312.744 64.1356C313.817 64.1356 314.099 64.3865 314.093 65.4766C314.043 73.9816 314.043 82.4856 314.093 90.9887C314.093 92.3527 313.71 92.6613 312.398 92.6613C289.905 92.6209 267.432 92.6468 244.951 92.5949C243.469 92.5949 243.134 92.9785 243.12 94.4318C242.967 109.583 247.716 122.917 257.971 134.117C265.961 142.846 275.827 148.357 287.526 150.505C296.336 152.126 304.952 151.402 313.427 148.602C313.639 148.549 313.854 148.507 314.07 148.475Z" fill="#737373"/>
<path d="M240.498 304.962C241.871 301.502 242.929 298.151 243.506 294.659C245.236 284.223 243.535 274.381 238.315 265.216C231.395 253.064 220.881 245.391 207.702 241.123C206.393 240.699 206.549 241.388 206.549 242.21C206.549 262.588 206.56 282.961 206.583 303.327C206.583 304.605 206.321 305.008 204.96 305C196.458 304.928 187.946 304.942 179.45 305C178.346 305 178.009 304.763 178.009 303.592C178.041 266.208 178.041 228.826 178.009 191.445C178.009 190.485 178.182 190.133 179.243 190.136C187.938 190.182 196.633 190.182 205.329 190.136C206.376 190.136 206.577 190.462 206.572 191.434C206.531 198.879 206.572 206.328 206.54 213.777C206.54 214.558 206.572 214.956 207.598 215.158C223.56 218.295 237.756 225.046 249.7 236.192C260.012 245.812 267.187 257.361 270.668 271.105C272.542 278.507 272.989 286.005 272.309 293.598C271.969 297.065 271.375 300.503 270.532 303.884C270.382 304.515 270.244 304.991 269.379 304.988C259.828 304.951 250.268 304.962 240.498 304.962Z" fill="#737373"/>
<path d="M178.029 121.368C178.029 102.774 178.019 84.1811 178 65.5889C178 64.3403 178.26 64 179.56 64C188.11 64.0663 196.66 64.0548 205.225 64C206.26 64 206.578 64.2451 206.575 65.3496C206.546 102.724 206.546 140.102 206.575 177.482C206.575 178.492 206.321 178.754 205.312 178.748C196.66 178.704 188.014 178.704 179.373 178.748C178.141 178.771 178 178.324 178 177.289C178.035 158.649 178.044 140.009 178.029 121.368Z" fill="#737373"/>
<path d="M313.791 247.776C313.791 266.316 313.8 284.855 313.82 303.394C313.82 304.608 313.609 304.997 312.285 304.988C303.786 304.919 295.286 304.919 286.785 304.988C285.591 304.988 285.274 304.68 285.274 303.48C285.306 266.303 285.306 229.127 285.274 191.95C285.274 190.797 285.577 190.525 286.716 190.531C295.311 190.579 303.907 190.579 312.505 190.531C313.589 190.531 313.831 190.794 313.828 191.863C313.786 210.504 313.773 229.141 313.791 247.776Z" fill="#737373"/>
<defs>
<radialGradient id="paint0_radial_342_77" cx="0" cy="0" r="1" gradientUnits="userSpaceOnUse" gradientTransform="translate(246 184.5) rotate(90) scale(184.5 246)">
<stop stop-color="#393939"/>
<stop offset="1" stop-color="#2D2D2D"/>
</radialGradient>
</defs>
</svg>
