<svg width="606" height="599" viewBox="0 0 606 599" fill="none" xmlns="http://www.w3.org/2000/svg">
<path d="M321.379 575.473C326.712 577.5 332.045 579.473 337.485 581.46C353.765 587.353 370.338 592.766 387.418 595.82C406.084 599.166 425.271 599.9 444.004 596.287C461.294 592.947 477.874 586.631 493.004 577.62C518.257 562.647 538.27 540.074 554.336 515.781C570.294 491.457 582.67 464.964 591.082 437.115C607.952 381.526 609.879 322.474 596.669 265.903C590.289 238.716 580.204 212.533 566.696 188.091C564.296 183.771 555.27 185.998 551.59 187.051C548.271 187.836 545.113 189.189 542.256 191.051C541.23 191.798 538.256 193.864 539.096 195.491C566.496 244.917 579.283 301.743 577.549 358.156C575.829 414.275 559.336 470.155 528.963 517.501C521.623 529.044 513.227 539.882 503.883 549.874C499.12 554.966 494.058 559.77 488.724 564.26L487.39 565.313L485.87 566.513C484.63 567.473 483.364 568.42 482.084 569.353C479.195 571.451 476.221 573.434 473.164 575.3C472.457 575.727 471.737 576.233 470.99 576.633L470.59 576.847C469.35 577.527 468.084 578.18 466.817 578.833C465.297 579.593 463.75 580.3 462.204 581.033H462.11C461.097 581.447 460.097 581.847 459.084 582.233C457.497 582.833 455.804 583.26 454.257 583.94C458.471 582.1 454.257 583.94 452.924 584.26L450.564 584.887C448.268 585.143 445.992 585.553 443.751 586.113L443.271 586.207H443.031C442.004 586.3 440.964 586.407 439.924 586.487C438.191 586.62 436.471 586.713 434.738 586.767H432.764H430.458C428.031 586.767 425.604 586.567 423.191 586.38C415.269 585.753 407.412 584.477 399.698 582.567C386.072 579.226 372.657 575.076 359.525 570.14C395.445 562.14 429.338 546.14 457.057 521.061C478.134 501.73 495.232 478.468 507.39 452.581C520.87 424.262 528.096 393.449 530.43 362.236C535.07 299.983 520.31 236.064 493.097 180.184C468.87 130.545 433.458 85.5188 388.231 53.3725C367.914 38.8439 345.657 27.2418 322.112 18.9062C331.373 21.0794 340.511 23.7499 349.485 26.9061C360.575 30.7815 371.357 35.4881 381.738 40.9859C392.422 46.5921 402.672 52.9877 412.404 60.1192C431.388 73.9221 448.042 90.6709 461.737 109.732C464.671 113.865 472.75 111.945 476.844 110.785C480.162 110 483.32 108.647 486.177 106.785C487.097 106.105 490.377 103.812 489.337 102.332C459.671 60.6124 416.618 30.7862 368.325 14.4663C322.392 -1.08015 272.713 -3.88023 225.153 5.02634C172.594 7.22632 119.008 23.6929 77.5414 56.4392C56.3142 73.091 38.6837 93.8738 25.7153 117.532C13.4178 140.56 5.45465 165.652 2.22228 191.558C-0.643887 213.601 -0.737981 235.917 1.94225 257.983C-1.72387 301.847 5.31312 345.945 22.4487 386.489C43.0751 435.142 77.1147 478.074 118.688 510.487C163.03 545.172 215.965 567.155 271.833 574.087C288.27 576.072 304.856 576.536 321.379 575.473ZM360.045 559.927L361.378 559.62C360.926 559.762 360.462 559.865 359.992 559.927H360.045ZM423.311 120.892C457.737 163.558 481.497 214.771 493.977 268.05C508.523 329.983 508.03 397.075 480.737 455.528C469.478 480.164 453.507 502.358 433.724 520.861C431.44 522.976 429.111 525.038 426.738 527.047L425.404 528.207L424.071 529.261C422.524 530.487 420.951 531.687 419.351 532.861C416.844 534.709 414.293 536.487 411.698 538.194C410.284 539.127 408.858 540.047 407.418 540.941L405.231 542.274C404.711 542.58 401.445 544.62 404.165 542.927C401.431 544.634 398.471 546.06 395.591 547.487C393.871 548.34 392.138 549.18 390.391 549.98C389.524 550.418 388.634 550.81 387.725 551.154C391.258 549.994 387.191 551.367 386.485 551.647C383.231 552.98 379.943 554.211 376.618 555.34C375.759 555.725 374.867 556.028 373.951 556.247L375.765 555.687L373.925 556.247C371.792 556.9 369.645 557.5 367.485 558.074C365.632 558.567 363.778 559.034 361.912 559.407L361.485 559.527L360.032 559.834C355.952 560.678 351.854 561.398 347.738 561.994C346.792 562.14 345.832 562.26 344.885 562.394C344.441 562.418 343.996 562.418 343.552 562.394H344.458C343.117 562.434 341.781 562.568 340.459 562.794C330.681 559.034 320.903 555.14 311.126 551.114C284.472 540.133 258.438 527.706 233.14 513.887C183.14 486.354 136.247 452.048 99.1812 408.329C64.273 367.439 40.938 317.956 31.5953 265.01C30.7687 260.223 30.062 255.397 29.4887 250.57C32.5907 217.153 41.5447 184.541 55.9417 154.225C61.3807 142.719 67.5718 131.584 74.4748 120.892C81.1469 110.507 88.5618 100.62 96.6613 91.3055C104.938 81.7224 113.889 72.7439 123.448 64.4391C124.648 63.3991 125.848 62.3724 127.061 61.3591L128.581 60.1058L129.128 59.6524C131.705 57.5991 134.319 55.5859 136.967 53.6126C142.061 49.8526 147.292 46.2971 152.661 42.946C154.927 41.5327 157.194 40.0794 159.541 38.7994L160.301 38.386C160.994 37.986 161.701 37.6127 162.394 37.226C164.02 36.3327 165.66 35.466 167.314 34.5594C169.874 33.235 172.452 31.9639 175.047 30.7461C176.38 30.0928 177.834 29.4127 179.247 28.826C179.94 28.5194 180.66 28.2261 181.354 27.9061C177.487 29.7328 180.847 28.1328 181.714 27.7728C187.247 25.4795 192.86 23.4529 198.54 21.5729L200.1 21.0929C201.433 20.6929 202.767 20.2929 204.1 19.9196C207.291 19.0307 210.504 18.1951 213.74 17.4129L215.913 16.9063L216.74 16.7329H216.887L220.753 16.6528H221.007H224.126C230.5 16.7506 236.86 17.0884 243.206 17.6662C246.113 17.9328 249.015 18.2485 251.913 18.6129C253.5 18.8129 255.073 19.0263 256.646 19.2663C257.193 19.3329 257.726 19.4262 258.259 19.5062L260.526 19.8795C273.065 22.0252 285.418 25.1458 297.472 29.2128C346.872 46.1059 390.418 80.1455 423.311 120.892ZM194.914 18.2262H195.233L196.233 18.1196C196.887 18.1063 197.26 18.133 194.914 18.3063V18.2262ZM175.22 21.5729C176.167 21.3595 178.86 20.8929 175.06 21.5729H175.22ZM72.8082 83.6122C76.8368 78.7549 81.1136 74.1087 85.6213 69.6923C87.7635 67.5857 89.9546 65.5323 92.1946 63.5324C93.2612 62.5857 94.3412 61.6391 95.4345 60.7191L97.2346 59.2124L98.2212 58.3858L98.3545 58.2925C103.248 54.4259 108.274 50.7592 113.501 47.3459C115.883 45.7814 118.305 44.2748 120.768 42.8259C121.354 42.4792 121.954 42.066 122.581 41.7593L122.901 41.586C124.492 40.6971 126.092 39.8304 127.701 38.9859C130.234 37.6615 132.79 36.386 135.367 35.1593C136.781 34.4793 138.207 33.826 139.634 33.186C140.341 32.8794 141.087 32.5994 141.781 32.2394L140.754 32.7594L142.194 32.0794C144.861 30.9728 147.527 29.9328 150.194 28.9328C151.661 28.3862 153.141 27.8661 154.621 27.3461L156.861 26.5862L158.421 26.0928L161.087 25.3194C127.269 41.0196 97.1046 63.6133 72.5281 91.652C62.8679 102.744 54.0733 114.56 46.2218 126.998C47.9995 122.936 49.9373 118.936 52.035 114.998C57.8434 103.864 64.806 93.3709 72.8082 83.6921V83.6122ZM241.953 551.927C235.731 550.034 229.615 547.936 223.606 545.634C217.94 543.487 211.473 540.794 206.687 538.594C159.716 516.936 118.733 484.155 87.288 443.088C78.0408 431.016 69.7449 418.245 62.4749 404.889C84.0747 433.035 110.128 457.848 138.274 479.261C183.607 513.767 234.7 539.981 287.152 561.927L282.806 561.354L280.326 560.98L278.993 560.767C277.246 560.474 275.499 560.154 273.753 559.834C269.633 559.06 265.526 558.207 261.446 557.247C254.851 555.674 248.353 553.9 241.953 551.927Z" fill="#3E5888"/>
<path d="M273 134V432M124 283H422" stroke="#3E5888" stroke-width="20" stroke-linecap="round" stroke-linejoin="round"/>
</svg>
