<svg width="52" height="58" viewBox="0 0 52 58" fill="none" xmlns="http://www.w3.org/2000/svg">
<path d="M35.2564 26.4934C36.6858 26.3243 38.0829 25.947 39.4031 25.3734C42.0019 24.2495 44.3671 22.6485 46.3763 20.6534C50.123 16.9068 52.9496 10.8269 49.603 5.00023C48.9715 3.99686 48.0838 3.18002 47.0315 2.63395C45.9792 2.08787 44.8003 1.83234 43.6164 1.8936C43.1949 1.30143 42.6365 0.819964 41.9888 0.490286C41.341 0.160608 40.6232 -0.0075205 39.8964 0.000258135H11.0566C10.327 -0.00480579 9.60686 0.165795 8.95707 0.497651C8.30728 0.829507 7.74691 1.31286 7.32327 1.9069C6.16495 1.87043 5.01713 2.13654 3.99302 2.67899C2.96892 3.22144 2.1039 4.0215 1.48331 5.00023C-1.85001 10.8269 0.963317 16.9068 4.70996 20.6534C6.71918 22.6485 9.08441 24.2495 11.6832 25.3734C12.9923 25.939 14.3749 26.3161 15.7899 26.4934C16.3301 26.7454 16.7485 27.2012 16.9534 27.7609C17.1583 28.3207 17.1331 28.9388 16.8832 29.48C16.6982 30.0203 16.4037 30.5165 16.0179 30.9376C15.6322 31.3587 15.1637 31.6956 14.6417 31.9272C14.1198 32.1588 13.5556 32.2801 12.9845 32.2834C12.4135 32.2868 11.8479 32.1721 11.3232 31.9467C9.98992 31.4934 9.45659 33.5601 10.7499 34.0134C11.579 34.328 12.4653 34.4634 13.3506 34.4108C14.2358 34.3582 15.0998 34.1186 15.8858 33.708C16.6718 33.2974 17.3619 32.725 17.9107 32.0284C18.4595 31.3319 18.8545 30.527 19.0699 29.6667C19.1213 29.4782 19.1613 29.2867 19.1899 29.0934L23.5365 37.2667V45.04C16.3365 45.36 9.32326 47.4799 9.32326 51.1599C9.32326 55.1599 17.6432 57.3199 25.4831 57.3199C33.3231 57.3199 41.6297 55.1599 41.6297 51.1599C41.6297 47.4666 34.5898 45.3466 27.3631 45.0266V42.04C27.3488 41.8402 27.3488 41.6397 27.3631 41.44V37.2667L31.8031 28.9467C31.824 29.1905 31.8687 29.4316 31.9364 29.6667C32.1502 30.5265 32.5437 31.3312 33.0912 32.0277C33.6387 32.7242 34.3276 33.2967 35.1126 33.7075C35.8975 34.1182 36.7607 34.3579 37.645 34.4106C38.5294 34.4633 39.4149 34.3279 40.2431 34.0134C41.5764 33.5601 40.9897 31.4934 39.6697 31.9467C39.146 32.172 38.5813 32.2865 38.0112 32.283C37.4411 32.2795 36.8779 32.1581 36.3569 31.9265C35.836 31.6948 35.3686 31.3579 34.9842 30.9369C34.5998 30.5159 34.3066 30.0198 34.1231 29.48C34.0007 29.2096 33.9329 28.9177 33.9236 28.621C33.9143 28.3244 33.9638 28.0287 34.0691 27.7512C34.1744 27.4737 34.3335 27.2197 34.5372 27.0039C34.741 26.788 34.9854 26.6145 35.2564 26.4934ZM16.1632 24.2268L15.5232 24.1334C15.2346 24.0508 14.9405 23.9884 14.6432 23.9468C13.9414 23.7765 13.2546 23.5491 12.5899 23.2668C10.2663 22.2457 8.15433 20.7985 6.36328 19.0001C3.21663 15.8535 0.816649 10.8135 3.50996 6.12021C3.83011 5.59054 4.27395 5.14642 4.80342 4.82595C5.3329 4.50548 5.9322 4.31821 6.54994 4.28022L16.6965 24.2134L16.1632 24.2268ZM30.4698 46.9999L31.4298 47.1333L32.8564 47.3866C33.4431 47.5066 33.9898 47.6266 34.5098 47.7733C35.0298 47.9199 35.6564 48.1066 36.1631 48.2933C36.6697 48.4799 36.9764 48.5999 37.3364 48.7599C37.6431 48.8933 37.8964 49.0399 38.1497 49.1733C39.2964 49.8399 39.9097 50.5066 39.9097 51.1599C39.9097 53.0132 34.4164 55.6132 25.4831 55.6132C16.5499 55.6132 11.0433 53.0132 11.0433 51.1599C11.0433 49.3066 15.7499 47.0933 23.5365 46.76V49.2799C23.5351 49.5297 23.5853 49.777 23.6839 50.0064C23.7826 50.2359 23.9276 50.4425 24.1098 50.6132C24.3303 50.8064 24.5897 50.9502 24.8703 51.0348C25.151 51.1193 25.4466 51.1428 25.7371 51.1037C26.0276 51.0645 26.3064 50.9636 26.5547 50.8077C26.803 50.6518 27.015 50.4446 27.1765 50.1999C27.2603 50.0492 27.3231 49.8877 27.3631 49.7199V46.7866C28.4698 46.7999 29.4965 46.88 30.4698 46.9999ZM32.1898 23.3334L26.2831 34.4267C25.7631 34.2313 25.1899 34.2313 24.6698 34.4267L16.8832 19.7601L9.0966 5.09357C8.94539 4.81546 8.86738 4.50347 8.86992 4.18692C8.86992 4.18692 8.86992 4.18688 8.86992 4.10688C8.86992 4.02688 8.86992 4.01358 8.86992 3.97358V3.80024C8.86992 3.80024 8.86992 3.70689 8.86992 3.65355C8.91328 3.54444 8.96223 3.43764 9.01659 3.33357C9.12179 3.17539 9.24238 3.02802 9.37659 2.89359C9.51197 2.7722 9.65939 2.66495 9.81658 2.57356C10.0145 2.47046 10.2252 2.39425 10.4432 2.34692H10.5366H10.9366H39.8031C39.9274 2.33966 40.0521 2.33966 40.1764 2.34692H40.2831L40.6297 2.45357C40.7167 2.48808 40.8013 2.52816 40.883 2.57356C41.1228 2.70027 41.3356 2.87235 41.5097 3.08023L41.5897 3.21358C41.6272 3.2482 41.6587 3.28874 41.6831 3.33357C41.8287 3.58566 41.9111 3.86932 41.923 4.16022C41.9359 4.38104 41.9088 4.60234 41.843 4.81354C41.8089 4.92232 41.7689 5.02917 41.7231 5.13357L32.1898 23.3334ZM34.3098 24.2401L44.3897 4.42691V4.33356C45.0413 4.34757 45.6787 4.52605 46.2428 4.8524C46.8069 5.17875 47.2794 5.64236 47.6163 6.20021C50.283 10.8935 47.9097 15.9335 44.763 19.0801C42.9578 20.8731 40.8322 22.3113 38.4964 23.3201C37.8602 23.5898 37.2051 23.8127 36.5364 23.9868C36.1718 24.0321 35.8109 24.1034 35.4564 24.2001C35.2964 24.2001 35.1231 24.2668 34.9498 24.2801L34.3098 24.2401Z" fill="black"/>
</svg>
