<svg width="273" height="78" viewBox="0 0 273 78" fill="none" xmlns="http://www.w3.org/2000/svg">
<path d="M271.624 9.94316C270.664 8.05538 269.208 6.46508 267.412 5.34348C263.81 3.0224 259.368 2.26523 255.177 1.85125C249.887 1.32052 244.562 1.12591 239.255 0.871159C233.631 0.602254 228.005 0.395858 222.375 0.25197C211.152 -0.0358052 39.2454 -0.0770758 28.0174 0.128141C22.5674 0.22957 17.1185 0.38819 11.6708 0.604022C10.8765 0.635865 9.79734 0.855238 9.30729 1.55757C8.84202 2.22807 9.70711 2.54829 10.2538 2.52529C21.2223 2.09009 32.1949 1.89018 43.1716 1.92556C54.1483 1.96095 225.798 2.23339 236.758 2.74289C239.479 2.87027 242.2 3.01121 244.921 3.16571C246.282 3.24355 247.642 3.32493 249.001 3.40985C250.009 3.47354 251.345 3.55845 252.141 3.62745C253.981 3.76985 255.812 4.01317 257.625 4.35632C256.282 4.34394 254.934 4.38815 253.609 4.38638L236.626 4.36338L42.0854 4.31915L25.1019 4.29793C19.853 4.29793 13.93 3.70705 9.40991 6.91268C9.04464 7.17281 8.69767 7.45773 8.37144 7.7654L8.2936 7.78663C7.6691 7.96354 6.72616 8.32619 6.73147 9.09752V9.7468C5.34095 11.9122 4.66515 14.5411 4.2901 17.101C3.92389 19.6096 3.6886 22.1429 3.40554 24.6639C3.09064 27.452 2.77927 30.2408 2.47145 33.0301C1.85934 38.6087 1.26256 44.1884 0.681109 49.7694C0.408666 52.3859 -0.00176341 55.0343 5.70007e-06 57.6702C5.70007e-06 59.9329 0.624502 62.139 2.29985 63.7471C3.64437 65.0439 5.38341 65.8046 7.15429 66.3283C7.16844 66.9616 7.1879 67.5932 7.21975 68.2248C7.28343 69.4295 7.53464 70.5618 8.20867 71.5861C8.73941 72.3999 9.54435 73.0014 10.3988 73.4507C12.2953 74.4591 14.5439 74.7121 16.6544 74.866C19.2621 75.0518 21.8874 75.0783 24.5004 75.1703L41.3654 75.7718L235.994 76.9801L252.978 77.5833L257.193 77.7337C258.497 77.7815 259.815 77.8257 261.107 77.6046C263.647 77.1694 266.005 75.8231 266.693 73.1977C266.939 72.2548 266.973 71.2729 266.984 70.3035C266.984 70.0045 266.984 69.7055 266.984 69.4065C267.909 68.0832 268.341 66.4946 268.56 64.8776C268.914 62.2929 269.078 59.6711 269.328 57.0741L270.14 48.5929L271.753 31.7369L272.555 23.3619C272.779 21.016 273.039 18.6649 272.995 16.3031C272.931 14.113 272.602 11.9051 271.624 9.94316ZM11.1171 8.33151C11.2551 8.19705 11.3966 8.06615 11.5435 7.94054C11.6354 7.8627 11.7204 7.78485 11.8247 7.71055L12.0653 7.53364C12.1361 7.48941 12.3095 7.37442 12.2918 7.38504C12.3767 7.33196 12.4687 7.28066 12.5536 7.22935C12.6385 7.17805 12.7783 7.10375 12.8933 7.05244L12.934 7.03121L13.0313 6.9923C13.2223 6.91623 13.4116 6.83661 13.6045 6.76762C13.6664 6.7517 13.93 6.67031 13.9441 6.66677C14.121 6.61723 14.298 6.57477 14.4749 6.53231L14.6093 6.50579L14.903 6.45448C15.2126 6.40495 15.5222 6.36425 15.8335 6.3324C16.4828 6.26341 16.7765 6.25103 17.4682 6.23157C20.1095 6.15727 22.7578 6.21741 25.3991 6.22095L219.182 6.26343L252.176 6.30588C253.567 6.30588 254.955 6.30588 256.344 6.30588C257.338 6.28268 258.332 6.34779 259.315 6.50048C260.18 6.65086 261.068 6.91268 261.774 7.50887C262.561 8.17228 262.962 9.05153 263.155 10.0493C263.36 11.1108 263.332 12.1917 263.332 13.262C263.332 14.6313 263.332 16 263.332 17.3681V25.6829L263.359 58.6344V66.9492C263.359 67.881 263.359 68.8127 263.359 69.7444C263.183 69.9534 262.981 70.139 262.757 70.2964C262.524 70.4578 262.265 70.5776 261.991 70.6502L261.74 70.7068C261.657 70.721 261.574 70.7351 261.491 70.7457C261.272 70.7806 261.051 70.8013 260.829 70.8076C260.199 70.82 259.571 70.8077 258.943 70.7776C253.515 70.4963 248.093 70.0894 242.667 69.7426L48.9955 67.6392C38.0377 66.9315 27.0762 66.277 16.1201 65.541C14.2988 65.4402 12.4878 65.2001 10.7031 64.8227L10.6447 57.2262L10.3847 24.135L10.2679 9.32929C10.2927 9.29214 10.3157 9.25499 10.3422 9.2196C10.5821 8.90802 10.8409 8.61143 11.1171 8.33151ZM3.563 56.6105C3.58776 54.0613 4.00527 51.4801 4.27064 48.9556C4.8403 43.4796 5.42646 38.0072 6.02914 32.5382C6.31043 29.9801 6.57048 27.4078 6.84647 24.8515L6.98976 43.0432L7.12245 59.9135C7.12245 61.1023 7.12245 62.2947 7.12245 63.4871C6.57468 63.1781 6.06721 62.8025 5.61162 62.369C4.03357 60.8529 3.54708 58.7512 3.563 56.6141V56.6105ZM262.607 74.8678C262.504 75.0319 262.385 75.1859 262.253 75.3277C262.15 75.4259 262.037 75.5136 261.917 75.5896C261.828 75.6144 261.743 75.6489 261.662 75.6922L261.535 75.7258C261.43 75.7417 261.238 75.7771 261.252 75.7753C261.163 75.7877 261.075 75.7948 260.986 75.8054C260.954 75.8054 260.765 75.8213 260.723 75.8213C260.392 75.8337 260.061 75.8337 259.73 75.8213C257.041 75.7718 254.352 75.6355 251.663 75.54L218.581 74.3618L24.925 73.1871L20.7074 73.0456C20.1396 73.0261 19.5717 73.0084 19.002 72.9819C18.765 72.9713 18.5279 72.9571 18.2944 72.943C17.9052 72.9164 17.9972 72.9253 17.6522 72.8917C15.8618 72.7148 13.976 72.4565 12.5359 71.3083C11.179 70.2274 10.8588 68.6847 10.7757 67.0854C11.8796 67.2394 12.9923 67.3384 14.1016 67.4216C19.5858 67.8356 25.086 68.1292 30.5791 68.4831L225.112 70.6431L242.039 71.7223L250.556 72.2654C253.259 72.4423 255.98 72.7219 258.694 72.7466C260.236 72.7608 261.878 72.5838 263.36 72.0496C263.328 72.619 263.238 73.1838 263.093 73.7355C262.992 74.1371 262.829 74.5204 262.609 74.8713L262.607 74.8678ZM269.009 23.3866L268.218 31.6537C267.787 36.1614 267.36 40.6709 266.938 45.1821V40.708L266.925 23.7475C266.925 20.9382 266.925 18.1294 266.925 15.3213C266.925 13.9644 266.925 12.6057 266.925 11.2523C266.935 10.4512 266.86 9.65123 266.702 8.86578C267.17 9.39543 267.576 9.97579 267.914 10.596C268.928 12.4765 269.319 14.6118 269.404 16.7259C269.476 18.9585 269.223 21.1823 269.011 23.3955L269.009 23.3866Z" fill="white" fill-opacity="0.8"/>
</svg>
