<svg width="1155" height="331" viewBox="0 0 1155 331" fill="none" xmlns="http://www.w3.org/2000/svg">
<path d="M1131.44 124.281C1063.58 139.009 995.605 153.196 927.526 166.84C859.086 180.547 792.367 193.347 725.968 205.506C589.889 230.457 453.446 253.208 316.639 273.759C278.417 279.501 240.124 285.074 201.76 290.479C212.809 286.968 223.871 283.514 234.947 280.119C284.262 265.008 333.928 251.137 383.945 238.506C433.722 225.92 483.775 214.537 534.103 204.36C579.143 195.267 624.142 187.24 671.435 179.893L708.035 175.307L857.18 156.64C864.926 155.68 877.686 151.494 879.219 142.387C879.428 141.353 879.428 140.288 879.219 139.254L937.885 130.654C945.632 129.521 958.379 125.614 959.925 116.401C961.472 107.188 948.659 105.801 942.592 106.347L641.049 133.241L434.438 151.627L640.009 114.947L703.368 103.654C708.79 103.245 714.221 102.845 719.661 102.454L828.993 96.0276C836.687 95.5743 849.566 90.5343 851.033 81.7744C852.62 72.3345 839.74 71.4412 833.7 71.7212C821.06 72.3079 808.42 72.9524 795.78 73.6546C794.167 67.3613 783.781 66.0146 778.447 66.7746L682.568 80.5878L596.263 85.6677L495.77 91.5743L507.557 89.8677L795.114 48.0148L957.099 24.4417C964.845 23.3084 977.592 19.3885 979.138 10.1753C980.685 0.962022 967.885 -0.491307 961.805 0.122019L593.929 39.2283L228.267 78.0945L22.1624 100.001C14.4292 100.828 1.62926 105.254 0.122614 114.267C-1.38404 123.281 11.3758 124.934 17.4558 124.321L355.065 88.4277L223.587 107.561C215.84 108.694 203.094 112.614 201.547 121.827C200 131.041 212.84 132.241 218.88 131.881L324.639 125.667C320.346 126.387 316.066 127.067 311.772 127.801C262.12 136.245 212.618 145.529 163.267 155.654C156.974 156.987 145.934 162.774 146.588 170.493C147.028 176.12 152.561 178.493 157.948 179.04C153.401 181.267 149.588 184.547 148.774 189.4C147.228 198.653 160.041 200 166.107 199.453L467.771 172.547L525.01 167.44L351.772 192.813L185.681 217.133C177.934 218.266 165.187 222.173 163.641 231.386C162.094 240.599 174.881 242.213 180.974 241.439L373.838 217.24C330.639 228.244 287.688 240.146 244.987 252.946C187.965 270.057 131.454 288.772 75.4551 309.092C70.2952 310.959 62.1219 317.172 63.9352 323.758C65.7485 330.345 75.7084 331.385 81.2684 330.665C219.24 312.47 356.892 292.057 494.224 269.426C632.453 246.635 770.283 221.613 907.712 194.36C984.432 179.142 1061.01 163.236 1137.44 146.64C1143.98 145.227 1156.34 138.641 1154.07 130.227C1151.67 121.294 1137.72 122.947 1131.44 124.281Z" fill="#92E683"/>
</svg>
