<svg width="1789" height="591" viewBox="0 0 1789 591" fill="none" xmlns="http://www.w3.org/2000/svg">
<path d="M1779.53 17.4006C1754.59 16.5117 1729.66 15.6806 1704.74 14.9073C1659.41 13.574 1613.98 12.774 1568.59 11.934L408.196 8.77409L237.038 5.58744C209.785 5.08078 182.492 5.01423 155.252 4.0409C139.172 3.46758 123.092 1.96082 107.066 0.427501L103.453 0.0674791C97.1327 -0.559181 84.0395 3.18749 82.7595 10.9474C75.8396 53.1736 69.7597 95.5198 63.7597 137.893V118.826C63.7597 112.053 56.1598 110.626 50.5332 111.386C46.4955 111.8 42.6148 113.172 39.2133 115.386C37.1333 116.84 33.64 119.386 33.6534 122.213L34.0934 280.784C34.1467 302.118 34.2045 323.486 34.2667 344.89C29.4845 378.126 24.6935 411.387 19.8935 444.676C13.2892 490.809 6.68478 536.942 0.0804065 583.075C-1.75957 595.888 28.5734 590.941 30.1867 579.755C32.4001 564.244 34.6223 548.746 36.8533 533.262C38.9177 534.899 41.4855 535.771 44.1199 535.728L312.784 544.821L1571.45 553.928L1638.99 556.208L1672.78 557.355C1682.91 557.701 1693.07 558.155 1703.21 557.355C1724.54 555.608 1746.34 546.382 1754.18 525.102C1757.13 517.102 1757.61 508.608 1758.18 500.209C1758.9 489 1759.62 477.787 1760.35 466.569L1777.69 199.025C1781.34 142.546 1785 86.0621 1788.66 29.5738L1788.95 25.014C1789.27 19.694 1784.09 17.574 1779.53 17.4006ZM1749.89 166.386C1744.22 254.038 1738.55 341.686 1732.87 429.329C1731.44 451.507 1730.01 473.676 1728.58 495.835C1728.01 504.542 1727.89 513.462 1725.98 521.995C1725.42 525.142 1724.34 528.172 1722.77 530.955C1722.33 531.728 1721.85 532.475 1721.34 533.195C1721.57 532.822 1720.01 534.755 1719.93 534.862C1719.59 535.195 1719.23 535.501 1718.89 535.808C1718.89 535.701 1717.78 536.541 1716.95 537.141L1716.58 537.275L1716.1 537.475C1714.77 537.715 1713.48 538.109 1712.25 538.648C1710.7 538.928 1708.94 538.968 1707.51 539.102C1706.09 539.235 1705.07 539.275 1703.85 539.355H1703.37H1702.74C1692.42 539.355 1682.11 538.861 1671.79 538.515L1605.78 536.275L351.783 527.328L87.7861 518.395L64.933 517.622C64.7997 467.169 64.6619 416.721 64.5197 366.277C64.5197 358.019 64.5197 349.766 64.5197 341.517C64.9464 338.557 65.3597 335.584 65.853 332.624C77.6485 250.243 89.4439 167.861 101.239 85.4799C104.359 63.7024 107.639 41.9648 111.079 20.2673C117.879 20.8406 124.679 21.374 131.479 21.814C155.759 23.414 180.198 23.1473 204.518 23.654L375.69 26.8273L1536.07 29.9872C1583.81 30.8806 1631.54 31.5472 1679.26 32.9338C1705.71 33.7071 1732.17 34.5694 1758.62 35.5205L1749.89 166.386Z" fill="#92E683"/>
</svg>
