<svg width="1144" height="162" viewBox="0 0 1144 162" fill="none" xmlns="http://www.w3.org/2000/svg">
<path d="M729.214 3.18041C647.775 5.69593 566.416 9.92257 485.137 15.8603L263.926 19.7802L21.2621 24.0868C13.4355 24.2202 1.26233 29.9668 0.129011 38.6467C-1.20431 48.2199 10.6489 49.8199 17.3155 49.7132L175.02 46.9132C153.154 49.7043 131.296 52.6065 109.448 55.6198C101.875 56.6731 91.3012 60.2064 88.8746 68.4997C86.7146 75.8863 93.4613 81.1262 100.621 81.2595L464.884 87.5128L542.39 88.8461C505.217 92.9083 468.115 97.5927 431.084 102.899C373.058 111.21 315.281 121.019 257.753 132.326C251.54 133.539 242.726 138.992 241.753 145.952C240.846 152.619 248.18 156.979 254.086 157.032L668.322 160.645L785.094 161.672C794.014 161.752 805.453 159.205 809.947 150.445C813.947 142.606 806.44 136.086 798.773 136.019L400.018 132.539C403.724 131.966 407.418 131.406 411.124 130.859C461.355 123.401 511.732 117.095 562.256 111.939C663.322 101.619 764.712 95.8905 866.426 94.7527C870.919 94.7527 875.466 94.6727 879.999 94.6461L1034.46 97.3127C1043.37 97.4594 1054.85 94.7927 1059.32 86.0861C1063.41 78.0862 1055.73 71.953 1048.14 71.6463C995.593 69.5397 943.016 68.6508 890.412 68.9797L683.881 65.4464L319.632 59.1931L290.299 58.6865C353.872 51.931 417.542 46.2199 481.31 41.5533L880.093 34.4867L1122.76 30.1801C1130.18 30.0601 1141.09 24.9535 1143.33 17.3002C1145.57 9.647 1138.72 4.82039 1131.58 4.55372C997.505 -0.504 863.382 -0.961771 729.214 3.18041Z" fill="#92E683"/>
</svg>
