<svg width="1914" height="503" viewBox="0 0 1914 503" fill="none" xmlns="http://www.w3.org/2000/svg">
<path d="M1131.44 131.281C1063.58 146.009 995.605 160.196 927.526 173.84C859.086 187.547 792.367 200.347 725.968 212.506C589.889 237.457 453.446 260.208 316.639 280.759C278.417 286.501 240.124 292.074 201.76 297.479C212.809 293.968 223.871 290.514 234.947 287.119C284.262 272.008 333.928 258.137 383.945 245.506C433.722 232.92 483.775 221.537 534.103 211.36C579.143 202.267 624.142 194.24 671.435 186.893L708.035 182.307L857.18 163.64C864.926 162.68 877.686 158.494 879.219 149.387C879.428 148.353 879.428 147.288 879.219 146.254L937.885 137.654C945.632 136.521 958.379 132.614 959.925 123.401C961.472 114.188 948.659 112.801 942.592 113.347L641.049 140.241L434.438 158.627L640.009 121.947L703.368 110.654C708.79 110.245 714.221 109.845 719.661 109.454L828.993 103.028C836.687 102.574 849.566 97.5343 851.033 88.7744C852.62 79.3345 839.74 78.4412 833.7 78.7212C821.06 79.3079 808.42 79.9524 795.78 80.6546C794.167 74.3613 783.781 73.0146 778.447 73.7746L682.568 87.5878L596.263 92.6677L495.77 98.5743L507.557 96.8677L795.114 55.0148L957.099 31.4417C964.845 30.3084 977.592 26.3885 979.138 17.1753C980.685 7.96202 967.885 6.50869 961.805 7.12202L593.929 46.2283L228.267 85.0945L22.1624 107.001C14.4292 107.828 1.62926 112.254 0.122614 121.267C-1.38404 130.281 11.3758 131.934 17.4558 131.321L355.065 95.4277L223.587 114.561C215.84 115.694 203.094 119.614 201.547 128.827C200 138.041 212.84 139.241 218.88 138.881L324.639 132.667C320.346 133.387 316.066 134.067 311.772 134.801C262.12 143.245 212.618 152.529 163.267 162.654C156.974 163.987 145.934 169.774 146.588 177.493C147.028 183.12 152.561 185.493 157.948 186.04C153.401 188.267 149.588 191.547 148.774 196.4C147.228 205.653 160.041 207 166.107 206.453L467.771 179.547L525.01 174.44L351.772 199.813L185.681 224.133C177.934 225.266 165.187 229.173 163.641 238.386C162.094 247.599 174.881 249.213 180.974 248.439L373.838 224.24C330.639 235.244 287.688 247.146 244.987 259.946C187.965 277.057 131.454 295.772 75.4551 316.092C70.2952 317.959 62.1219 324.172 63.9352 330.758C65.7485 337.345 75.7084 338.385 81.2684 337.665C219.24 319.47 356.892 299.057 494.224 276.426C632.453 253.635 770.283 228.613 907.712 201.36C984.432 186.142 1061.01 170.236 1137.44 153.64C1143.98 152.227 1156.34 145.641 1154.07 137.227C1151.67 128.294 1137.72 129.947 1131.44 131.281Z" fill="#E9FAE6"/>
<path d="M1178.44 296.281C1110.58 311.009 1042.6 325.196 974.526 338.84C906.086 352.547 839.367 365.347 772.968 377.506C636.889 402.457 500.446 425.208 363.639 445.759C325.417 451.501 287.124 457.074 248.76 462.479C259.809 458.968 270.871 455.514 281.947 452.119C331.262 437.008 380.928 423.137 430.945 410.506C480.722 397.92 530.775 386.537 581.103 376.36C626.143 367.267 671.142 359.24 718.435 351.893L755.035 347.307L904.18 328.64C911.926 327.68 924.686 323.494 926.219 314.387C926.428 313.353 926.428 312.288 926.219 311.254L984.885 302.654C992.632 301.521 1005.38 297.614 1006.93 288.401C1008.47 279.188 995.659 277.801 989.592 278.347L688.049 305.241L481.438 323.627L687.009 286.947L750.368 275.654C755.79 275.245 761.221 274.845 766.661 274.454L875.993 268.028C883.687 267.574 896.566 262.534 898.033 253.774C899.62 244.335 886.74 243.441 880.7 243.721C868.06 244.308 855.42 244.952 842.78 245.655C841.167 239.361 830.781 238.015 825.447 238.775L729.568 252.588L643.263 257.668L542.77 263.574L554.557 261.868L842.114 220.015L1004.1 196.442C1011.85 195.308 1024.59 191.388 1026.14 182.175C1027.69 172.962 1014.89 171.509 1008.81 172.122L640.929 211.228L275.267 250.094L69.1624 272.001C61.4292 272.828 48.6293 277.254 47.1226 286.267C45.616 295.281 58.3758 296.934 64.4558 296.321L402.065 260.428L270.587 279.561C262.84 280.694 250.094 284.614 248.547 293.827C247 303.041 259.84 304.241 265.88 303.881L371.639 297.667C367.346 298.387 363.066 299.067 358.772 299.801C309.12 308.245 259.618 317.529 210.267 327.654C203.974 328.987 192.934 334.774 193.588 342.493C194.028 348.12 199.561 350.493 204.948 351.04C200.401 353.267 196.588 356.547 195.774 361.4C194.228 370.653 207.041 372 213.107 371.453L514.771 344.547L572.01 339.44L398.772 364.813L232.681 389.133C224.934 390.266 212.187 394.173 210.641 403.386C209.094 412.599 221.881 414.213 227.974 413.439L420.838 389.24C377.639 400.244 334.688 412.146 291.987 424.946C234.965 442.057 178.454 460.772 122.455 481.092C117.295 482.959 109.122 489.172 110.935 495.758C112.749 502.345 122.708 503.385 128.268 502.665C266.24 484.47 403.892 464.057 541.224 441.426C679.453 418.635 817.283 393.613 954.712 366.36C1031.43 351.142 1108.01 335.236 1184.44 318.64C1190.98 317.227 1203.34 310.641 1201.07 302.227C1198.67 293.294 1184.72 294.947 1178.44 296.281Z" fill="#E9FAE6"/>
<path d="M1890.44 124.281C1822.58 139.009 1754.6 153.196 1686.53 166.84C1618.09 180.547 1551.37 193.347 1484.97 205.506C1348.89 230.457 1212.45 253.208 1075.64 273.759C1037.42 279.501 999.124 285.074 960.76 290.479C971.809 286.968 982.871 283.514 993.947 280.119C1043.26 265.008 1092.93 251.137 1142.94 238.506C1192.72 225.92 1242.77 214.537 1293.1 204.36C1338.14 195.267 1383.14 187.24 1430.44 179.893L1467.03 175.307L1616.18 156.64C1623.93 155.68 1636.69 151.494 1638.22 142.387C1638.43 141.353 1638.43 140.288 1638.22 139.254L1696.89 130.654C1704.63 129.521 1717.38 125.614 1718.93 116.401C1720.47 107.188 1707.66 105.801 1701.59 106.347L1400.05 133.241L1193.44 151.627L1399.01 114.947L1462.37 103.654C1467.79 103.245 1473.22 102.845 1478.66 102.454L1587.99 96.0276C1595.69 95.5743 1608.57 90.5343 1610.03 81.7744C1611.62 72.3345 1598.74 71.4412 1592.7 71.7212C1580.06 72.3079 1567.42 72.9524 1554.78 73.6546C1553.17 67.3613 1542.78 66.0146 1537.45 66.7746L1441.57 80.5878L1355.26 85.6677L1254.77 91.5743L1266.56 89.8677L1554.11 48.0148L1716.1 24.4417C1723.85 23.3084 1736.59 19.3885 1738.14 10.1753C1739.69 0.962022 1726.89 -0.491307 1720.81 0.122019L1352.93 39.2283L987.267 78.0945L781.162 100.001C773.429 100.828 760.629 105.254 759.123 114.267C757.616 123.281 770.376 124.934 776.456 124.321L1114.07 88.4277L982.587 107.561C974.84 108.694 962.094 112.614 960.547 121.827C959 131.041 971.84 132.241 977.88 131.881L1083.64 125.667C1079.35 126.387 1075.07 127.067 1070.77 127.801C1021.12 136.245 971.618 145.529 922.267 155.654C915.974 156.987 904.934 162.774 905.588 170.493C906.028 176.12 911.561 178.493 916.948 179.04C912.401 181.267 908.588 184.547 907.774 189.4C906.228 198.653 919.041 200 925.107 199.453L1226.77 172.547L1284.01 167.44L1110.77 192.813L944.681 217.133C936.934 218.266 924.187 222.173 922.641 231.386C921.094 240.599 933.881 242.213 939.974 241.439L1132.84 217.24C1089.64 228.244 1046.69 240.146 1003.99 252.946C946.965 270.057 890.454 288.772 834.455 309.092C829.295 310.959 821.122 317.172 822.935 323.758C824.749 330.345 834.708 331.385 840.268 330.665C978.24 312.47 1115.89 292.057 1253.22 269.426C1391.45 246.635 1529.28 221.613 1666.71 194.36C1743.43 179.142 1820.01 163.236 1896.44 146.64C1902.98 145.227 1915.34 138.641 1913.07 130.227C1910.67 121.294 1896.72 122.947 1890.44 124.281Z" fill="#E9FAE6"/>
</svg>
