<svg width="2059" height="591" viewBox="0 0 2059 591" fill="none" xmlns="http://www.w3.org/2000/svg">
<path d="M2049.53 42.4006C2024.59 41.5117 1999.66 40.6806 1974.74 39.9073C1929.41 38.574 1883.98 37.774 1838.59 36.934L408.196 8.77409L237.038 5.58744C209.785 5.08078 182.492 5.01423 155.252 4.0409C139.172 3.46758 123.092 1.96082 107.066 0.427501L103.453 0.0674791C97.1327 -0.559181 84.0395 3.18749 82.7595 10.9474C75.8396 53.1736 69.7597 95.5198 63.7597 137.893V118.826C63.7597 112.053 56.1598 110.626 50.5332 111.386C46.4955 111.8 42.6148 113.172 39.2133 115.386C37.1333 116.84 33.64 119.386 33.6534 122.213L34.0934 280.784C34.1467 302.118 34.2045 323.486 34.2667 344.89C29.4845 378.126 24.6935 411.387 19.8935 444.676C13.2892 490.809 6.68478 536.942 0.0804065 583.075C-1.75957 595.888 28.5734 590.941 30.1867 579.755C32.4001 564.244 34.6223 548.746 36.8533 533.262C38.9177 534.899 41.4855 535.771 44.1199 535.728L312.784 544.821L1841.45 578.928L1908.99 581.208L1942.78 582.355C1952.91 582.701 1963.07 583.155 1973.21 582.355C1994.54 580.608 2016.34 571.382 2024.18 550.102C2027.13 542.102 2027.61 533.609 2028.18 525.209C2028.9 514 2029.62 502.787 2030.35 491.569L2047.69 224.025C2051.34 167.546 2055 111.062 2058.66 54.5738L2058.95 50.014C2059.27 44.694 2054.09 42.574 2049.53 42.4006ZM2019.89 191.386C2014.22 279.038 2008.55 366.686 2002.87 454.329C2001.44 476.507 2000.01 498.676 1998.58 520.835C1998.01 529.542 1997.89 538.462 1995.98 546.995C1995.42 550.142 1994.34 553.172 1992.77 555.955C1992.33 556.728 1991.85 557.475 1991.34 558.195C1991.57 557.822 1990.01 559.755 1989.93 559.862C1989.59 560.195 1989.23 560.501 1988.89 560.808C1988.89 560.701 1987.78 561.541 1986.95 562.141L1986.58 562.275L1986.1 562.475C1984.77 562.715 1983.48 563.109 1982.25 563.648C1980.7 563.928 1978.94 563.968 1977.51 564.102C1976.09 564.235 1975.07 564.275 1973.85 564.355H1973.37H1972.74C1962.42 564.355 1952.11 563.861 1941.79 563.515L1875.78 561.275C1875.78 561.275 454.881 530.82 351.783 527.328C248.686 523.837 87.7861 518.395 87.7861 518.395L64.933 517.622C64.7997 467.169 64.6619 416.721 64.5197 366.277C64.5197 358.019 64.5197 349.766 64.5197 341.517C64.9464 338.557 65.3597 335.584 65.853 332.624C77.6485 250.243 89.4439 167.861 101.239 85.4799C104.359 63.7024 107.639 41.9648 111.079 20.2673C117.879 20.8406 124.679 21.374 131.479 21.814C155.759 23.414 180.198 23.1473 204.518 23.654L375.69 26.8273L1806.07 54.9872C1853.81 55.8806 1901.54 56.5472 1949.26 57.9338C1975.71 58.7071 2002.17 59.5694 2028.62 60.5205L2019.89 191.386Z" fill="#92E683"/>
</svg>
